# Blender 5.2.2 LTS
# www.blender.org
mtllib RenderMesh_12613284529.mtl
o RenderMesh_12613284529
v 0.196229 0.254611 -0.075227
v 0.196459 0.256093 -0.075227
v -0.094615 0.299756 -0.075227
v -0.094385 0.301238 -0.075227
v -0.094615 0.299756 0.075227
v -0.094385 0.301238 0.075227
v 0.196229 0.254611 0.075227
v 0.196459 0.256093 0.075227
v -0.214937 -0.245581 -0.090272
v -0.215167 -0.247063 -0.090272
v 0.134077 -0.299755 -0.090272
v 0.133847 -0.301237 -0.090272
v 0.134077 -0.299755 0.090272
v 0.133847 -0.301237 0.090272
v -0.214937 -0.245581 0.090272
v -0.215167 -0.247063 0.090272
v -0.214311 -0.246437 -0.090272
v -0.215793 -0.246207 -0.090272
v -0.206087 -0.193601 0.090272
v -0.207569 -0.193371 0.090272
v -0.206087 -0.193601 -0.090272
v -0.207569 -0.193371 -0.090272
v -0.214311 -0.246437 0.090272
v -0.215793 -0.246207 0.090272
v 0.195602 0.255240 0.075227
v 0.197086 0.255464 0.075227
v 0.210086 0.159405 -0.075227
v 0.211578 0.159551 -0.075227
v 0.195602 0.255240 -0.075227
v 0.197086 0.255464 -0.075227
v 0.210086 0.159405 0.075227
v 0.211578 0.159551 0.075227
v 0.214303 0.065238 -0.075227
v 0.215801 0.065156 -0.075227
v 0.214303 0.065238 0.075227
v 0.215801 0.065156 0.075227
v 0.200135 -0.026038 -0.075227
v 0.201587 -0.026414 -0.075227
v 0.200135 -0.026038 0.075227
v 0.201587 -0.026414 0.075227
v 0.167571 -0.114496 -0.075227
v 0.168949 -0.115088 -0.075227
v 0.167571 -0.114496 0.075227
v 0.168949 -0.115088 0.075227
v 0.124640 -0.201751 -0.075227
v 0.126140 -0.201775 -0.075227
v 0.124640 -0.201751 0.075227
v 0.126140 -0.201775 0.075227
v 0.141481 -0.247918 0.090272
v 0.142889 -0.247402 0.090272
v 0.141481 -0.247918 -0.090272
v 0.142889 -0.247402 -0.090272
v 0.133221 -0.300381 0.090272
v 0.134703 -0.300611 0.090272
v 0.133221 -0.300381 -0.090272
v 0.134703 -0.300611 -0.090272
v 0.141444 -0.247545 -0.090272
v 0.142926 -0.247775 -0.090272
v 0.141444 -0.247545 0.090272
v 0.142926 -0.247775 0.090272
v -0.093758 0.300609 -0.075227
v -0.095242 0.300385 -0.075227
v -0.079267 0.204696 -0.075227
v -0.080759 0.204550 -0.075227
v -0.079267 0.204696 0.075227
v -0.080759 0.204550 0.075227
v -0.093758 0.300609 0.075227
v -0.095242 0.300385 0.075227
v -0.075044 0.110301 0.075227
v -0.076542 0.110383 0.075227
v -0.075044 0.110301 -0.075227
v -0.076542 0.110383 -0.075227
v -0.089257 0.018731 0.075227
v -0.090709 0.019107 0.075227
v -0.089257 0.018731 -0.075227
v -0.090709 0.019107 -0.075227
v -0.121895 -0.069943 0.075227
v -0.123273 -0.069351 0.075227
v -0.121895 -0.069943 -0.075227
v -0.123273 -0.069351 -0.075227
v -0.164864 -0.157082 0.075227
v -0.166044 -0.156156 0.075227
v -0.164864 -0.157082 -0.075227
v -0.166044 -0.156156 -0.075227
v -0.206329 -0.194046 -0.090272
v -0.207327 -0.192926 -0.090272
v -0.206329 -0.194046 0.090272
v -0.207327 -0.192926 0.090272
v 0.133962 -0.300496 -0.089522
v 0.133962 -0.300496 -0.091022
v -0.206828 -0.193486 -0.089522
v -0.206828 -0.193486 -0.091022
v 0.142185 -0.247660 -0.089522
v 0.142185 -0.247660 -0.091022
v -0.215052 -0.246322 -0.089522
v -0.215052 -0.246322 -0.091022
v 0.133962 -0.300496 0.089522
v 0.133962 -0.300496 0.091022
v -0.206828 -0.193486 0.089522
v -0.206828 -0.193486 0.091022
v -0.215052 -0.246322 0.089522
v -0.215052 -0.246322 0.091022
v 0.142185 -0.247660 0.089522
v 0.142185 -0.247660 0.091022
v 0.196344 0.255352 0.074477
v 0.196344 0.255352 0.075977
v -0.080013 0.204623 0.074477
v -0.080013 0.204623 0.075977
v 0.210832 0.159478 0.074477
v 0.210832 0.159478 0.075977
v -0.094500 0.300497 0.074477
v -0.094500 0.300497 0.075977
v -0.075793 0.110342 0.074477
v -0.075793 0.110342 0.075977
v 0.215052 0.065197 0.074477
v 0.215052 0.065197 0.075977
v -0.089983 0.018919 0.074477
v -0.089983 0.018919 0.075977
v 0.200861 -0.026226 0.074477
v 0.200861 -0.026226 0.075977
v 0.168260 -0.114792 0.074477
v 0.168260 -0.114792 0.075977
v -0.122584 -0.069647 0.074477
v -0.122584 -0.069647 0.075977
v 0.125370 -0.201893 0.074489
v 0.125410 -0.201633 0.075965
v -0.165479 -0.156778 0.074494
v -0.165429 -0.156460 0.075960
v 0.142147 -0.247906 0.089565
v 0.142223 -0.247414 0.090980
v -0.206866 -0.193732 0.089565
v -0.206790 -0.193240 0.090980
v 0.196344 0.255352 -0.074477
v 0.196344 0.255352 -0.075977
v -0.080013 0.204623 -0.074477
v -0.080013 0.204623 -0.075977
v -0.094500 0.300497 -0.074477
v -0.094500 0.300497 -0.075977
v 0.210832 0.159478 -0.074477
v 0.210832 0.159478 -0.075977
v -0.075793 0.110342 -0.074477
v -0.075793 0.110342 -0.075977
v 0.215052 0.065197 -0.074477
v 0.215052 0.065197 -0.075977
v -0.089983 0.018919 -0.074477
v -0.089983 0.018919 -0.075977
v 0.200861 -0.026226 -0.074477
v 0.200861 -0.026226 -0.075977
v 0.168260 -0.114792 -0.074477
v 0.168260 -0.114792 -0.075977
v -0.122584 -0.069647 -0.074477
v -0.122584 -0.069647 -0.075977
v 0.125370 -0.201893 -0.074489
v 0.125410 -0.201633 -0.075965
v -0.165479 -0.156778 -0.074494
v -0.165429 -0.156460 -0.075960
v 0.142147 -0.247906 -0.089564
v 0.142223 -0.247414 -0.090979
v -0.206866 -0.193732 -0.089564
v -0.206790 -0.193240 -0.090980
v -0.079979 0.203874 -0.074477
v -0.075827 0.111091 -0.074477
v -0.075827 0.111091 0.074477
v -0.079979 0.203874 0.074477
v -0.089127 0.019545 0.075227
v 0.200235 -0.025370 0.075227
v 0.214196 0.064571 0.075227
v -0.075167 0.109486 0.075227
v 0.214937 0.064456 0.074477
v 0.200976 -0.025485 0.074477
v 0.200976 -0.025485 -0.074477
v 0.214937 0.064456 -0.074477
v 0.200602 -0.026930 0.074477
v 0.168519 -0.114088 0.074477
v 0.168519 -0.114088 -0.074477
v 0.200602 -0.026930 -0.074477
v 0.133221 -0.300381 0.089522
v -0.214311 -0.246437 0.089522
v -0.214311 -0.246437 -0.089522
v 0.133221 -0.300381 -0.089522
v 0.196456 0.254610 0.074477
v 0.210720 0.160220 0.074477
v 0.210720 0.160220 -0.074477
v 0.196456 0.254610 -0.074477
v 0.210866 0.158729 0.074477
v 0.215018 0.065946 0.074477
v 0.215018 0.065946 -0.074477
v 0.210866 0.158729 -0.074477
v 0.141071 -0.246771 -0.090023
v -0.205205 -0.193022 -0.090023
v -0.165200 -0.157374 -0.075476
v 0.124832 -0.202392 -0.075476
v 0.167928 -0.115465 0.074477
v 0.125722 -0.201090 0.074477
v 0.125722 -0.201090 -0.074477
v 0.167928 -0.115465 -0.074477
v -0.075908 0.109601 -0.074477
v -0.089868 0.019660 -0.074477
v -0.089868 0.019660 0.074477
v -0.075908 0.109601 0.074477
v -0.214937 -0.245581 -0.089522
v -0.214937 -0.245581 0.089522
v -0.206943 -0.194227 0.089522
v -0.206943 -0.194227 -0.089522
v -0.093759 0.300382 0.074477
v 0.195603 0.255467 0.074477
v 0.195603 0.255467 -0.074477
v -0.093759 0.300382 -0.074477
v -0.080125 0.205365 0.074477
v -0.094388 0.299755 0.074477
v -0.094388 0.299755 -0.074477
v -0.080125 0.205365 -0.074477
v -0.090242 0.018215 -0.074477
v -0.122325 -0.068943 -0.074477
v -0.122325 -0.068943 0.074477
v -0.090242 0.018215 0.074477
v -0.165200 -0.157374 0.075476
v -0.205205 -0.193022 0.090023
v 0.141071 -0.246771 0.090023
v 0.124832 -0.202392 0.075476
v 0.209981 0.160093 -0.075227
v -0.075082 0.111225 -0.075227
v -0.079235 0.204003 -0.075227
v 0.195718 0.254475 -0.075227
v -0.075082 0.111225 0.075227
v 0.209981 0.160093 0.075227
v 0.195718 0.254475 0.075227
v -0.079235 0.204003 0.075227
v -0.121654 -0.069293 0.075227
v 0.125060 -0.200737 0.075227
v 0.167262 -0.115120 0.075227
v -0.089573 0.017862 0.075227
v -0.079387 0.205500 0.075227
v 0.191853 0.255290 0.075227
v -0.093606 0.299599 0.075227
v 0.210121 0.158595 0.075227
v -0.071140 0.110379 0.075227
v 0.214262 0.066079 0.075227
v 0.133336 -0.299640 0.090272
v 0.141329 -0.248286 0.090272
v -0.206202 -0.194342 0.090272
v -0.214196 -0.245696 0.090272
v 0.199841 -0.026827 0.075227
v -0.085560 0.017473 0.075227
v 0.167850 -0.113735 0.075227
v -0.206268 -0.192987 -0.089291
v -0.206268 -0.192987 0.089291
v -0.166014 -0.157118 0.074653
v -0.166014 -0.157118 -0.074653
v -0.164330 -0.156035 0.075227
v 0.121129 -0.200343 0.075227
v -0.122254 -0.070673 0.075227
v 0.214196 0.064571 -0.075227
v 0.200235 -0.025370 -0.075227
v -0.089127 0.019545 -0.075227
v -0.075167 0.109486 -0.075227
v 0.191853 0.255290 -0.075227
v -0.079387 0.205500 -0.075227
v -0.093606 0.299599 -0.075227
v 0.125060 -0.200737 -0.075227
v -0.121654 -0.069293 -0.075227
v -0.089573 0.017862 -0.075227
v 0.167262 -0.115120 -0.075227
v -0.071140 0.110379 -0.075227
v 0.210121 0.158595 -0.075227
v 0.214262 0.066079 -0.075227
v 0.133336 -0.299640 -0.090272
v -0.214196 -0.245696 -0.090272
v -0.206202 -0.194342 -0.090272
v 0.141329 -0.248286 -0.090272
v 0.167850 -0.113735 -0.075227
v -0.085560 0.017473 -0.075227
v 0.199841 -0.026827 -0.075227
v 0.141927 -0.246956 0.089256
v 0.141927 -0.246956 -0.089256
v 0.125648 -0.202467 -0.074673
v 0.125648 -0.202467 0.074673
v -0.122254 -0.070673 -0.075227
v 0.121129 -0.200343 -0.075227
v -0.164330 -0.156035 -0.075227
v 0.142070 -0.248401 -0.089522
v 0.142070 -0.248401 0.089522
v 0.134077 -0.299755 0.089522
v 0.134077 -0.299755 -0.089522
v -0.122916 -0.070320 -0.074477
v -0.165122 -0.155946 -0.074477
v -0.165122 -0.155946 0.074477
v -0.122916 -0.070320 0.074477
vn 0.7075 0.0317 0.7060
vn -0.7075 -0.0317 0.7060
vn 0.7106 0.7036 -0.0000
vn -0.7036 0.7106 -0.0000
vn 0.7075 0.0317 -0.7060
vn -0.7075 -0.0317 -0.7060
vn 0.7555 -0.6551 -0.0000
vn -0.6551 -0.7555 -0.0000
vn 0.1085 0.6987 -0.7071
vn 0.1085 0.6987 0.7071
vn -0.6987 0.1085 -0.7071
vn -0.6987 0.1085 0.7071
vn -0.1085 -0.6987 -0.7071
vn -0.1085 -0.6987 0.7071
vn 0.6987 -0.1085 -0.7071
vn 0.6987 -0.1085 0.7071
vn -0.7005 0.1087 -0.7054
vn 0.7005 -0.1087 -0.7054
vn -0.5495 0.8355 -0.0000
vn 0.8355 0.5495 -0.0000
vn -0.7005 0.1087 0.7054
vn 0.7005 -0.1087 0.7054
vn -0.7769 -0.6296 -0.0000
vn 0.6296 -0.7769 -0.0000
vn -0.6646 0.2447 -0.7060
vn 0.6646 -0.2446 -0.7060
vn -0.3953 0.9186 -0.0000
vn 0.9186 0.3953 -0.0000
vn -0.6646 0.2447 0.7060
vn 0.6646 -0.2446 0.7060
vn -0.8859 -0.4639 -0.0000
vn 0.4639 -0.8859 -0.0000
vn 0.8072 0.5903 -0.0000
vn 0.5903 -0.8072 -0.0000
vn -0.5903 0.8072 -0.0000
vn -0.8072 -0.5903 -0.0000
vn -0.6994 -0.1057 -0.7069
vn 0.6994 0.1057 -0.7069
vn -0.7889 0.6145 -0.0000
vn 0.6145 0.7889 -0.0000
vn -0.6994 -0.1057 0.7069
vn 0.6994 0.1057 0.7069
vn -0.5935 -0.8048 -0.0000
vn 0.8048 -0.5935 -0.0000
vn 0.0663 0.4273 0.9017
vn 0.1383 0.8910 -0.4325
vn 0.4425 -0.7162 0.5396
vn 0.5325 -0.2709 -0.8019
vn -0.1332 -0.8585 0.4953
vn -0.0760 -0.4892 -0.8688
vn -0.6892 -0.4403 0.5754
vn -0.6418 0.0161 -0.7667
vn -0.6499 0.3201 -0.6893
vn 0.6498 -0.3206 -0.6892
vn -0.5211 0.8535 -0.0000
vn 0.8535 0.5211 -0.0000
vn -0.6499 0.3201 0.6893
vn 0.6498 -0.3206 0.6892
vn -0.9381 -0.3464 -0.0000
vn 0.3464 -0.9381 -0.0000
vn 0.8075 0.5899 -0.0000
vn -0.5899 0.8074 -0.0000
vn 0.6987 -0.1088 -0.7071
vn -0.6987 0.1088 -0.7071
vn 0.5899 -0.8075 -0.0000
vn -0.8075 -0.5899 -0.0000
vn 0.6987 -0.1088 0.7071
vn -0.6987 0.1088 0.7071
vn 0.4425 -0.7162 -0.5396
vn 0.5325 -0.2709 0.8019
vn 0.0663 0.4273 -0.9017
vn 0.1383 0.8910 0.4325
vn -0.6892 -0.4403 -0.5754
vn -0.6418 0.0161 0.7667
vn -0.1332 -0.8585 -0.4953
vn -0.0760 -0.4892 0.8688
vn -0.1195 0.6969 0.7071
vn -0.1195 0.6969 -0.7071
vn 0.7064 0.0316 0.7071
vn 0.7064 0.0316 -0.7071
vn 0.1277 -0.6955 0.7071
vn 0.1277 -0.6955 -0.7071
vn -0.6992 -0.1057 0.7071
vn -0.6992 -0.1057 -0.7071
vn 0.3178 0.5961 -0.7373
vn 0.3452 0.6482 0.6787
vn -0.6235 0.3071 -0.7189
vn -0.6401 0.3157 0.7004
vn -0.3251 -0.6279 -0.7071
vn -0.3251 -0.6279 0.7071
vn 0.6636 -0.2443 -0.7071
vn 0.6636 -0.2443 0.7071
vn -0.1277 0.6955 -0.7071
vn -0.1277 0.6955 0.7071
vn 0.6992 0.1056 -0.7071
vn 0.6992 0.1056 0.7071
vn 0.1195 -0.6969 -0.7071
vn 0.1195 -0.6969 0.7071
vn -0.7064 -0.0316 -0.7071
vn -0.7064 -0.0316 0.7071
vn -0.6987 0.1087 -0.7071
vn -0.6987 0.1087 0.7071
vn 0.3251 0.6279 -0.7071
vn 0.3251 0.6279 0.7071
vn -0.6636 0.2443 -0.7071
vn -0.6636 0.2443 0.7071
vn 0.9983 -0.0575 -0.0000
vn 0.0575 0.9983 -0.0000
vn 0.3416 -0.6571 -0.6719
vn -0.6062 0.3995 -0.6877
vn 0.0311 -0.9995 -0.0000
vn -0.9995 -0.0311 -0.0000
vn 0.3416 -0.6571 0.6719
vn -0.6062 0.3995 0.6877
vn 0.0972 0.6268 -0.7731
vn 0.1186 0.7639 0.6344
vn -0.3454 -0.6479 -0.6789
vn -0.3176 -0.5964 0.7372
vn 0.6409 -0.3158 -0.6997
vn 0.6203 -0.3060 0.7222
vn 0.3178 0.5961 0.7373
vn 0.3452 0.6482 -0.6787
vn -0.6235 0.3071 0.7189
vn -0.6401 0.3157 -0.7004
vn -0.9070 0.4210 -0.0000
vn 0.4210 0.9070 -0.0000
vn -0.6237 -0.4392 0.6466
vn 0.7295 0.0429 0.6826
vn -0.5796 -0.8149 -0.0000
vn 0.8149 -0.5796 -0.0000
vn -0.6237 -0.4392 -0.6466
vn 0.7295 0.0429 -0.6826
vn -0.3454 -0.6479 0.6789
vn -0.3176 -0.5964 -0.7372
vn 0.0972 0.6268 0.7731
vn 0.1186 0.7639 -0.6344
vn 0.6409 -0.3158 0.6997
vn 0.6203 -0.3060 -0.7222
vn -0.8074 -0.5900 -0.0000
vn 0.5900 -0.8074 -0.0000
vn 0.6987 -0.1087 -0.7071
vn 0.8074 0.5900 -0.0000
vn 0.6987 -0.1087 0.7071
vn 0.6378 -0.3145 0.7030
vn -0.6379 0.3144 0.7030
vn 0.9751 0.2218 -0.0000
vn -0.2217 0.9751 -0.0000
vn 0.6378 -0.3145 -0.7030
vn -0.6379 0.3144 -0.7030
vt 0.000000 0.000000
s 0
f 161/1/1 162/1/1 71/1/1 63/1/1
f 162/1/2 161/1/2 64/1/2 72/1/2
f 162/1/3 163/1/3 69/1/3 71/1/3
f 163/1/4 162/1/4 72/1/4 70/1/4
f 163/1/5 164/1/5 65/1/5 69/1/5
f 164/1/6 163/1/6 70/1/6 66/1/6
f 164/1/7 161/1/7 63/1/7 65/1/7
f 161/1/8 164/1/8 66/1/8 64/1/8
f 165/1/9 166/1/9 119/1/9 117/1/9
f 166/1/10 165/1/10 118/1/10 120/1/10
f 166/1/11 167/1/11 115/1/11 119/1/11
f 167/1/12 166/1/12 120/1/12 116/1/12
f 167/1/13 168/1/13 113/1/13 115/1/13
f 168/1/14 167/1/14 116/1/14 114/1/14
f 168/1/15 165/1/15 117/1/15 113/1/15
f 165/1/16 168/1/16 114/1/16 118/1/16
f 169/1/17 170/1/17 39/1/17 35/1/17
f 170/1/18 169/1/18 36/1/18 40/1/18
f 170/1/19 171/1/19 37/1/19 39/1/19
f 171/1/20 170/1/20 40/1/20 38/1/20
f 171/1/21 172/1/21 33/1/21 37/1/21
f 172/1/22 171/1/22 38/1/22 34/1/22
f 172/1/23 169/1/23 35/1/23 33/1/23
f 169/1/24 172/1/24 34/1/24 36/1/24
f 173/1/25 174/1/25 43/1/25 39/1/25
f 174/1/26 173/1/26 40/1/26 44/1/26
f 174/1/27 175/1/27 41/1/27 43/1/27
f 175/1/28 174/1/28 44/1/28 42/1/28
f 175/1/29 176/1/29 37/1/29 41/1/29
f 176/1/30 175/1/30 42/1/30 38/1/30
f 176/1/31 173/1/31 39/1/31 37/1/31
f 173/1/32 176/1/32 38/1/32 40/1/32
f 177/1/9 178/1/9 15/1/9 13/1/9
f 178/1/13 177/1/13 14/1/13 16/1/13
f 178/1/33 179/1/33 9/1/33 15/1/33
f 179/1/34 178/1/34 16/1/34 10/1/34
f 179/1/10 180/1/10 11/1/10 9/1/10
f 180/1/14 179/1/14 10/1/14 12/1/14
f 180/1/35 177/1/35 13/1/35 11/1/35
f 177/1/36 180/1/36 12/1/36 14/1/36
f 181/1/37 182/1/37 31/1/37 25/1/37
f 182/1/38 181/1/38 26/1/38 32/1/38
f 182/1/39 183/1/39 27/1/39 31/1/39
f 183/1/40 182/1/40 32/1/40 28/1/40
f 183/1/41 184/1/41 29/1/41 27/1/41
f 184/1/42 183/1/42 28/1/42 30/1/42
f 184/1/43 181/1/43 25/1/43 29/1/43
f 181/1/44 184/1/44 30/1/44 26/1/44
f 185/1/6 186/1/6 35/1/6 31/1/6
f 186/1/5 185/1/5 32/1/5 36/1/5
f 186/1/4 187/1/4 33/1/4 35/1/4
f 187/1/3 186/1/3 36/1/3 34/1/3
f 187/1/2 188/1/2 27/1/2 33/1/2
f 188/1/1 187/1/1 34/1/1 28/1/1
f 188/1/8 185/1/8 31/1/8 27/1/8
f 185/1/7 188/1/7 28/1/7 32/1/7
f 189/1/45 190/1/45 159/1/45 157/1/45
f 190/1/46 189/1/46 158/1/46 160/1/46
f 190/1/47 191/1/47 155/1/47 159/1/47
f 191/1/48 190/1/48 160/1/48 156/1/48
f 191/1/49 192/1/49 153/1/49 155/1/49
f 192/1/50 191/1/50 156/1/50 154/1/50
f 192/1/51 189/1/51 157/1/51 153/1/51
f 189/1/52 192/1/52 154/1/52 158/1/52
f 193/1/53 194/1/53 47/1/53 43/1/53
f 194/1/54 193/1/54 44/1/54 48/1/54
f 194/1/55 195/1/55 45/1/55 47/1/55
f 195/1/56 194/1/56 48/1/56 46/1/56
f 195/1/57 196/1/57 41/1/57 45/1/57
f 196/1/58 195/1/58 46/1/58 42/1/58
f 196/1/59 193/1/59 43/1/59 41/1/59
f 193/1/60 196/1/60 42/1/60 44/1/60
f 197/1/22 198/1/22 75/1/22 71/1/22
f 198/1/21 197/1/21 72/1/21 76/1/21
f 198/1/20 199/1/20 73/1/20 75/1/20
f 199/1/19 198/1/19 76/1/19 74/1/19
f 199/1/18 200/1/18 69/1/18 73/1/18
f 200/1/17 199/1/17 74/1/17 70/1/17
f 200/1/24 197/1/24 71/1/24 69/1/24
f 197/1/23 200/1/23 70/1/23 72/1/23
f 201/1/61 202/1/61 23/1/61 17/1/61
f 202/1/62 201/1/62 18/1/62 24/1/62
f 202/1/63 203/1/63 19/1/63 23/1/63
f 203/1/64 202/1/64 24/1/64 20/1/64
f 203/1/65 204/1/65 21/1/65 19/1/65
f 204/1/66 203/1/66 20/1/66 22/1/66
f 204/1/67 201/1/67 17/1/67 21/1/67
f 201/1/68 204/1/68 22/1/68 18/1/68
f 205/1/13 206/1/13 7/1/13 5/1/13
f 206/1/9 205/1/9 6/1/9 8/1/9
f 206/1/36 207/1/36 1/1/36 7/1/36
f 207/1/35 206/1/35 8/1/35 2/1/35
f 207/1/14 208/1/14 3/1/14 1/1/14
f 208/1/10 207/1/10 2/1/10 4/1/10
f 208/1/34 205/1/34 5/1/34 3/1/34
f 205/1/33 208/1/33 4/1/33 6/1/33
f 209/1/38 210/1/38 67/1/38 65/1/38
f 210/1/37 209/1/37 66/1/37 68/1/37
f 210/1/44 211/1/44 61/1/44 67/1/44
f 211/1/43 210/1/43 68/1/43 62/1/43
f 211/1/42 212/1/42 63/1/42 61/1/42
f 212/1/41 211/1/41 62/1/41 64/1/41
f 212/1/40 209/1/40 65/1/40 63/1/40
f 209/1/39 212/1/39 64/1/39 66/1/39
f 213/1/30 214/1/30 79/1/30 75/1/30
f 214/1/29 213/1/29 76/1/29 80/1/29
f 214/1/28 215/1/28 77/1/28 79/1/28
f 215/1/27 214/1/27 80/1/27 78/1/27
f 215/1/26 216/1/26 73/1/26 77/1/26
f 216/1/25 215/1/25 78/1/25 74/1/25
f 216/1/32 213/1/32 75/1/32 73/1/32
f 213/1/31 216/1/31 74/1/31 76/1/31
f 217/1/69 218/1/69 131/1/69 127/1/69
f 218/1/70 217/1/70 128/1/70 132/1/70
f 218/1/71 219/1/71 129/1/71 131/1/71
f 219/1/72 218/1/72 132/1/72 130/1/72
f 219/1/73 220/1/73 125/1/73 129/1/73
f 220/1/74 219/1/74 130/1/74 126/1/74
f 220/1/75 217/1/75 127/1/75 125/1/75
f 217/1/76 220/1/76 126/1/76 128/1/76
f 221/1/77 222/1/77 141/1/77 139/1/77
f 222/1/78 221/1/78 140/1/78 142/1/78
f 222/1/79 223/1/79 135/1/79 141/1/79
f 223/1/80 222/1/80 142/1/80 136/1/80
f 223/1/81 224/1/81 133/1/81 135/1/81
f 224/1/82 223/1/82 136/1/82 134/1/82
f 224/1/83 221/1/83 139/1/83 133/1/83
f 221/1/84 224/1/84 134/1/84 140/1/84
f 225/1/78 226/1/78 109/1/78 113/1/78
f 226/1/77 225/1/77 114/1/77 110/1/77
f 226/1/84 227/1/84 105/1/84 109/1/84
f 227/1/83 226/1/83 110/1/83 106/1/83
f 227/1/82 228/1/82 107/1/82 105/1/82
f 228/1/81 227/1/81 106/1/81 108/1/81
f 228/1/80 225/1/80 113/1/80 107/1/80
f 225/1/79 228/1/79 108/1/79 114/1/79
f 229/1/85 230/1/85 125/1/85 123/1/85
f 230/1/86 229/1/86 124/1/86 126/1/86
f 230/1/87 231/1/87 121/1/87 125/1/87
f 231/1/88 230/1/88 126/1/88 122/1/88
f 231/1/89 232/1/89 117/1/89 121/1/89
f 232/1/90 231/1/90 122/1/90 118/1/90
f 232/1/91 229/1/91 123/1/91 117/1/91
f 229/1/92 232/1/92 118/1/92 124/1/92
f 233/1/93 234/1/93 105/1/93 107/1/93
f 234/1/94 233/1/94 108/1/94 106/1/94
f 234/1/13 235/1/13 111/1/13 105/1/13
f 235/1/14 234/1/14 106/1/14 112/1/14
f 235/1/95 233/1/95 107/1/95 111/1/95
f 233/1/96 235/1/96 112/1/96 108/1/96
f 236/1/97 237/1/97 113/1/97 109/1/97
f 237/1/98 236/1/98 110/1/98 114/1/98
f 237/1/9 238/1/9 115/1/9 113/1/9
f 238/1/10 237/1/10 114/1/10 116/1/10
f 238/1/99 236/1/99 109/1/99 115/1/99
f 236/1/100 238/1/100 116/1/100 110/1/100
f 239/1/101 240/1/101 103/1/101 97/1/101
f 240/1/102 239/1/102 98/1/102 104/1/102
f 240/1/13 241/1/13 99/1/13 103/1/13
f 241/1/14 240/1/14 104/1/14 100/1/14
f 241/1/63 242/1/63 101/1/63 99/1/63
f 242/1/67 241/1/67 100/1/67 102/1/67
f 242/1/9 239/1/9 97/1/9 101/1/9
f 239/1/10 242/1/10 102/1/10 98/1/10
f 243/1/13 244/1/13 117/1/13 119/1/13
f 244/1/14 243/1/14 120/1/14 118/1/14
f 244/1/103 245/1/103 121/1/103 117/1/103
f 245/1/104 244/1/104 118/1/104 122/1/104
f 245/1/105 243/1/105 119/1/105 121/1/105
f 243/1/106 245/1/106 122/1/106 120/1/106
f 246/1/107 247/1/107 87/1/107 85/1/107
f 247/1/108 246/1/108 86/1/108 88/1/108
f 247/1/109 248/1/109 81/1/109 87/1/109
f 248/1/110 247/1/110 88/1/110 82/1/110
f 248/1/111 249/1/111 83/1/111 81/1/111
f 249/1/112 248/1/112 82/1/112 84/1/112
f 249/1/113 246/1/113 85/1/113 83/1/113
f 246/1/114 249/1/114 84/1/114 86/1/114
f 250/1/115 251/1/115 125/1/115 127/1/115
f 251/1/116 250/1/116 128/1/116 126/1/116
f 251/1/117 252/1/117 123/1/117 125/1/117
f 252/1/118 251/1/118 126/1/118 124/1/118
f 252/1/119 250/1/119 127/1/119 123/1/119
f 250/1/120 252/1/120 124/1/120 128/1/120
f 253/1/12 254/1/12 147/1/12 143/1/12
f 254/1/11 253/1/11 144/1/11 148/1/11
f 254/1/10 255/1/10 145/1/10 147/1/10
f 255/1/9 254/1/9 148/1/9 146/1/9
f 255/1/16 256/1/16 141/1/16 145/1/16
f 256/1/15 255/1/15 146/1/15 142/1/15
f 256/1/14 253/1/14 143/1/14 141/1/14
f 253/1/13 256/1/13 142/1/13 144/1/13
f 257/1/94 258/1/94 135/1/94 133/1/94
f 258/1/93 257/1/93 134/1/93 136/1/93
f 258/1/96 259/1/96 137/1/96 135/1/96
f 259/1/95 258/1/95 136/1/95 138/1/95
f 259/1/14 257/1/14 133/1/14 137/1/14
f 257/1/13 259/1/13 138/1/13 134/1/13
f 260/1/121 261/1/121 151/1/121 153/1/121
f 261/1/122 260/1/122 154/1/122 152/1/122
f 261/1/92 262/1/92 145/1/92 151/1/92
f 262/1/91 261/1/91 152/1/91 146/1/91
f 262/1/90 263/1/90 149/1/90 145/1/90
f 263/1/89 262/1/89 146/1/89 150/1/89
f 263/1/123 260/1/123 153/1/123 149/1/123
f 260/1/124 263/1/124 150/1/124 154/1/124
f 264/1/98 265/1/98 139/1/98 141/1/98
f 265/1/97 264/1/97 142/1/97 140/1/97
f 265/1/100 266/1/100 143/1/100 139/1/100
f 266/1/99 265/1/99 140/1/99 144/1/99
f 266/1/10 264/1/10 141/1/10 143/1/10
f 264/1/9 266/1/9 144/1/9 142/1/9
f 267/1/10 268/1/10 95/1/10 89/1/10
f 268/1/9 267/1/9 90/1/9 96/1/9
f 268/1/67 269/1/67 91/1/67 95/1/67
f 269/1/63 268/1/63 96/1/63 92/1/63
f 269/1/14 270/1/14 93/1/14 91/1/14
f 270/1/13 269/1/13 92/1/13 94/1/13
f 270/1/102 267/1/102 89/1/102 93/1/102
f 267/1/101 270/1/101 94/1/101 90/1/101
f 271/1/104 272/1/104 145/1/104 149/1/104
f 272/1/103 271/1/103 150/1/103 146/1/103
f 272/1/14 273/1/14 147/1/14 145/1/14
f 273/1/13 272/1/13 146/1/13 148/1/13
f 273/1/106 271/1/106 149/1/106 147/1/106
f 271/1/105 273/1/105 148/1/105 150/1/105
f 274/1/125 275/1/125 51/1/125 49/1/125
f 275/1/126 274/1/126 50/1/126 52/1/126
f 275/1/127 276/1/127 45/1/127 51/1/127
f 276/1/128 275/1/128 52/1/128 46/1/128
f 276/1/129 277/1/129 47/1/129 45/1/129
f 277/1/130 276/1/130 46/1/130 48/1/130
f 277/1/131 274/1/131 49/1/131 47/1/131
f 274/1/132 277/1/132 48/1/132 50/1/132
f 278/1/133 279/1/133 153/1/133 151/1/133
f 279/1/134 278/1/134 152/1/134 154/1/134
f 279/1/135 280/1/135 155/1/135 153/1/135
f 280/1/136 279/1/136 154/1/136 156/1/136
f 280/1/137 278/1/137 151/1/137 155/1/137
f 278/1/138 280/1/138 156/1/138 152/1/138
f 281/1/139 282/1/139 59/1/139 57/1/139
f 282/1/140 281/1/140 58/1/140 60/1/140
f 282/1/101 283/1/101 53/1/101 59/1/101
f 283/1/141 282/1/141 60/1/141 54/1/141
f 283/1/62 284/1/62 55/1/62 53/1/62
f 284/1/142 283/1/142 54/1/142 56/1/142
f 284/1/102 281/1/102 57/1/102 55/1/102
f 281/1/143 284/1/143 56/1/143 58/1/143
f 285/1/144 286/1/144 83/1/144 79/1/144
f 286/1/145 285/1/145 80/1/145 84/1/145
f 286/1/146 287/1/146 81/1/146 83/1/146
f 287/1/147 286/1/147 84/1/147 82/1/147
f 287/1/148 288/1/148 77/1/148 81/1/148
f 288/1/149 287/1/149 82/1/149 78/1/149
f 288/1/60 285/1/60 79/1/60 77/1/60
f 285/1/59 288/1/59 78/1/59 80/1/59
