# Blender 5.2.2 LTS
# www.blender.org
mtllib RenderMesh_12613284249.mtl
o RenderMesh_12613284249
v -1.051893 0.197424 -0.115091
v -1.053393 0.197424 -0.115091
v -1.051893 0.049471 -0.115091
v -1.053393 0.049471 -0.115091
v -1.051893 0.197424 0.114473
v -1.053393 0.197424 0.114473
v -1.051893 0.049471 0.114473
v -1.053393 0.049471 0.114473
v -1.045866 0.278175 -0.084910
v -1.047366 0.278175 -0.084910
v -1.045866 0.135418 -0.084910
v -1.047366 0.135418 -0.084910
v -1.045866 0.278175 0.084292
v -1.047366 0.278175 0.084292
v -1.045866 0.135418 0.084292
v -1.047366 0.135418 0.084292
v 1.051893 0.215838 -0.124489
v 1.053393 0.215838 -0.124489
v 1.051893 -0.290426 0.124489
v 1.053393 -0.290426 0.124489
v 1.051893 -0.290426 -0.124489
v 1.053393 -0.290426 -0.124489
v 1.051893 0.215838 0.124489
v 1.053393 0.215838 0.124489
v -0.782635 0.262034 0.084292
v -0.784135 0.262034 0.084292
v -0.782635 0.262034 -0.084910
v -0.784135 0.262034 -0.084910
v -0.782635 0.219013 -0.084910
v -0.784135 0.219013 -0.084910
v -0.782635 0.219013 0.084292
v -0.784135 0.219013 0.084292
v 0.766412 0.200426 -0.110640
v 0.767877 0.200106 -0.110640
v 0.746412 0.108947 0.110640
v 0.747877 0.108627 0.110640
v 0.746412 0.108947 -0.110640
v 0.747877 0.108627 -0.110640
v 0.766412 0.200426 0.110640
v 0.767877 0.200106 0.110640
v 0.701412 0.023947 -0.103690
v 0.702816 0.023418 -0.103690
v 0.701412 0.023947 0.103690
v 0.702816 0.023418 0.103690
v 0.666412 -0.041053 -0.103690
v 0.667733 -0.041764 -0.103690
v 0.666412 -0.041053 0.103690
v 0.667733 -0.041764 0.103690
v 0.716412 0.088947 0.103690
v 0.717874 0.088610 0.103690
v 0.716412 0.088947 -0.103690
v 0.717874 0.088610 -0.103690
v -0.530635 0.219013 -0.084910
v -0.532135 0.219013 -0.084910
v -0.530635 0.219013 0.084292
v -0.532135 0.219013 0.084292
v -0.530635 0.262034 -0.084910
v -0.532135 0.262034 -0.084910
v -0.530635 0.262034 0.084292
v -0.532135 0.262034 0.084292
v 0.746412 0.108947 -0.110640
v 0.747244 0.107699 -0.110640
v 0.716412 0.088947 0.103690
v 0.717244 0.087699 0.103690
v 0.716412 0.088947 -0.103690
v 0.717244 0.087699 -0.103690
v 0.746412 0.108947 0.110640
v 0.747244 0.107699 0.110640
v 0.979533 -0.290426 0.124489
v 0.979533 -0.291926 0.124489
v 0.979533 -0.290426 -0.124489
v 0.979533 -0.291926 -0.124489
v 1.051893 -0.290426 -0.124489
v 1.051893 -0.291926 -0.124489
v 1.051893 -0.290426 0.124489
v 1.051893 -0.291926 0.124489
v 0.686411 0.250426 -0.110640
v 0.686989 0.251810 -0.110640
v 0.686411 0.250426 0.110640
v 0.686989 0.251810 0.110640
v 0.766412 0.200426 -0.110640
v 0.767207 0.201698 -0.110640
v 0.766412 0.200426 0.110640
v 0.767207 0.201698 0.110640
v 0.601758 0.270426 -0.110640
v 0.601932 0.271916 -0.110640
v 0.601758 0.270426 0.110640
v 0.601932 0.271916 0.110640
v 0.505452 0.270426 -0.110640
v 0.505635 0.271915 -0.110640
v 0.505452 0.270426 0.110640
v 0.505635 0.271915 0.110640
v 0.425452 0.290426 0.110640
v 0.425816 0.291881 0.110640
v 0.425452 0.290426 -0.110640
v 0.425816 0.291881 -0.110640
v 0.505452 -0.041053 0.103690
v 0.505452 -0.042553 0.103690
v 0.505452 -0.041053 -0.103690
v 0.505452 -0.042553 -0.103690
v 0.591758 -0.041053 -0.103690
v 0.591758 -0.042553 -0.103690
v 0.425452 -0.041053 -0.103690
v 0.425452 -0.042553 -0.103690
v 0.425452 -0.041053 0.103690
v 0.425452 -0.042553 0.103690
v 0.591758 -0.041053 0.103690
v 0.591758 -0.042553 0.103690
v 0.666412 -0.041053 -0.103690
v 0.666412 -0.042553 -0.103690
v 0.666412 -0.041053 0.103690
v 0.666412 -0.042553 0.103690
v -1.045866 0.278175 0.084292
v -1.045866 0.279675 0.084292
v 0.413637 0.278175 0.084292
v 0.413637 0.279675 0.084292
v -1.045866 0.278175 -0.084910
v -1.045866 0.279675 -0.084910
v 0.413637 0.278175 -0.084910
v 0.413637 0.279675 -0.084910
v 1.051893 0.215838 -0.124489
v 1.051893 0.215838 -0.125989
v 0.785630 0.070044 -0.124489
v 0.785630 0.070044 -0.125989
v 0.884856 0.215838 -0.124489
v 0.884856 0.215838 -0.125989
v 0.835630 0.196612 -0.124489
v 0.835630 0.196612 -0.125989
v 0.785630 -0.056523 -0.124489
v 0.785630 -0.056523 -0.125989
v 1.051893 -0.290426 -0.124489
v 1.051893 -0.290426 -0.125989
v 0.979533 -0.290426 -0.124489
v 0.979533 -0.290426 -0.125989
v 0.785630 -0.056523 0.124489
v 0.785630 -0.056523 0.125989
v 1.051893 0.215838 0.124489
v 1.051893 0.215838 0.125989
v 0.785630 0.070044 0.124489
v 0.785630 0.070044 0.125989
v 0.884856 0.215838 0.124489
v 0.884856 0.215838 0.125989
v 0.835630 0.196612 0.124489
v 0.835630 0.196612 0.125989
v 1.051893 -0.290426 0.124489
v 1.051893 -0.290426 0.125989
v 0.979533 -0.290426 0.124489
v 0.979533 -0.290426 0.125989
v 0.716412 0.088947 -0.103690
v 0.716412 0.088455 -0.105107
v 0.591758 0.108947 -0.110640
v 0.591758 0.108455 -0.112057
v 0.746412 0.108947 -0.110640
v 0.746412 0.108455 -0.112057
v 0.591758 0.088947 -0.103690
v 0.591758 0.088455 -0.105107
v 0.505452 0.088947 -0.103690
v 0.505452 0.088455 -0.105107
v 0.505452 0.108947 -0.110640
v 0.505452 0.108455 -0.112057
v 0.425452 0.088947 -0.103690
v 0.425452 0.088455 -0.105107
v 0.425452 0.108947 -0.110640
v 0.425452 0.108455 -0.112057
v 0.716412 0.088947 0.103690
v 0.716412 0.088455 0.105107
v 0.591758 0.108947 0.110640
v 0.591758 0.108455 0.112057
v 0.591758 0.088947 0.103690
v 0.591758 0.088455 0.105107
v 0.746412 0.108947 0.110640
v 0.746412 0.108455 0.112057
v 0.505452 0.108947 0.110640
v 0.505452 0.108455 0.112057
v 0.505452 0.088947 0.103690
v 0.505452 0.088455 0.105107
v 0.425452 0.108947 0.110640
v 0.425452 0.108455 0.112057
v 0.425452 0.088947 0.103690
v 0.425452 0.088455 0.105107
v 0.413730 0.079471 -0.115091
v 0.413730 0.079471 -0.116591
v -0.440978 0.079471 -0.115091
v -0.440978 0.079471 -0.116591
v 0.071028 0.106177 -0.115091
v 0.071028 0.106177 -0.116591
v 0.413730 0.197424 -0.115091
v 0.413730 0.197424 -0.116591
v -0.400978 0.106177 -0.115091
v -0.400978 0.106177 -0.116591
v 0.071028 0.174870 -0.115091
v 0.071028 0.174870 -0.116591
v -0.445537 0.106177 -0.115091
v -0.445537 0.106177 -0.116591
v -0.465599 0.174870 -0.115091
v -0.465599 0.174870 -0.116591
v -0.485537 0.049471 -0.115091
v -0.485537 0.049471 -0.116591
v -1.051893 0.197424 -0.115091
v -1.051893 0.197424 -0.116591
v -1.051893 0.049471 -0.115091
v -1.051893 0.049471 -0.116591
v -0.465599 0.106177 -0.115091
v -0.465599 0.106177 -0.116591
v -0.465599 0.106177 0.114473
v -0.465599 0.106177 0.115973
v -0.485537 0.049471 0.114473
v -0.485537 0.049471 0.115973
v -0.440978 0.079471 0.114473
v -0.440978 0.079471 0.115973
v 0.071028 0.106177 0.114473
v 0.071028 0.106177 0.115973
v 0.413730 0.079471 0.114473
v 0.413730 0.079471 0.115973
v 0.413730 0.197424 0.114473
v 0.413730 0.197424 0.115973
v 0.071028 0.174870 0.114473
v 0.071028 0.174870 0.115973
v -0.440978 0.197424 0.114473
v -0.440978 0.197424 0.115973
v -0.400978 0.174870 0.114473
v -0.400978 0.174870 0.115973
v -0.445537 0.174870 0.114473
v -0.445537 0.174870 0.115973
v -0.485537 0.197424 0.114473
v -0.485537 0.197424 0.115973
v -0.465599 0.174870 0.114473
v -0.465599 0.174870 0.115973
v -1.051893 0.049471 0.114473
v -1.051893 0.049471 0.115973
v -1.051893 0.197424 0.114473
v -1.051893 0.197424 0.115973
v 0.766412 0.200426 -0.110640
v 0.766412 0.200426 -0.112140
v 0.746412 0.108947 -0.110640
v 0.746412 0.108947 -0.112140
v 0.686411 0.250426 -0.110640
v 0.686411 0.250426 -0.112140
v 0.591758 0.108947 -0.110640
v 0.591758 0.108947 -0.112140
v 0.601758 0.270426 -0.110640
v 0.601758 0.270426 -0.112140
v 0.505452 0.270426 -0.110640
v 0.505452 0.270426 -0.112140
v 0.505452 0.108947 -0.110640
v 0.505452 0.108947 -0.112140
v 0.425452 0.108947 -0.110640
v 0.425452 0.108947 -0.112140
v 0.425452 0.290426 -0.110640
v 0.425452 0.290426 -0.112140
v 0.591758 0.108947 0.110640
v 0.591758 0.108947 0.112140
v 0.686411 0.250426 0.110640
v 0.686411 0.250426 0.112140
v 0.601758 0.270426 0.110640
v 0.601758 0.270426 0.112140
v 0.746412 0.108947 0.110640
v 0.746412 0.108947 0.112140
v 0.766412 0.200426 0.110640
v 0.766412 0.200426 0.112140
v 0.505452 0.270426 0.110640
v 0.505452 0.270426 0.112140
v 0.505452 0.108947 0.110640
v 0.505452 0.108947 0.112140
v 0.425452 0.108947 0.110640
v 0.425452 0.108947 0.112140
v 0.425452 0.290426 0.110640
v 0.425452 0.290426 0.112140
v 0.505452 0.088947 -0.103690
v 0.505452 0.088947 -0.105190
v 0.591758 0.088947 -0.103690
v 0.591758 0.088947 -0.105190
v 0.591758 -0.041053 -0.103690
v 0.591758 -0.041053 -0.105190
v 0.701412 0.023947 -0.103690
v 0.701412 0.023947 -0.105190
v 0.716412 0.088947 -0.103690
v 0.716412 0.088947 -0.105190
v 0.666412 -0.041053 -0.103690
v 0.666412 -0.041053 -0.105190
v 0.505452 -0.041053 -0.103690
v 0.505452 -0.041053 -0.105190
v 0.425452 -0.041053 -0.103690
v 0.425452 -0.041053 -0.105190
v 0.425452 0.088947 -0.103690
v 0.425452 0.088947 -0.105190
v 0.505452 -0.041053 0.103690
v 0.505452 -0.041053 0.105190
v 0.505452 0.088947 0.103690
v 0.505452 0.088947 0.105190
v 0.425452 -0.041053 0.103690
v 0.425452 -0.041053 0.105190
v 0.425452 0.088947 0.103690
v 0.425452 0.088947 0.105190
v 0.591758 -0.041053 0.103690
v 0.591758 -0.041053 0.105190
v 0.591758 0.088947 0.103690
v 0.591758 0.088947 0.105190
v 0.701412 0.023947 0.103690
v 0.701412 0.023947 0.105190
v 0.666412 -0.041053 0.103690
v 0.666412 -0.041053 0.105190
v 0.716412 0.088947 0.103690
v 0.716412 0.088947 0.105190
v -0.465599 0.135418 -0.084910
v -0.465599 0.135418 -0.086410
v -0.530635 0.219013 -0.084910
v -0.530635 0.219013 -0.086410
v -0.465599 0.174870 -0.084910
v -0.465599 0.174870 -0.086410
v -0.405811 0.219013 -0.084910
v -0.405811 0.219013 -0.086410
v 0.071028 0.174870 -0.084910
v 0.071028 0.174870 -0.086410
v -0.711936 0.219013 -0.084910
v -0.711936 0.219013 -0.086410
v 0.181239 0.219013 -0.084910
v 0.181239 0.219013 -0.086410
v 0.071028 0.135418 -0.084910
v 0.071028 0.135418 -0.086410
v 0.413637 0.135418 -0.084910
v 0.413637 0.135418 -0.086410
v 0.413637 0.278175 -0.084910
v 0.413637 0.278175 -0.086410
v 0.181239 0.262034 -0.084910
v 0.181239 0.262034 -0.086410
v -0.405811 0.262034 -0.084910
v -0.405811 0.262034 -0.086410
v -0.530635 0.262034 -0.084910
v -0.530635 0.262034 -0.086410
v -1.045866 0.278175 -0.084910
v -1.045866 0.278175 -0.086410
v -0.711936 0.262034 -0.084910
v -0.711936 0.262034 -0.086410
v -0.782635 0.262034 -0.084910
v -0.782635 0.262034 -0.086410
v -0.963937 0.262034 -0.084910
v -0.963937 0.262034 -0.086410
v -0.963937 0.219013 -0.084910
v -0.963937 0.219013 -0.086410
v -0.782635 0.219013 -0.084910
v -0.782635 0.219013 -0.086410
v -1.045866 0.135418 -0.084910
v -1.045866 0.135418 -0.086410
v -0.711936 0.262034 0.084292
v -0.711936 0.262034 0.085792
v -0.782635 0.219013 0.084292
v -0.782635 0.219013 0.085792
v -0.711936 0.219013 0.084292
v -0.711936 0.219013 0.085792
v -0.465599 0.135418 0.084292
v -0.465599 0.135418 0.085792
v -0.530635 0.219013 0.084292
v -0.530635 0.219013 0.085792
v -1.045866 0.135418 0.084292
v -1.045866 0.135418 0.085792
v -0.465599 0.174870 0.084292
v -0.465599 0.174870 0.085792
v -0.963937 0.219013 0.084292
v -0.963937 0.219013 0.085792
v -0.530635 0.262034 0.084292
v -0.530635 0.262034 0.085792
v -1.045866 0.278175 0.084292
v -1.045866 0.278175 0.085792
v -0.782635 0.262034 0.084292
v -0.782635 0.262034 0.085792
v -0.963937 0.262034 0.084292
v -0.963937 0.262034 0.085792
v -0.405811 0.262034 0.084292
v -0.405811 0.262034 0.085792
v 0.413637 0.278175 0.084292
v 0.413637 0.278175 0.085792
v -0.405811 0.219013 0.084292
v -0.405811 0.219013 0.085792
v 0.181239 0.262034 0.084292
v 0.181239 0.262034 0.085792
v 0.071028 0.174870 0.084292
v 0.071028 0.174870 0.085792
v 0.181239 0.219013 0.084292
v 0.181239 0.219013 0.085792
v 0.413637 0.135418 0.084292
v 0.413637 0.135418 0.085792
v 0.071028 0.135418 0.084292
v 0.071028 0.135418 0.085792
v -1.051893 0.049471 -0.115091
v -1.051893 0.047971 -0.115091
v -0.485537 0.049471 -0.115091
v -0.485099 0.048036 -0.115091
v -0.485537 0.049471 0.114473
v -0.485099 0.048036 0.114473
v -1.051893 0.049471 0.114473
v -1.051893 0.047971 0.114473
v -0.440978 0.079471 0.114473
v -0.440540 0.078036 0.114473
v -0.440978 0.079471 -0.115091
v -0.440540 0.078036 -0.115091
v 0.413730 0.079471 -0.115091
v 0.413730 0.077971 -0.115091
v 0.413730 0.079471 0.114473
v 0.413730 0.077971 0.114473
v -0.782635 0.219013 -0.084910
v -0.782635 0.220513 -0.084910
v -0.963937 0.219013 -0.084910
v -0.963937 0.220513 -0.084910
v -0.963937 0.219013 0.084292
v -0.963937 0.220513 0.084292
v -0.782635 0.219013 0.084292
v -0.782635 0.220513 0.084292
v -0.530635 0.219013 -0.084910
v -0.530635 0.220513 -0.084910
v -0.711936 0.219013 -0.084910
v -0.711936 0.220513 -0.084910
v -0.711936 0.219013 0.084292
v -0.711936 0.220513 0.084292
v -0.530635 0.219013 0.084292
v -0.530635 0.220513 0.084292
v 0.181239 0.219013 -0.084910
v 0.181239 0.220513 -0.084910
v -0.405811 0.219013 -0.084910
v -0.405811 0.220513 -0.084910
v -0.405811 0.219013 0.084292
v -0.405811 0.220513 0.084292
v 0.181239 0.219013 0.084292
v 0.181239 0.220513 0.084292
v -0.440978 0.197424 0.114473
v -0.440978 0.198924 0.114473
v -1.051893 0.197424 -0.115091
v -1.051893 0.198924 -0.115091
v -0.485537 0.197424 0.114473
v -0.485537 0.198924 0.114473
v -1.051893 0.197424 0.114473
v -1.051893 0.198924 0.114473
v 0.413730 0.197424 -0.115091
v 0.413730 0.198924 -0.115091
v 0.413730 0.197424 0.114473
v 0.413730 0.198924 0.114473
v -0.465599 0.135418 0.084292
v -0.465599 0.133918 0.084292
v -1.045866 0.135418 0.084292
v -1.045866 0.133918 0.084292
v -0.465599 0.135418 -0.084910
v -0.465599 0.133918 -0.084910
v -1.045866 0.135418 -0.084910
v -1.045866 0.133918 -0.084910
v 0.413637 0.135418 -0.084910
v 0.413637 0.133918 -0.084910
v 0.071028 0.135418 0.084292
v 0.071028 0.133918 0.084292
v 0.071028 0.135418 -0.084910
v 0.071028 0.133918 -0.084910
v 0.413637 0.135418 0.084292
v 0.413637 0.133918 0.084292
v 0.835630 0.196612 -0.124489
v 0.835084 0.198009 -0.124489
v 0.835630 0.196612 0.124489
v 0.835084 0.198009 0.124489
v 0.884856 0.215838 -0.124489
v 0.884578 0.217312 -0.124489
v 0.884856 0.215838 0.124489
v 0.884578 0.217312 0.124489
v 1.051893 0.215838 0.124489
v 1.051893 0.217338 0.124489
v 1.051893 0.215838 -0.124489
v 1.051893 0.217338 -0.124489
v -0.400978 0.174870 0.114473
v -0.400978 0.173370 0.114473
v 0.071028 0.174870 -0.115091
v 0.071028 0.173370 -0.115091
v 0.071028 0.174870 0.114473
v 0.071028 0.173370 0.114473
v -0.465599 0.174870 -0.115091
v -0.465599 0.173370 -0.115091
v -0.445537 0.174870 0.114473
v -0.445537 0.173370 0.114473
v -0.465599 0.174870 0.114473
v -0.465599 0.173370 0.114473
v 0.071028 0.174870 0.084292
v 0.071028 0.173370 0.084292
v -0.465599 0.174870 0.084292
v -0.465599 0.173370 0.084292
v 0.071028 0.174870 -0.084910
v 0.071028 0.173370 -0.084910
v -0.465599 0.174870 -0.084910
v -0.465599 0.173370 -0.084910
v -0.465599 0.106177 0.114473
v -0.465599 0.107677 0.114473
v -0.400978 0.106177 -0.115091
v -0.400978 0.107677 -0.115091
v -0.445537 0.106177 -0.115091
v -0.445537 0.107677 -0.115091
v -0.465599 0.106177 -0.115091
v -0.465599 0.107677 -0.115091
v 0.071028 0.106177 0.114473
v 0.071028 0.107677 0.114473
v 0.071028 0.106177 -0.115091
v 0.071028 0.107677 -0.115091
v 0.071028 0.174870 0.114473
v 0.069528 0.174870 0.114473
v 0.071028 0.174870 -0.115091
v 0.069528 0.174870 -0.115091
v 0.071028 0.106177 -0.115091
v 0.069528 0.106177 -0.115091
v 0.071028 0.106177 0.114473
v 0.069528 0.106177 0.114473
v 0.071028 0.174870 0.084292
v 0.069528 0.174870 0.084292
v 0.071028 0.174870 -0.084910
v 0.069528 0.174870 -0.084910
v 0.071028 0.135418 -0.084910
v 0.069528 0.135418 -0.084910
v 0.071028 0.135418 0.084292
v 0.069528 0.135418 0.084292
v -0.963937 0.262034 -0.084910
v -0.963937 0.260534 -0.084910
v -0.782635 0.262034 -0.084910
v -0.782635 0.260534 -0.084910
v -0.963937 0.262034 0.084292
v -0.963937 0.260534 0.084292
v -0.782635 0.262034 0.084292
v -0.782635 0.260534 0.084292
v -0.711936 0.262034 -0.084910
v -0.711936 0.260534 -0.084910
v -0.530635 0.262034 -0.084910
v -0.530635 0.260534 -0.084910
v -0.711936 0.262034 0.084292
v -0.711936 0.260534 0.084292
v -0.530635 0.262034 0.084292
v -0.530635 0.260534 0.084292
v 0.181239 0.262034 0.084292
v 0.181239 0.260534 0.084292
v -0.405811 0.262034 0.084292
v -0.405811 0.260534 0.084292
v 0.181239 0.262034 -0.084910
v 0.181239 0.260534 -0.084910
v -0.405811 0.262034 -0.084910
v -0.405811 0.260534 -0.084910
v 0.181239 0.219013 -0.084910
v 0.179739 0.219013 -0.084910
v 0.181239 0.219013 0.084292
v 0.179739 0.219013 0.084292
v 0.181239 0.262034 -0.084910
v 0.179739 0.262034 -0.084910
v 0.181239 0.262034 0.084292
v 0.179739 0.262034 0.084292
v -0.405811 0.262034 -0.084910
v -0.404311 0.262034 -0.084910
v -0.405811 0.262034 0.084292
v -0.404311 0.262034 0.084292
v -0.405811 0.219013 -0.084910
v -0.404311 0.219013 -0.084910
v -0.405811 0.219013 0.084292
v -0.404311 0.219013 0.084292
v -0.465599 0.174870 -0.115091
v -0.464099 0.174870 -0.115091
v -0.465599 0.174870 0.114473
v -0.464099 0.174870 0.114473
v -0.465599 0.106177 -0.115091
v -0.464099 0.106177 -0.115091
v -0.465599 0.106177 0.114473
v -0.464099 0.106177 0.114473
v -0.465599 0.174870 -0.084910
v -0.464099 0.174870 -0.084910
v -0.465599 0.135418 0.084292
v -0.464099 0.135418 0.084292
v -0.465599 0.135418 -0.084910
v -0.464099 0.135418 -0.084910
v -0.465599 0.174870 0.084292
v -0.464099 0.174870 0.084292
v -0.711936 0.262034 -0.084910
v -0.710436 0.262034 -0.084910
v -0.711936 0.262034 0.084292
v -0.710436 0.262034 0.084292
v -0.711936 0.219013 -0.084910
v -0.710436 0.219013 -0.084910
v -0.711936 0.219013 0.084292
v -0.710436 0.219013 0.084292
v 0.835630 0.196612 0.124489
v 0.834235 0.197163 0.124489
v 0.835630 0.196612 -0.124489
v 0.834235 0.197163 -0.124489
v 0.785630 0.070044 -0.124489
v 0.784156 0.070325 -0.124489
v 0.785630 0.070044 0.124489
v 0.784156 0.070325 0.124489
v 0.785630 -0.056523 -0.124489
v 0.784219 -0.057032 -0.124489
v 0.785630 -0.056523 0.124489
v 0.784219 -0.057032 0.124489
v 0.979533 -0.290426 0.124489
v 0.978378 -0.291383 0.124489
v 0.979533 -0.290426 -0.124489
v 0.978378 -0.291383 -0.124489
v -0.963937 0.262034 -0.084910
v -0.962437 0.262034 -0.084910
v -0.963937 0.262034 0.084292
v -0.962437 0.262034 0.084292
v -0.963937 0.219013 -0.084910
v -0.962437 0.219013 -0.084910
v -0.963937 0.219013 0.084292
v -0.962437 0.219013 0.084292
v -1.052643 0.196674 -0.114341
v -1.052643 0.050847 -0.114341
v -1.052643 0.196674 0.111925
v -1.052643 0.050221 -0.112543
v -1.052643 0.050221 0.113723
v -1.052643 0.196048 0.113723
v -1.046616 0.277425 -0.084160
v -1.046616 0.137032 -0.084160
v -1.046616 0.277425 0.082240
v -1.046616 0.136168 -0.082858
v -1.046616 0.136168 0.083542
v -1.046616 0.276561 0.083542
v 1.052643 0.212613 -0.123739
v 1.052643 -0.289676 0.123284
v 1.052643 -0.289676 -0.123739
v 1.052643 -0.287201 0.123739
v 1.052643 0.215088 -0.123284
v 1.052643 0.215088 0.123739
v -0.783385 0.261284 0.078299
v -0.783385 0.261284 -0.084160
v -0.783385 0.219978 -0.084160
v -0.783385 0.219763 -0.078917
v -0.783385 0.219763 0.083542
v -0.783385 0.261069 0.083542
v 0.591053 0.109697 -0.111390
v 0.506202 0.109697 -0.111390
v 0.506202 0.269676 -0.111390
v 0.600960 0.269676 -0.111390
v 0.426202 0.107992 -0.111102
v 0.504702 0.107992 -0.111102
v 0.504702 0.089409 -0.104645
v 0.426202 0.089409 -0.104645
v 0.591008 -0.040303 -0.104440
v 0.506202 -0.040303 -0.104440
v 0.506202 0.088197 -0.104440
v 0.591008 0.088197 -0.104440
v -0.531385 0.219763 -0.084160
v -0.531385 0.219763 0.078299
v -0.531385 0.261069 -0.084160
v -0.531385 0.261284 -0.078917
v -0.531385 0.219978 0.083542
v -0.531385 0.261284 0.083542
v -0.486068 0.048754 0.113723
v -1.051143 0.048721 0.113723
v -1.051143 0.048721 -0.114341
v -0.486068 0.048754 -0.114341
v 0.412980 0.078721 0.113723
v -0.440009 0.078754 0.113723
v -0.440009 0.078754 -0.114341
v 0.412980 0.078721 -0.114341
v -0.405061 0.261284 0.083542
v -0.405061 0.219763 0.083542
v -0.405061 0.219763 -0.084160
v -0.405061 0.261284 -0.084160
v -0.464849 0.174120 0.113723
v -0.464849 0.106927 0.113723
v -0.464849 0.106927 -0.114341
v -0.464849 0.174120 -0.114341
v 0.836056 0.197583 0.123739
v 0.884019 0.216302 0.123739
v 0.884019 0.216302 -0.123739
v 0.836056 0.197583 -0.123739
v -0.405061 0.219763 0.083542
v 0.180489 0.219763 0.083542
v 0.180489 0.219763 -0.084160
v -0.405061 0.219763 -0.084160
v 0.412887 0.134668 -0.084160
v 0.412887 0.134668 0.083542
v 0.071778 0.134668 0.083542
v 0.071778 0.134668 -0.084160
v -0.531385 0.261284 -0.084160
v -0.531385 0.261284 0.083542
v -0.711186 0.261284 0.083542
v -0.711186 0.261284 -0.084160
v 1.051143 -0.291176 -0.123739
v 1.051143 -0.291176 0.123739
v 0.980283 -0.291176 0.123739
v 0.980283 -0.291176 -0.123739
v -0.781885 0.261284 0.085042
v -0.781885 0.219763 0.085042
v -0.712686 0.219763 0.085042
v -0.712686 0.261284 0.085042
v 1.048962 0.215088 -0.125239
v 0.788004 0.072199 -0.125239
v 0.885253 0.215088 -0.125239
v 0.882874 0.214259 -0.125239
v 0.788807 0.076045 -0.125239
v 0.836207 0.196032 -0.125239
v 0.786380 0.069600 -0.125239
v 1.047837 0.212762 -0.125239
v 0.786380 -0.054683 -0.125239
v 0.786719 -0.056482 -0.125239
v 1.051143 0.213998 -0.125239
v 1.051143 -0.288769 -0.125239
v 0.792260 -0.063346 -0.125239
v 1.049903 -0.289676 -0.125239
v 0.979885 -0.289676 -0.125239
v 0.786380 -0.054683 0.125239
v 1.047837 0.212762 0.125239
v 0.786380 0.069600 0.125239
v 0.788004 0.072199 0.125239
v 1.048962 0.215088 0.125239
v 0.885253 0.215088 0.125239
v 0.788807 0.076045 0.125239
v 0.882874 0.214259 0.125239
v 0.836207 0.196032 0.125239
v 1.051143 0.213998 0.125239
v 0.786719 -0.056482 0.125239
v 1.051143 -0.288769 0.125239
v 1.049903 -0.289676 0.125239
v 0.792260 -0.063345 0.125239
v 0.979885 -0.289676 0.125239
v 0.716232 0.089448 -0.104658
v 0.600652 0.107992 -0.111102
v 0.744049 0.107992 -0.111102
v 0.592508 0.107862 -0.111057
v 0.707518 0.089409 -0.104645
v 0.592508 0.089409 -0.104645
v 0.766985 0.199533 -0.109890
v 0.766985 0.199533 0.109890
v 0.747305 0.109520 0.109890
v 0.747305 0.109519 -0.109890
v 0.506202 0.107992 -0.111102
v 0.591008 0.107992 -0.111102
v 0.591008 0.089409 -0.104645
v 0.506202 0.089409 -0.104645
v 0.707518 0.089409 0.104645
v 0.592508 0.107862 0.111057
v 0.592508 0.089409 0.104645
v 0.744049 0.107992 0.111102
v 0.600652 0.107992 0.111102
v 0.716232 0.089448 0.104658
v 0.687336 0.250721 0.109890
v 0.766174 0.201459 0.109890
v 0.766174 0.201459 -0.109890
v 0.687336 0.250721 -0.109890
v 0.591008 -0.040303 0.104440
v 0.591008 0.088197 0.104440
v 0.506202 0.088197 0.104440
v 0.506202 -0.040303 0.104440
v 0.394452 0.080221 -0.115841
v -0.412200 0.080221 -0.115841
v 0.071018 0.105425 -0.115841
v -0.486177 0.050221 -0.115841
v -1.051143 0.050221 -0.115841
v -1.051143 0.196645 -0.115841
v -0.466472 0.174153 -0.115841
v -0.400751 0.105427 -0.115841
v 0.042250 0.105427 -0.115841
v -0.438293 0.080362 -0.115841
v -0.444648 0.105427 -0.115841
v -0.403452 0.105427 -0.115841
v -0.440433 0.080737 -0.115841
v -0.407108 0.175620 -0.115841
v 0.376336 0.195715 -0.115841
v 0.071003 0.175620 -0.115841
v -0.482574 0.052370 -0.115841
v -0.445971 0.104261 -0.115841
v -0.441799 0.079822 -0.115841
v 0.355239 0.196674 -0.115841
v -0.465594 0.175620 -0.115841
v -1.012886 0.196674 -0.115841
v 0.181989 0.219540 -0.085660
v 0.181989 0.261334 -0.085660
v 0.412887 0.277371 -0.085660
v 0.412887 0.136485 -0.085660
v -0.483494 0.057541 -0.115841
v -0.466349 0.165377 -0.115841
v -0.466349 0.106305 -0.115841
v -0.446984 0.105427 -0.115841
v -0.483040 0.054312 -0.115841
v -0.465068 0.105427 -0.115841
v -0.465305 0.104752 0.115223
v -0.484079 0.051357 0.115223
v -0.442122 0.079605 0.115223
v 0.042250 0.105427 0.115223
v -0.463887 0.105427 0.115223
v -0.440665 0.080238 0.115223
v -0.412200 0.080221 0.115223
v 0.394452 0.080221 0.115223
v 0.071018 0.105425 0.115223
v 0.504702 0.269840 0.111390
v 0.426202 0.289465 0.111390
v 0.426202 0.109697 0.111390
v 0.504702 0.109697 0.111390
v 0.390913 0.196674 0.115223
v -0.406909 0.196674 0.115223
v 0.071020 0.175621 0.115223
v 0.036959 0.175620 0.115223
v -0.437877 0.196537 0.115223
v -0.400781 0.175620 0.115223
v -0.403835 0.175620 0.115223
v -0.440447 0.196264 0.115223
v -0.444620 0.175620 0.115223
v -0.441895 0.196674 0.115223
v -0.482680 0.196674 0.115223
v -0.446068 0.176030 0.115223
v -0.484787 0.190478 0.115223
v -0.484787 0.053865 0.115223
v -0.466377 0.106225 0.115223
v -0.448394 0.175620 0.115223
v -0.482024 0.194582 0.115223
v -0.465261 0.175620 0.115223
v -0.484189 0.194766 0.115223
v -0.466349 0.113123 0.115223
v -0.466349 0.174586 0.115223
v 0.784924 -0.056027 -0.123739
v 0.784924 -0.056027 0.123739
v 0.784893 0.069434 0.123739
v 0.784893 0.069434 -0.123739
v 0.785403 -0.057355 -0.123739
v 0.978477 -0.290327 -0.123739
v 0.978477 -0.290327 0.123739
v 0.785403 -0.057355 0.123739
v 0.685187 0.249945 -0.111390
v 0.592678 0.111671 -0.111390
v 0.602452 0.269491 -0.111390
v 0.071778 0.106871 -0.115841
v 0.071778 0.174168 -0.115841
v 0.412980 0.196623 -0.115841
v 0.412980 0.080282 -0.115841
v 0.070278 0.106927 0.113723
v 0.070278 0.106927 -0.114341
v -0.400410 0.106927 -0.114341
v -0.464609 0.106927 0.113723
v 0.592678 0.111671 0.111390
v 0.685187 0.249945 0.111390
v 0.602452 0.269491 0.111390
v -0.465795 0.175910 0.085042
v -0.407235 0.261284 0.085042
v -0.529885 0.261284 0.085042
v -0.529885 0.219410 0.085042
v 0.412980 0.196623 0.115223
v 0.071778 0.174168 0.115223
v 0.071778 0.106871 0.115223
v 0.412980 0.080282 0.115223
v 0.426202 0.109697 -0.111390
v 0.426202 0.289465 -0.111390
v 0.504702 0.269840 -0.111390
v 0.504702 0.109697 -0.111390
v 0.701758 0.023022 0.102940
v 0.667428 -0.040748 0.102940
v 0.667428 -0.040748 -0.102940
v 0.701758 0.023022 -0.102940
v 0.593162 0.109697 -0.111390
v 0.686630 0.249405 -0.111390
v 0.765566 0.200070 -0.111390
v 0.745808 0.109697 -0.111390
v 0.700912 0.025115 -0.104440
v 0.594494 0.088197 -0.104440
v 0.715469 0.088197 -0.104440
v -0.711186 0.219763 0.083542
v -0.531385 0.219763 0.083542
v -0.531385 0.219763 -0.084160
v -0.711186 0.219763 -0.084160
v 0.506202 0.107992 0.111102
v 0.506202 0.089409 0.104645
v 0.591008 0.089409 0.104645
v 0.591008 0.107992 0.111102
v -0.711186 0.261284 0.083542
v -0.711186 0.219763 0.083542
v -0.711186 0.219763 -0.084160
v -0.711186 0.261284 -0.084160
v 0.745808 0.109697 0.111390
v 0.765566 0.200070 0.111390
v 0.686630 0.249405 0.111390
v 0.593162 0.109697 0.111390
v 0.594494 0.088197 0.104440
v 0.700912 0.025115 0.104440
v 0.715469 0.088197 0.104440
v -0.466349 0.137603 -0.085660
v -0.527127 0.215726 -0.085660
v -0.466349 0.174473 -0.085660
v -0.408090 0.218263 -0.085660
v -0.465617 0.175789 -0.085660
v -0.528195 0.218263 -0.085660
v 0.054790 0.175620 -0.085660
v -0.463320 0.175620 -0.085660
v -0.405596 0.218240 -0.085660
v -0.531002 0.218263 -0.085660
v -0.467727 0.136932 -0.085660
v -0.707392 0.218263 -0.085660
v -0.389573 0.218263 -0.085660
v 0.177349 0.218263 -0.085660
v 0.070917 0.175633 -0.085660
v 0.071778 0.174362 -0.085660
v 0.176352 0.216248 -0.085660
v 0.071778 0.136928 -0.085660
v 0.073258 0.136168 -0.085660
v 0.181368 0.218170 -0.085660
v 0.409336 0.136168 -0.085660
v 0.700410 0.023669 -0.104440
v 0.665964 -0.040303 -0.104440
v 0.592508 -0.040303 -0.104440
v 0.592508 0.087631 -0.104440
v 0.716974 0.088048 -0.102940
v 0.716974 0.088048 0.102940
v 0.702282 0.024413 0.102940
v 0.702282 0.024413 -0.102940
v -0.329651 0.262784 -0.085660
v 0.383451 0.276830 -0.085660
v 0.181213 0.262784 -0.085660
v -0.405809 0.262784 -0.085660
v -0.986375 0.277425 -0.085660
v 0.337477 0.277425 -0.085660
v -0.530623 0.262784 -0.085660
v -0.800248 0.271232 -0.085660
v -0.465302 0.262784 -0.085660
v -0.711918 0.262784 -0.085660
v -0.957602 0.274660 -0.085660
v -0.578528 0.262784 -0.085660
v -0.930148 0.271830 -0.085660
v -0.742987 0.262784 -0.085660
v -0.782612 0.262784 -0.085660
v -1.034695 0.276739 -0.085660
v -0.807120 0.262784 -0.085660
v -0.963864 0.262784 -0.085660
v -0.964687 0.220480 -0.085660
v -1.042649 0.276777 -0.085660
v -0.964687 0.261417 -0.085660
v -0.529885 0.219763 -0.085660
v -0.529885 0.261284 -0.085660
v -0.406561 0.261284 -0.085660
v -0.406561 0.219763 -0.085660
v -1.045116 0.276708 -0.085660
v -0.965083 0.218915 -0.085660
v -1.045116 0.137255 -0.085660
v -1.043222 0.137045 -0.085660
v -0.963622 0.218263 -0.085660
v -0.787475 0.218263 -0.085660
v -0.782616 0.218232 -0.085660
v -0.471385 0.136168 -0.085660
v -1.041026 0.136168 -0.085660
v -0.486314 0.141656 -0.085660
v -0.776849 0.218263 -0.085660
v -0.712060 0.218263 -0.085660
v 1.051143 0.216588 -0.123739
v 0.885467 0.216575 -0.123739
v 0.885467 0.216575 0.123739
v 1.051143 0.216588 0.123739
v -0.776849 0.218263 0.085042
v -0.486314 0.141656 0.085042
v -0.712060 0.218263 0.085042
v -0.467727 0.136932 0.085042
v -0.531002 0.218263 0.085042
v -0.707392 0.218263 0.085042
v -0.782616 0.218232 0.085042
v -1.041026 0.136168 0.085042
v -0.471385 0.136168 0.085042
v -0.466349 0.174473 0.085042
v -0.527127 0.215726 0.085042
v -0.466349 0.137603 0.085042
v -1.043222 0.137045 0.085042
v -0.787475 0.218263 0.085042
v -0.963622 0.218263 0.085042
v -0.441381 0.078335 -0.114341
v -0.441381 0.078335 0.113723
v -0.484696 0.049173 0.113723
v -0.484696 0.049173 -0.114341
v -1.045116 0.137255 0.085042
v -0.965083 0.218915 0.085042
v -1.045116 0.276708 0.085042
v -0.742987 0.262784 0.085042
v -0.930148 0.271830 0.085042
v -0.782612 0.262784 0.085042
v -0.957602 0.274660 0.085042
v -0.711918 0.262784 0.085042
v -0.578528 0.262784 0.085042
v -1.034695 0.276739 0.085042
v -0.963864 0.262784 0.085042
v -0.807120 0.262784 0.085042
v -0.964687 0.261417 0.085042
v -1.042649 0.276777 0.085042
v -0.964687 0.220480 0.085042
v -0.800248 0.271232 0.085042
v -0.530623 0.262784 0.085042
v -0.465302 0.262784 0.085042
v -0.405809 0.262784 0.085042
v 0.337477 0.277425 0.085042
v -0.986375 0.277425 0.085042
v -0.406561 0.259615 0.085042
v -0.462461 0.178119 0.085042
v -0.406561 0.219392 0.085042
v 0.383451 0.276830 0.085042
v -0.329651 0.262784 0.085042
v 0.181213 0.262784 0.085042
v -0.463320 0.175620 0.085042
v 0.054790 0.175620 0.085042
v -0.405596 0.218240 0.085042
v 0.592508 -0.040303 0.104440
v 0.665964 -0.040303 0.104440
v 0.700410 0.023669 0.104440
v 0.592508 0.087631 0.104440
v 0.177349 0.218263 0.085042
v -0.389573 0.218263 0.085042
v 0.070917 0.175633 0.085042
v 0.176352 0.216248 0.085042
v 0.071778 0.174362 0.085042
v 0.071778 0.136928 0.085042
v 0.073258 0.136168 0.085042
v 0.409336 0.136168 0.085042
v 0.181368 0.218170 0.085042
v 0.180489 0.219763 0.083542
v 0.180489 0.261284 0.083542
v 0.180489 0.261284 -0.084160
v 0.180489 0.219763 -0.084160
v -0.712686 0.261284 -0.085660
v -0.712686 0.219763 -0.085660
v -0.781885 0.219763 -0.085660
v -0.781885 0.261284 -0.085660
v -0.464849 0.174120 -0.084160
v 0.070278 0.174120 -0.084160
v 0.070278 0.174120 0.083542
v -0.464849 0.174120 0.083542
v 0.412887 0.278925 -0.084160
v -1.045116 0.278925 -0.084160
v -1.045116 0.278925 0.083542
v 0.412887 0.278925 0.083542
v 0.426202 0.107992 0.111102
v 0.426202 0.089409 0.104645
v 0.504702 0.089409 0.104645
v 0.504702 0.107992 0.111102
v 0.506294 0.271170 -0.109890
v 0.506294 0.271170 0.109890
v 0.601095 0.271171 0.109890
v 0.601095 0.271171 -0.109890
v -0.445106 0.198174 0.113723
v -0.997419 0.198174 -0.093820
v -0.485391 0.198174 0.113723
v -0.489384 0.198174 0.113723
v -1.051143 0.198174 -0.113978
v -1.051143 0.198174 0.113723
v 0.408046 0.198174 -0.114341
v -1.047765 0.198174 -0.114341
v -0.440940 0.198174 0.113686
v 0.412980 0.198174 -0.114113
v -0.435294 0.198174 0.113723
v 0.412980 0.198174 0.113723
v -0.466349 0.134668 0.083542
v -1.040615 0.134668 0.083542
v -0.466349 0.134668 -0.083910
v -1.045116 0.134668 -0.084160
v -0.470850 0.134668 -0.084160
v -1.045116 0.134668 0.083292
v 0.504702 -0.041803 0.102940
v 0.426202 -0.041803 0.102940
v 0.426202 -0.041803 -0.102940
v 0.504702 -0.041803 -0.102940
v 0.506202 0.269676 0.111390
v 0.506202 0.109697 0.111390
v 0.591053 0.109697 0.111390
v 0.600960 0.269676 0.111390
v 0.426362 0.290972 -0.109890
v 0.426362 0.290972 0.109890
v 0.504816 0.271352 0.109890
v 0.504816 0.271352 -0.109890
v 0.746204 0.107907 -0.109732
v 0.746204 0.107907 0.109732
v 0.717452 0.088739 0.103071
v 0.717452 0.088739 -0.103071
v -0.464156 0.174120 -0.107198
v -0.401968 0.174120 0.113723
v -0.444850 0.174120 0.113723
v -0.464849 0.174120 -0.097894
v -0.446355 0.174120 0.113723
v -0.464849 0.174120 0.113723
v 0.591008 -0.041803 -0.102940
v 0.591008 -0.041803 0.102940
v 0.506202 -0.041803 0.102940
v 0.506202 -0.041803 -0.102940
v -0.464156 0.106927 0.106580
v -0.401968 0.106927 -0.114341
v -0.444850 0.106927 -0.114341
v -0.464849 0.106927 -0.114341
v -0.464849 0.106927 0.097276
v -0.446355 0.106927 -0.114341
v 0.181989 0.219540 0.085042
v 0.412887 0.136485 0.085042
v 0.412887 0.277371 0.085042
v 0.181989 0.261334 0.085042
v 0.070278 0.174120 0.109350
v 0.070278 0.174120 -0.114341
v 0.070278 0.107184 -0.114341
v 0.070278 0.106927 -0.109968
v 0.070278 0.106927 0.113723
v 0.070278 0.173863 0.113723
v 0.070278 0.174120 0.077772
v 0.070278 0.174120 -0.084160
v 0.070278 0.136363 -0.084160
v 0.070278 0.136168 -0.078391
v 0.070278 0.136168 0.083542
v 0.070278 0.173925 0.083542
v -0.963187 0.261284 -0.084160
v -0.784538 0.261284 -0.084160
v -0.963187 0.261284 0.082566
v -0.783385 0.261284 -0.083184
v -0.783385 0.261284 0.083542
v -0.962034 0.261284 0.083542
v -0.405061 0.261284 -0.084160
v 0.180489 0.261284 -0.084160
v 0.180489 0.261284 0.083542
v -0.405061 0.261284 0.083542
v -0.400410 0.174120 0.113723
v -0.464609 0.174120 -0.114341
v 0.070278 0.174120 -0.114341
v 0.070278 0.174120 0.113723
v -0.963187 0.219763 0.083542
v -0.783385 0.219763 0.083542
v -0.783385 0.219763 -0.084160
v -0.963187 0.219763 -0.084160
v 0.426202 -0.040303 -0.104440
v 0.426202 0.088197 -0.104440
v 0.504702 0.088197 -0.104440
v 0.504702 -0.040303 -0.104440
v 0.504702 0.088197 0.104440
v 0.426202 0.088197 0.104440
v 0.426202 -0.040303 0.104440
v 0.504702 -0.040303 0.104440
v -0.464849 0.174120 -0.084160
v -0.464849 0.174120 0.083542
v -0.464849 0.136168 0.083542
v -0.464849 0.136168 -0.084160
v 0.602575 0.270999 -0.109890
v 0.602575 0.270999 0.109890
v 0.685970 0.251291 0.109890
v 0.685970 0.251291 -0.109890
v 0.785169 0.070882 -0.123739
v 0.785169 0.070882 0.123739
v 0.834657 0.196190 0.123739
v 0.834657 0.196190 -0.123739
v 0.665662 -0.041803 -0.102940
v 0.665662 -0.041803 0.102940
v 0.592508 -0.041803 0.102940
v 0.592508 -0.041803 -0.102940
v -0.486287 0.196674 0.115223
v -1.051143 0.196674 0.115223
v -1.051143 0.050221 0.115223
v -0.486287 0.050221 0.115223
v -0.963187 0.261284 0.083542
v -0.963187 0.219763 0.083542
v -0.963187 0.219763 -0.084160
v -0.963187 0.261284 -0.084160
vn 0.7071 -0.0000 0.7071
vn -0.7071 -0.0000 0.7071
vn 0.7071 0.5943 -0.3831
vn -0.7071 0.5944 -0.3830
vn 0.7072 -0.7071 -0.0000
vn -0.7071 -0.7071 -0.0000
vn 0.7071 0.7071 -0.0000
vn -0.7071 0.7071 -0.0000
vn 0.7071 -0.0000 -0.7071
vn -0.7071 -0.0000 -0.7071
vn 0.7071 -0.5943 0.3831
vn -0.7071 -0.5944 0.3830
vn 0.7071 0.5405 -0.4559
vn -0.7071 0.5404 -0.4560
vn 0.7071 -0.7071 -0.0000
vn 0.7071 -0.5405 0.4559
vn -0.7071 -0.5404 0.4560
vn -0.7071 -0.3121 -0.6345
vn 0.7071 -0.3121 -0.6345
vn -0.7071 0.3121 0.6345
vn 0.7071 0.3121 0.6345
vn 0.7071 0.6853 -0.1743
vn -0.7071 0.6853 -0.1742
vn 0.7071 -0.6853 0.1743
vn -0.7071 -0.6853 0.1742
vn -0.0000 0.7071 0.7071
vn -0.0000 0.7071 -0.7071
vn -0.0000 -0.7071 0.7071
vn -0.0000 -0.7071 -0.7071
vn -0.7058 0.0437 0.7071
vn -0.7058 0.0437 -0.7071
vn -0.0000 -0.4358 0.9000
vn -0.0000 -0.9000 -0.4358
vn -0.7071 0.2321 0.6679
vn -0.7071 -0.2321 -0.6679
vn -0.0000 0.9000 0.4358
vn -0.0000 0.4358 -0.9000
vn 0.7071 0.2321 0.6679
vn 0.7071 -0.2321 -0.6679
vn 0.7071 -0.6853 -0.1742
vn -0.7071 -0.6853 -0.1742
vn 0.7071 0.6853 0.1742
vn -0.7071 0.6853 0.1742
vn -0.0000 0.7148 -0.6993
vn 0.0001 -0.7148 -0.6993
vn -0.0000 0.7148 0.6993
vn 0.0001 -0.7148 0.6993
vn -0.8038 0.5950 -0.0000
vn -0.5950 -0.8037 -0.0000
vn -0.0000 0.7149 -0.6993
vn -0.0000 -0.7149 -0.6993
vn 0.5950 0.8037 -0.0000
vn 0.8037 -0.5951 -0.0000
vn -0.0000 0.7149 0.6993
vn -0.0000 -0.7149 0.6993
vn 0.2583 -0.6615 -0.7040
vn -0.2581 0.6616 -0.7040
vn -0.4848 -0.8746 -0.0000
vn -0.8746 0.4848 -0.0000
vn 0.2583 -0.6615 0.7040
vn -0.2581 0.6616 0.7040
vn 0.9159 -0.4014 -0.0000
vn 0.4014 0.9159 -0.0000
vn -0.3396 0.6202 0.7071
vn -0.3396 0.6202 -0.7071
vn 0.5846 -0.3978 0.7071
vn 0.5846 -0.3978 -0.7071
vn -0.5846 0.3979 0.7071
vn -0.5846 0.3979 -0.7071
vn 0.6577 -0.2598 0.7071
vn 0.6576 -0.2598 -0.7071
vn 0.2572 -0.6586 0.7071
vn 0.2572 -0.6586 -0.7071
vn 0.3396 -0.6202 0.7071
vn 0.3396 -0.6202 -0.7071
vn -0.5056 0.4943 0.7071
vn -0.5056 0.4943 -0.7071
vn 0.5056 -0.4943 0.7071
vn 0.5056 -0.4943 -0.7071
vn 0.4667 0.5312 0.7071
vn 0.4667 0.5312 -0.7071
vn -0.4667 -0.5312 0.7071
vn -0.4667 -0.5312 -0.7071
vn 0.5444 0.4513 0.7071
vn 0.5444 0.4513 -0.7071
vn 0.6577 -0.2598 -0.7071
vn 0.6576 -0.2598 0.7071
vn 0.1184 0.8906 0.4391
vn 0.1184 0.4264 -0.8968
vn -0.4077 0.7778 0.4783
vn -0.4077 0.3136 -0.8576
vn -0.1184 -0.4264 0.8968
vn -0.1184 -0.8906 -0.4391
vn -0.8418 -0.5397 -0.0000
vn 0.5397 -0.8418 -0.0000
vn -0.6908 0.1510 -0.7071
vn 0.6908 -0.1510 -0.7071
vn -0.5397 0.8419 -0.0000
vn 0.8418 0.5398 -0.0000
vn -0.6908 0.1510 0.7071
vn 0.6908 -0.1510 0.7071
vn -0.1184 -0.4264 -0.8968
vn -0.1184 -0.8906 0.4391
vn 0.7071 0.2321 -0.6679
vn 0.7071 -0.2321 0.6679
vn -0.0000 0.9000 -0.4358
vn -0.0000 0.4358 0.9000
vn -0.0000 -0.4358 -0.9000
vn -0.0000 -0.9000 0.4358
vn 0.1184 0.8906 -0.4391
vn 0.1184 0.4264 0.8968
vn -0.4077 0.7778 -0.4783
vn -0.4077 0.3136 0.8576
vn -0.3760 -0.6016 -0.7048
vn 0.3759 0.6017 -0.7047
vn -0.9744 -0.2248 -0.0000
vn -0.2249 0.9744 -0.0000
vn -0.3760 -0.6016 0.7048
vn 0.3759 0.6017 0.7047
vn 0.3036 -0.9528 -0.0000
vn 0.9528 0.3036 -0.0000
vn 0.0368 -0.7062 0.7071
vn 0.0368 -0.7062 -0.7071
vn -0.0549 -0.7050 0.7071
vn -0.0549 -0.7050 -0.7071
vn -0.0272 -0.7066 0.7071
vn -0.0272 -0.7066 -0.7071
vn -0.6983 0.1110 0.7071
vn -0.6983 0.1110 -0.7071
vn -0.0368 0.7061 0.7071
vn -0.0368 0.7061 -0.7071
vn 0.3926 -0.5881 0.7071
vn 0.3926 -0.5881 -0.7071
vn -0.3926 0.5881 0.7071
vn -0.3926 0.5881 -0.7071
vn 0.6970 0.1190 0.7071
vn 0.6970 0.1190 -0.7071
vn 0.0181 -0.7069 0.7071
vn 0.0181 -0.7069 -0.7071
vn -0.0464 0.7056 0.7071
vn -0.0464 0.7056 -0.7071
vn 0.5778 -0.4076 0.7071
vn 0.5778 -0.4076 -0.7071
vn -0.6970 -0.1190 0.7071
vn -0.6970 -0.1190 -0.7071
vn -0.3949 0.5866 0.7071
vn -0.3949 0.5866 -0.7071
vn -0.0181 0.7068 0.7071
vn -0.0181 0.7068 -0.7071
vn 0.0272 0.7066 0.7071
vn 0.0272 0.7066 -0.7071
vn 0.0490 -0.7054 0.7071
vn 0.0490 -0.7054 -0.7071
vn 0.2393 0.6654 0.7071
vn 0.2393 0.6654 -0.7071
vn 0.6983 -0.1110 0.7071
vn 0.6983 -0.1110 -0.7071
vn -0.6671 0.2345 0.7071
vn -0.6671 0.2345 -0.7071
vn -0.5778 0.4076 0.7071
vn -0.5778 0.4076 -0.7071
vn 0.6671 -0.2345 0.7071
vn 0.6671 -0.2345 -0.7071
vn -0.5199 -0.4793 -0.7071
vn -0.5199 -0.4793 0.7071
vn 0.5199 0.4793 -0.7071
vn 0.5199 0.4793 0.7071
vn -0.1715 -0.6860 -0.7071
vn -0.1715 -0.6860 0.7071
vn 0.0311 0.7064 -0.7071
vn 0.0311 0.7064 0.7071
vn -0.0311 -0.7064 -0.7071
vn -0.0311 -0.7064 0.7071
vn 0.3473 0.6159 -0.7071
vn 0.3473 0.6159 0.7071
vn -0.3473 -0.6159 -0.7071
vn -0.3473 -0.6159 0.7071
vn 0.6931 -0.1401 -0.7071
vn 0.6931 -0.1401 0.7071
vn -0.6931 0.1401 -0.7071
vn -0.6931 0.1401 0.7071
vn -0.6908 -0.1509 -0.7071
vn -0.6908 -0.1509 0.7071
vn 0.5298 0.4683 -0.7071
vn 0.5298 0.4683 0.7071
vn 0.6908 0.1509 -0.7071
vn 0.6908 0.1509 0.7071
vn -0.5298 -0.4683 -0.7071
vn -0.5298 -0.4683 0.7071
vn 0.5748 0.8183 -0.0000
vn -0.8183 0.5748 -0.0000
vn 0.7208 0.0001 -0.6931
vn -0.7208 -0.0003 -0.6931
vn 0.6375 -0.7704 -0.0000
vn -0.7704 -0.6375 -0.0000
vn 0.7208 0.0001 0.6931
vn -0.7208 -0.0003 0.6931
vn 0.5525 0.4580 0.6964
vn -0.5526 -0.4579 0.6964
vn 0.0931 0.9957 -0.0000
vn -0.9957 0.0931 -0.0000
vn 0.5525 0.4580 -0.6964
vn -0.5526 -0.4579 -0.6964
vn 0.9647 -0.2632 -0.0000
vn -0.2631 -0.9648 -0.0000
vn -0.5877 0.3932 0.7071
vn -0.5877 0.3932 -0.7071
vn 0.7058 -0.0437 0.7071
vn 0.7058 -0.0437 -0.7071
vn -0.1626 -0.6882 0.7071
vn -0.1626 -0.6882 -0.7071
vn 0.0464 -0.7056 0.7071
vn 0.0464 -0.7056 -0.7071
vn 0.0549 0.7050 0.7071
vn 0.0549 0.7050 -0.7071
vn 0.6806 -0.7071 0.1916
vn 0.6806 0.7071 0.1916
vn -0.5831 0.4000 -0.7071
vn -0.5831 0.4000 0.7071
vn 0.3971 0.5851 -0.7071
vn 0.3971 0.5851 0.7071
vn -0.6240 0.3360 -0.7055
vn 0.6240 -0.3359 -0.7055
vn -0.2873 0.9578 -0.0000
vn 0.9578 0.2873 -0.0000
vn -0.6240 0.3360 0.7055
vn 0.6240 -0.3359 0.7055
vn -0.9365 -0.3507 -0.0000
vn 0.3506 -0.9365 -0.0000
vn 0.5877 -0.3932 0.7071
vn 0.5877 -0.3932 -0.7071
vn -0.3748 -0.5996 0.7071
vn -0.3748 -0.5996 -0.7071
vn 0.3606 0.6083 0.7071
vn 0.3606 0.6083 -0.7071
vn -0.6890 0.1590 0.7071
vn -0.6890 0.1590 -0.7071
vn -0.7071 0.2321 -0.6679
vn -0.7071 -0.2321 0.6679
vn 0.5581 0.4342 0.7071
vn 0.5581 0.4342 -0.7071
vn -0.3971 -0.5851 0.7071
vn -0.3971 -0.5851 -0.7071
vn -0.4200 0.5689 0.7071
vn -0.4200 0.5688 -0.7071
vn 0.4200 -0.5689 0.7071
vn 0.4200 -0.5689 -0.7071
vn -0.0652 -0.7041 0.7071
vn -0.0652 -0.7041 -0.7071
vn -0.5581 -0.4342 0.7071
vn -0.5581 -0.4342 -0.7071
vn 0.2272 0.6696 0.7071
vn 0.2272 0.6696 -0.7071
vn -0.2629 0.6564 0.7071
vn -0.2629 0.6564 -0.7071
vn 0.0652 0.7041 0.7071
vn 0.0652 0.7041 -0.7071
vn 0.2629 -0.6564 0.7071
vn 0.2629 -0.6564 -0.7071
vn -0.4273 0.5634 0.7071
vn -0.4273 0.5634 -0.7071
vn 0.4273 -0.5634 0.7071
vn 0.4273 -0.5634 -0.7071
vn -0.2393 -0.6654 0.7071
vn -0.2393 -0.6654 -0.7071
vn -0.6226 0.3352 0.7071
vn -0.6226 0.3352 -0.7071
vn -0.3606 -0.6083 0.7071
vn -0.3606 -0.6083 -0.7071
vn -0.8480 -0.5300 -0.0000
vn 0.5300 -0.8480 -0.0000
vn -0.6905 0.1594 -0.7055
vn 0.6905 -0.1595 -0.7055
vn -0.4722 0.8815 -0.0000
vn 0.8814 0.4723 -0.0000
vn -0.6905 0.1594 0.7055
vn 0.6905 -0.1595 0.7055
vn 0.0139 -0.7069 0.7072
vn 0.0139 -0.7069 -0.7072
vn -0.0490 0.7054 0.7071
vn -0.0490 0.7054 -0.7071
vn -0.0000 0.7072 0.7070
vn -0.0000 0.7072 -0.7070
vn 0.0178 0.7069 0.7071
vn 0.0178 0.7069 -0.7071
vn -0.0000 -0.7072 0.7070
vn -0.0000 -0.7072 -0.7070
vn -0.0139 0.7069 0.7072
vn -0.0139 0.7069 -0.7072
vn 0.0221 0.7064 0.7075
vn 0.0221 0.7064 -0.7074
vn -0.0178 -0.7072 0.7068
vn -0.0178 -0.7072 -0.7068
vn -0.0000 0.7071 0.7072
vn -0.0000 0.7071 -0.7072
vn 0.0341 0.7062 0.7071
vn 0.0341 0.7062 -0.7071
vn -0.0221 -0.7068 0.7071
vn -0.0221 -0.7068 -0.7071
vn -0.0341 -0.7062 0.7072
vn -0.0341 -0.7062 -0.7072
vn 0.0433 0.7059 0.7070
vn 0.0433 0.7059 -0.7070
vn -0.0433 -0.7058 0.7071
vn -0.0433 -0.7058 -0.7071
vn 0.1367 0.6938 0.7071
vn 0.1367 0.6938 -0.7071
vn 0.4140 0.5733 0.7071
vn 0.4140 0.5733 -0.7071
vn -0.1367 -0.6938 0.7071
vn -0.1367 -0.6938 -0.7071
vn -0.4140 -0.5733 0.7071
vn -0.4140 -0.5733 -0.7071
vn -0.5050 0.4949 0.7071
vn -0.5050 0.4949 -0.7071
vn 0.5050 -0.4949 0.7071
vn 0.5050 -0.4949 -0.7071
vn -0.2140 0.6739 0.7071
vn -0.2140 0.6739 -0.7071
vn -0.1803 -0.6837 0.7071
vn -0.1803 -0.6837 -0.7071
vn 0.2140 -0.6739 0.7071
vn 0.2140 -0.6739 -0.7071
vn 0.1803 0.6837 0.7071
vn 0.1803 0.6837 -0.7071
vn -0.2272 -0.6696 0.7071
vn -0.2272 -0.6696 -0.7071
vn -0.0000 -0.7102 0.7040
vn -0.0001 0.7102 0.7040
vn 0.7697 -0.6383 -0.0000
vn 0.6383 0.7698 -0.0000
vn -0.0000 -0.7102 -0.7040
vn -0.0001 0.7102 -0.7040
vn -0.9424 0.3344 -0.0000
vn -0.3344 -0.9424 -0.0000
vn -0.4036 0.5995 -0.6912
vn 0.4036 -0.5995 -0.6912
vn 0.3344 0.9424 -0.0000
vn 0.9424 -0.3344 -0.0000
vn -0.4036 0.5995 0.6912
vn 0.4036 -0.5995 0.6912
vn 0.5831 -0.4000 -0.7071
vn 0.5831 -0.4000 0.7071
vn -0.4200 0.5689 -0.7071
vn 0.6625 -0.7491 -0.0000
vn 0.7490 0.6625 -0.0000
vn -0.0000 -0.7096 -0.7046
vn -0.0000 0.7096 -0.7046
vn -0.7469 -0.6649 -0.0000
vn -0.6649 0.7469 -0.0000
vn -0.0000 -0.7096 0.7046
vn -0.0000 0.7096 0.7046
vn -0.2487 -0.7071 0.6619
vn -0.2487 0.7071 0.6619
vn 0.2656 -0.7071 -0.6553
vn 0.2656 0.7071 -0.6553
vn -0.2656 -0.7071 0.6553
vn -0.2656 0.7071 0.6553
vn 0.2487 -0.7071 -0.6619
vn 0.2487 0.7071 -0.6619
vn -0.1834 -0.7071 -0.6829
vn -0.1834 0.7071 -0.6829
vn 0.1834 -0.7071 0.6829
vn 0.1834 0.7071 0.6829
vn 0.1979 0.7071 0.6788
vn 0.1979 -0.7071 0.6788
vn -0.1979 0.7071 -0.6788
vn -0.1979 -0.7071 -0.6788
vn 0.7072 0.7071 -0.0000
vn 0.5145 -0.8575 -0.0000
vn 0.8575 0.5145 -0.0000
vn -0.1718 -0.6873 -0.7058
vn 0.1719 0.6873 -0.7058
vn -0.8244 -0.5660 -0.0000
vn -0.5660 0.8244 -0.0000
vn -0.1718 -0.6873 0.7058
vn 0.1719 0.6873 0.7058
vn -0.9806 0.1961 -0.0000
vn -0.1961 -0.9806 -0.0000
vn -0.2809 0.6626 -0.6943
vn 0.5036 -0.5141 -0.6943
vn 0.1961 0.9806 -0.0000
vn 0.9806 -0.1960 -0.0000
vn -0.2809 0.6626 0.6943
vn 0.5036 -0.5141 0.6943
vn -0.6807 0.7071 0.1916
vn -0.6807 -0.7071 0.1916
vn 0.7044 0.7071 -0.0616
vn 0.7044 -0.7071 -0.0616
vn -0.7044 0.7071 0.0616
vn -0.7044 -0.7071 0.0616
vn -0.6807 -0.7071 -0.1916
vn -0.6807 0.7071 -0.1916
vn 0.7044 -0.7071 0.0616
vn 0.7044 0.7071 0.0616
vn -0.7044 -0.7071 -0.0616
vn -0.7044 0.7071 -0.0616
vn 0.7071 0.6774 -0.2027
vn -0.7071 0.6774 -0.2027
vn 0.7071 -0.6774 0.2027
vn -0.7071 -0.6774 0.2027
vn 0.7071 0.6886 -0.1606
vn -0.7071 0.6886 -0.1606
vn 0.7071 -0.6886 0.1606
vn -0.7071 -0.6886 0.1606
vn -0.4825 0.7071 -0.5170
vn -0.4825 -0.7071 -0.5170
vn 0.4825 0.7071 0.5170
vn 0.4825 -0.7071 0.5170
vn 0.6806 0.7071 -0.1916
vn 0.6806 -0.7071 -0.1916
vn 0.7072 -0.7070 -0.0000
vn 0.7072 0.7070 -0.0000
vn 0.5740 -0.8188 -0.0000
vn 0.8189 0.5740 -0.0000
vn -0.1634 -0.6916 -0.7036
vn 0.1635 0.6916 -0.7035
vn -0.8907 -0.4545 -0.0000
vn -0.4545 0.8908 -0.0000
vn -0.1634 -0.6916 0.7036
vn 0.1635 0.6916 0.7035
vn 0.8760 0.4823 -0.0000
vn -0.4823 0.8760 -0.0000
vn 0.6606 -0.2609 -0.7040
vn -0.6606 0.2608 -0.7040
vn 0.3978 -0.9175 -0.0000
vn -0.9174 -0.3979 -0.0000
vn 0.6606 -0.2609 0.7040
vn -0.6606 0.2608 0.7040
vn -0.7072 0.7070 -0.0000
vn -0.7072 -0.7070 -0.0000
vt 0.000000 0.000000
s 0
f 601/1/1 602/1/1 3/1/1 1/1/1
f 602/1/2 601/1/2 2/1/2 4/1/2
f 602/1/3 603/1/3 5/1/3 3/1/3
f 603/1/4 602/1/4 4/1/4 6/1/4
f 603/1/5 601/1/5 1/1/5 5/1/5
f 601/1/6 603/1/6 6/1/6 2/1/6
f 604/1/7 605/1/7 7/1/7 3/1/7
f 605/1/8 604/1/8 4/1/8 8/1/8
f 605/1/9 606/1/9 5/1/9 7/1/9
f 606/1/10 605/1/10 8/1/10 6/1/10
f 606/1/11 604/1/11 3/1/11 5/1/11
f 604/1/12 606/1/12 6/1/12 4/1/12
f 607/1/1 608/1/1 11/1/1 9/1/1
f 608/1/2 607/1/2 10/1/2 12/1/2
f 608/1/13 609/1/13 13/1/13 11/1/13
f 609/1/14 608/1/14 12/1/14 14/1/14
f 609/1/15 607/1/15 9/1/15 13/1/15
f 607/1/6 609/1/6 14/1/6 10/1/6
f 610/1/7 611/1/7 15/1/7 11/1/7
f 611/1/8 610/1/8 12/1/8 16/1/8
f 611/1/9 612/1/9 13/1/9 15/1/9
f 612/1/10 611/1/10 16/1/10 14/1/10
f 612/1/16 610/1/16 11/1/16 13/1/16
f 610/1/17 612/1/17 14/1/17 12/1/17
f 613/1/18 614/1/18 19/1/18 17/1/18
f 614/1/19 613/1/19 18/1/19 20/1/19
f 614/1/8 615/1/8 21/1/8 19/1/8
f 615/1/7 614/1/7 20/1/7 22/1/7
f 615/1/2 613/1/2 17/1/2 21/1/2
f 613/1/1 615/1/1 22/1/1 18/1/1
f 616/1/20 617/1/20 17/1/20 19/1/20
f 617/1/21 616/1/21 20/1/21 18/1/21
f 617/1/6 618/1/6 23/1/6 17/1/6
f 618/1/15 617/1/15 18/1/15 24/1/15
f 618/1/10 616/1/10 19/1/10 23/1/10
f 616/1/9 618/1/9 24/1/9 20/1/9
f 619/1/15 620/1/15 27/1/15 25/1/15
f 620/1/6 619/1/6 26/1/6 28/1/6
f 620/1/1 621/1/1 29/1/1 27/1/1
f 621/1/2 620/1/2 28/1/2 30/1/2
f 621/1/22 619/1/22 25/1/22 29/1/22
f 619/1/23 621/1/23 30/1/23 26/1/23
f 622/1/7 623/1/7 31/1/7 29/1/7
f 623/1/8 622/1/8 30/1/8 32/1/8
f 623/1/9 624/1/9 25/1/9 31/1/9
f 624/1/10 623/1/10 32/1/10 26/1/10
f 624/1/24 622/1/24 29/1/24 25/1/24
f 622/1/25 624/1/25 26/1/25 30/1/25
f 625/1/26 626/1/26 245/1/26 239/1/26
f 626/1/27 625/1/27 240/1/27 246/1/27
f 626/1/1 627/1/1 243/1/1 245/1/1
f 627/1/9 626/1/9 246/1/9 244/1/9
f 627/1/28 628/1/28 241/1/28 243/1/28
f 628/1/29 627/1/29 244/1/29 242/1/29
f 628/1/30 625/1/30 239/1/30 241/1/30
f 625/1/31 628/1/31 242/1/31 240/1/31
f 629/1/32 630/1/32 159/1/32 163/1/32
f 630/1/33 629/1/33 164/1/33 160/1/33
f 630/1/34 631/1/34 157/1/34 159/1/34
f 631/1/35 630/1/35 160/1/35 158/1/35
f 631/1/36 632/1/36 161/1/36 157/1/36
f 632/1/37 631/1/37 158/1/37 162/1/37
f 632/1/38 629/1/38 163/1/38 161/1/38
f 629/1/39 632/1/39 162/1/39 164/1/39
f 633/1/26 634/1/26 281/1/26 273/1/26
f 634/1/27 633/1/27 274/1/27 282/1/27
f 634/1/1 635/1/1 269/1/1 281/1/1
f 635/1/9 634/1/9 282/1/9 270/1/9
f 635/1/28 636/1/28 271/1/28 269/1/28
f 636/1/29 635/1/29 270/1/29 272/1/29
f 636/1/2 633/1/2 273/1/2 271/1/2
f 633/1/10 636/1/10 272/1/10 274/1/10
f 637/1/7 638/1/7 55/1/7 53/1/7
f 638/1/8 637/1/8 54/1/8 56/1/8
f 638/1/40 639/1/40 57/1/40 55/1/40
f 639/1/41 638/1/41 56/1/41 58/1/41
f 639/1/1 637/1/1 53/1/1 57/1/1
f 637/1/2 639/1/2 58/1/2 54/1/2
f 640/1/42 641/1/42 55/1/42 57/1/42
f 641/1/43 640/1/43 58/1/43 56/1/43
f 641/1/9 642/1/9 59/1/9 55/1/9
f 642/1/10 641/1/10 56/1/10 60/1/10
f 642/1/15 640/1/15 57/1/15 59/1/15
f 640/1/6 642/1/6 60/1/6 58/1/6
f 643/1/44 644/1/44 391/1/44 389/1/44
f 644/1/45 643/1/45 390/1/45 392/1/45
f 644/1/7 645/1/7 385/1/7 391/1/7
f 645/1/15 644/1/15 392/1/15 386/1/15
f 645/1/46 646/1/46 387/1/46 385/1/46
f 646/1/47 645/1/47 386/1/47 388/1/47
f 646/1/48 643/1/48 389/1/48 387/1/48
f 643/1/49 646/1/49 388/1/49 390/1/49
f 647/1/50 648/1/50 393/1/50 399/1/50
f 648/1/51 647/1/51 400/1/51 394/1/51
f 648/1/52 649/1/52 395/1/52 393/1/52
f 649/1/53 648/1/53 394/1/53 396/1/53
f 649/1/54 650/1/54 397/1/54 395/1/54
f 650/1/55 649/1/55 396/1/55 398/1/55
f 650/1/8 647/1/8 399/1/8 397/1/8
f 647/1/6 650/1/6 398/1/6 400/1/6
f 651/1/10 652/1/10 551/1/10 547/1/10
f 652/1/9 651/1/9 548/1/9 552/1/9
f 652/1/8 653/1/8 549/1/8 551/1/8
f 653/1/7 652/1/7 552/1/7 550/1/7
f 653/1/2 654/1/2 545/1/2 549/1/2
f 654/1/1 653/1/1 550/1/1 546/1/1
f 654/1/6 651/1/6 547/1/6 545/1/6
f 651/1/15 654/1/15 546/1/15 548/1/15
f 655/1/10 656/1/10 559/1/10 555/1/10
f 656/1/9 655/1/9 556/1/9 560/1/9
f 656/1/8 657/1/8 557/1/8 559/1/8
f 657/1/7 656/1/7 560/1/7 558/1/7
f 657/1/2 658/1/2 553/1/2 557/1/2
f 658/1/1 657/1/1 558/1/1 554/1/1
f 658/1/6 655/1/6 555/1/6 553/1/6
f 655/1/15 658/1/15 554/1/15 556/1/15
f 659/1/56 660/1/56 459/1/56 455/1/56
f 660/1/57 659/1/57 456/1/57 460/1/57
f 660/1/58 661/1/58 457/1/58 459/1/58
f 661/1/59 660/1/59 460/1/59 458/1/59
f 661/1/60 662/1/60 453/1/60 457/1/60
f 662/1/61 661/1/61 458/1/61 454/1/61
f 662/1/62 659/1/62 455/1/62 453/1/62
f 659/1/63 662/1/63 454/1/63 456/1/63
f 663/1/29 664/1/29 423/1/29 421/1/29
f 664/1/27 663/1/27 422/1/27 424/1/27
f 664/1/6 665/1/6 417/1/6 423/1/6
f 665/1/8 664/1/8 424/1/8 418/1/8
f 665/1/28 666/1/28 419/1/28 417/1/28
f 666/1/26 665/1/26 418/1/26 420/1/26
f 666/1/15 663/1/15 421/1/15 419/1/15
f 663/1/7 666/1/7 420/1/7 422/1/7
f 667/1/8 668/1/8 451/1/8 445/1/8
f 668/1/6 667/1/6 446/1/6 452/1/6
f 668/1/27 669/1/27 447/1/27 451/1/27
f 669/1/29 668/1/29 452/1/29 448/1/29
f 669/1/7 670/1/7 449/1/7 447/1/7
f 670/1/15 669/1/15 448/1/15 450/1/15
f 670/1/26 667/1/26 445/1/26 449/1/26
f 667/1/28 670/1/28 450/1/28 446/1/28
f 671/1/8 672/1/8 527/1/8 523/1/8
f 672/1/6 671/1/6 524/1/6 528/1/6
f 672/1/27 673/1/27 525/1/27 527/1/27
f 673/1/29 672/1/29 528/1/29 526/1/29
f 673/1/7 674/1/7 521/1/7 525/1/7
f 674/1/15 673/1/15 526/1/15 522/1/15
f 674/1/26 671/1/26 523/1/26 521/1/26
f 671/1/28 674/1/28 522/1/28 524/1/28
f 675/1/8 676/1/8 75/1/8 73/1/8
f 676/1/6 675/1/6 74/1/6 76/1/6
f 676/1/27 677/1/27 69/1/27 75/1/27
f 677/1/29 676/1/29 76/1/29 70/1/29
f 677/1/7 678/1/7 71/1/7 69/1/7
f 678/1/15 677/1/15 70/1/15 72/1/15
f 678/1/26 675/1/26 73/1/26 71/1/26
f 675/1/28 678/1/28 72/1/28 74/1/28
f 679/1/9 680/1/9 347/1/9 365/1/9
f 680/1/1 679/1/1 366/1/1 348/1/1
f 680/1/27 681/1/27 349/1/27 347/1/27
f 681/1/26 680/1/26 348/1/26 350/1/26
f 681/1/10 682/1/10 345/1/10 349/1/10
f 682/1/2 681/1/2 350/1/2 346/1/2
f 682/1/29 679/1/29 365/1/29 345/1/29
f 679/1/28 682/1/28 346/1/28 366/1/28
f 683/1/64 684/1/64 123/1/64 121/1/64
f 684/1/65 683/1/65 122/1/65 124/1/65
f 684/1/66 685/1/66 125/1/66 123/1/66
f 685/1/67 684/1/67 124/1/67 126/1/67
f 685/1/28 683/1/28 121/1/28 125/1/28
f 683/1/29 685/1/29 126/1/29 122/1/29
f 686/1/68 687/1/68 123/1/68 125/1/68
f 687/1/69 686/1/69 126/1/69 124/1/69
f 687/1/70 688/1/70 127/1/70 123/1/70
f 688/1/71 687/1/71 124/1/71 128/1/71
f 688/1/72 686/1/72 125/1/72 127/1/72
f 686/1/73 688/1/73 128/1/73 126/1/73
f 689/1/74 690/1/74 121/1/74 123/1/74
f 690/1/75 689/1/75 124/1/75 122/1/75
f 690/1/76 691/1/76 129/1/76 121/1/76
f 691/1/77 690/1/77 122/1/77 130/1/77
f 691/1/1 689/1/1 123/1/1 129/1/1
f 689/1/9 691/1/9 130/1/9 124/1/9
f 692/1/78 693/1/78 121/1/78 129/1/78
f 693/1/79 692/1/79 130/1/79 122/1/79
f 693/1/2 694/1/2 131/1/2 121/1/2
f 694/1/10 693/1/10 122/1/10 132/1/10
f 694/1/80 692/1/80 129/1/80 131/1/80
f 692/1/81 694/1/81 132/1/81 130/1/81
f 695/1/82 696/1/82 131/1/82 129/1/82
f 696/1/83 695/1/83 130/1/83 132/1/83
f 696/1/26 697/1/26 133/1/26 131/1/26
f 697/1/27 696/1/27 132/1/27 134/1/27
f 697/1/84 695/1/84 129/1/84 133/1/84
f 695/1/85 697/1/85 134/1/85 130/1/85
f 698/1/77 699/1/77 137/1/77 135/1/77
f 699/1/76 698/1/76 136/1/76 138/1/76
f 699/1/75 700/1/75 139/1/75 137/1/75
f 700/1/74 699/1/74 138/1/74 140/1/74
f 700/1/9 698/1/9 135/1/9 139/1/9
f 698/1/1 700/1/1 140/1/1 136/1/1
f 701/1/65 702/1/65 137/1/65 139/1/65
f 702/1/64 701/1/64 140/1/64 138/1/64
f 702/1/29 703/1/29 141/1/29 137/1/29
f 703/1/28 702/1/28 138/1/28 142/1/28
f 703/1/67 701/1/67 139/1/67 141/1/67
f 701/1/66 703/1/66 142/1/66 140/1/66
f 704/1/69 705/1/69 141/1/69 139/1/69
f 705/1/68 704/1/68 140/1/68 142/1/68
f 705/1/73 706/1/73 143/1/73 141/1/73
f 706/1/72 705/1/72 142/1/72 144/1/72
f 706/1/86 704/1/86 139/1/86 143/1/86
f 704/1/87 706/1/87 144/1/87 140/1/87
f 707/1/79 708/1/79 135/1/79 137/1/79
f 708/1/78 707/1/78 138/1/78 136/1/78
f 708/1/81 709/1/81 145/1/81 135/1/81
f 709/1/80 708/1/80 136/1/80 146/1/80
f 709/1/10 707/1/10 137/1/10 145/1/10
f 707/1/2 709/1/2 146/1/2 138/1/2
f 710/1/83 711/1/83 135/1/83 145/1/83
f 711/1/82 710/1/82 146/1/82 136/1/82
f 711/1/85 712/1/85 147/1/85 135/1/85
f 712/1/84 711/1/84 136/1/84 148/1/84
f 712/1/27 710/1/27 145/1/27 147/1/27
f 710/1/26 712/1/26 148/1/26 146/1/26
f 713/1/88 714/1/88 151/1/88 149/1/88
f 714/1/89 713/1/89 150/1/89 152/1/89
f 714/1/32 715/1/32 153/1/32 151/1/32
f 715/1/33 714/1/33 152/1/33 154/1/33
f 715/1/90 713/1/90 149/1/90 153/1/90
f 713/1/91 715/1/91 154/1/91 150/1/91
f 716/1/92 717/1/92 149/1/92 151/1/92
f 717/1/93 716/1/93 152/1/93 150/1/93
f 717/1/36 718/1/36 155/1/36 149/1/36
f 718/1/37 717/1/37 150/1/37 156/1/37
f 718/1/38 716/1/38 151/1/38 155/1/38
f 716/1/39 718/1/39 156/1/39 152/1/39
f 719/1/94 720/1/94 39/1/94 33/1/94
f 720/1/95 719/1/95 34/1/95 40/1/95
f 720/1/96 721/1/96 35/1/96 39/1/96
f 721/1/97 720/1/97 40/1/97 36/1/97
f 721/1/98 722/1/98 37/1/98 35/1/98
f 722/1/99 721/1/99 36/1/99 38/1/99
f 722/1/100 719/1/100 33/1/100 37/1/100
f 719/1/101 722/1/101 38/1/101 34/1/101
f 723/1/32 724/1/32 151/1/32 159/1/32
f 724/1/33 723/1/33 160/1/33 152/1/33
f 724/1/34 725/1/34 155/1/34 151/1/34
f 725/1/35 724/1/35 152/1/35 156/1/35
f 725/1/36 726/1/36 157/1/36 155/1/36
f 726/1/37 725/1/37 156/1/37 158/1/37
f 726/1/38 723/1/38 159/1/38 157/1/38
f 723/1/39 726/1/39 158/1/39 160/1/39
f 727/1/102 728/1/102 167/1/102 165/1/102
f 728/1/103 727/1/103 166/1/103 168/1/103
f 728/1/104 729/1/104 169/1/104 167/1/104
f 729/1/105 728/1/105 168/1/105 170/1/105
f 729/1/106 727/1/106 165/1/106 169/1/106
f 727/1/107 729/1/107 170/1/107 166/1/107
f 730/1/108 731/1/108 167/1/108 171/1/108
f 731/1/109 730/1/109 172/1/109 168/1/109
f 731/1/110 732/1/110 165/1/110 167/1/110
f 732/1/111 731/1/111 168/1/111 166/1/111
f 732/1/112 730/1/112 171/1/112 165/1/112
f 730/1/113 732/1/113 166/1/113 172/1/113
f 733/1/114 734/1/114 83/1/114 79/1/114
f 734/1/115 733/1/115 80/1/115 84/1/115
f 734/1/116 735/1/116 81/1/116 83/1/116
f 735/1/117 734/1/117 84/1/117 82/1/117
f 735/1/118 736/1/118 77/1/118 81/1/118
f 736/1/119 735/1/119 82/1/119 78/1/119
f 736/1/120 733/1/120 79/1/120 77/1/120
f 733/1/121 736/1/121 78/1/121 80/1/121
f 737/1/10 738/1/10 297/1/10 295/1/10
f 738/1/2 737/1/2 296/1/2 298/1/2
f 738/1/29 739/1/29 289/1/29 297/1/29
f 739/1/28 738/1/28 298/1/28 290/1/28
f 739/1/9 740/1/9 287/1/9 289/1/9
f 740/1/1 739/1/1 290/1/1 288/1/1
f 740/1/27 737/1/27 295/1/27 287/1/27
f 737/1/26 740/1/26 288/1/26 296/1/26
f 741/1/26 742/1/26 183/1/26 181/1/26
f 742/1/27 741/1/27 182/1/27 184/1/27
f 742/1/122 743/1/122 185/1/122 183/1/122
f 743/1/123 742/1/123 184/1/123 186/1/123
f 743/1/124 741/1/124 181/1/124 185/1/124
f 741/1/125 743/1/125 186/1/125 182/1/125
f 744/1/26 745/1/26 201/1/26 197/1/26
f 745/1/27 744/1/27 198/1/27 202/1/27
f 745/1/1 746/1/1 199/1/1 201/1/1
f 746/1/9 745/1/9 202/1/9 200/1/9
f 746/1/126 747/1/126 195/1/126 199/1/126
f 747/1/127 746/1/127 200/1/127 196/1/127
f 747/1/128 744/1/128 197/1/128 195/1/128
f 744/1/129 747/1/129 196/1/129 198/1/129
f 748/1/28 749/1/28 185/1/28 189/1/28
f 749/1/29 748/1/29 190/1/29 186/1/29
f 749/1/130 750/1/130 183/1/130 185/1/130
f 750/1/131 749/1/131 186/1/131 184/1/131
f 750/1/132 748/1/132 189/1/132 183/1/132
f 748/1/133 750/1/133 184/1/133 190/1/133
f 751/1/28 752/1/28 189/1/28 193/1/28
f 752/1/29 751/1/29 194/1/29 190/1/29
f 752/1/134 753/1/134 183/1/134 189/1/134
f 753/1/135 752/1/135 190/1/135 184/1/135
f 753/1/136 751/1/136 193/1/136 183/1/136
f 751/1/137 753/1/137 184/1/137 194/1/137
f 754/1/138 755/1/138 187/1/138 195/1/138
f 755/1/139 754/1/139 196/1/139 188/1/139
f 755/1/140 756/1/140 191/1/140 187/1/140
f 756/1/141 755/1/141 188/1/141 192/1/141
f 756/1/26 754/1/26 195/1/26 191/1/26
f 754/1/27 756/1/27 192/1/27 196/1/27
f 757/1/142 758/1/142 193/1/142 197/1/142
f 758/1/143 757/1/143 198/1/143 194/1/143
f 758/1/144 759/1/144 183/1/144 193/1/144
f 759/1/145 758/1/145 194/1/145 184/1/145
f 759/1/146 757/1/146 197/1/146 183/1/146
f 757/1/147 759/1/147 184/1/147 198/1/147
f 760/1/148 761/1/148 195/1/148 187/1/148
f 761/1/149 760/1/149 188/1/149 196/1/149
f 761/1/150 762/1/150 199/1/150 195/1/150
f 762/1/151 761/1/151 196/1/151 200/1/151
f 762/1/28 760/1/28 187/1/28 199/1/28
f 760/1/29 762/1/29 200/1/29 188/1/29
f 763/1/1 764/1/1 325/1/1 317/1/1
f 764/1/9 763/1/9 318/1/9 326/1/9
f 764/1/152 765/1/152 323/1/152 325/1/152
f 765/1/153 764/1/153 326/1/153 324/1/153
f 765/1/2 766/1/2 321/1/2 323/1/2
f 766/1/10 765/1/10 324/1/10 322/1/10
f 766/1/154 763/1/154 317/1/154 321/1/154
f 763/1/155 766/1/155 322/1/155 318/1/155
f 767/1/156 768/1/156 195/1/156 197/1/156
f 768/1/157 767/1/157 198/1/157 196/1/157
f 768/1/2 769/1/2 203/1/2 195/1/2
f 769/1/10 768/1/10 196/1/10 204/1/10
f 769/1/158 767/1/158 197/1/158 203/1/158
f 767/1/159 769/1/159 204/1/159 198/1/159
f 770/1/160 771/1/160 197/1/160 193/1/160
f 771/1/161 770/1/161 194/1/161 198/1/161
f 771/1/162 772/1/162 203/1/162 197/1/162
f 772/1/163 771/1/163 198/1/163 204/1/163
f 772/1/28 770/1/28 193/1/28 203/1/28
f 770/1/29 772/1/29 204/1/29 194/1/29
f 773/1/163 774/1/163 207/1/163 205/1/163
f 774/1/162 773/1/162 206/1/162 208/1/162
f 774/1/147 775/1/147 209/1/147 207/1/147
f 775/1/146 774/1/146 208/1/146 210/1/146
f 775/1/164 773/1/164 205/1/164 209/1/164
f 773/1/165 775/1/165 210/1/165 206/1/165
f 776/1/29 777/1/29 205/1/29 211/1/29
f 777/1/28 776/1/28 212/1/28 206/1/28
f 777/1/166 778/1/166 209/1/166 205/1/166
f 778/1/167 777/1/167 206/1/167 210/1/167
f 778/1/131 776/1/131 211/1/131 209/1/131
f 776/1/130 778/1/130 210/1/130 212/1/130
f 779/1/27 780/1/27 213/1/27 209/1/27
f 780/1/26 779/1/26 210/1/26 214/1/26
f 780/1/125 781/1/125 211/1/125 213/1/125
f 781/1/124 780/1/124 214/1/124 212/1/124
f 781/1/123 779/1/123 209/1/123 211/1/123
f 779/1/122 781/1/122 212/1/122 210/1/122
f 782/1/168 783/1/168 267/1/168 261/1/168
f 783/1/169 782/1/169 262/1/169 268/1/169
f 783/1/9 784/1/9 265/1/9 267/1/9
f 784/1/1 783/1/1 268/1/1 266/1/1
f 784/1/27 785/1/27 263/1/27 265/1/27
f 785/1/26 784/1/26 266/1/26 264/1/26
f 785/1/10 782/1/10 261/1/10 263/1/10
f 782/1/2 785/1/2 264/1/2 262/1/2
f 786/1/29 787/1/29 219/1/29 215/1/29
f 787/1/28 786/1/28 216/1/28 220/1/28
f 787/1/170 788/1/170 217/1/170 219/1/170
f 788/1/171 787/1/171 220/1/171 218/1/171
f 788/1/141 786/1/141 215/1/141 217/1/141
f 786/1/140 788/1/140 218/1/140 216/1/140
f 789/1/172 790/1/172 219/1/172 217/1/172
f 790/1/173 789/1/173 218/1/173 220/1/173
f 790/1/174 791/1/174 221/1/174 219/1/174
f 791/1/175 790/1/175 220/1/175 222/1/175
f 791/1/27 789/1/27 217/1/27 221/1/27
f 789/1/26 791/1/26 222/1/26 218/1/26
f 792/1/176 793/1/176 219/1/176 221/1/176
f 793/1/177 792/1/177 222/1/177 220/1/177
f 793/1/178 794/1/178 223/1/178 219/1/178
f 794/1/179 793/1/179 220/1/179 224/1/179
f 794/1/27 792/1/27 221/1/27 223/1/27
f 792/1/26 794/1/26 224/1/26 222/1/26
f 795/1/29 796/1/29 225/1/29 219/1/29
f 796/1/28 795/1/28 220/1/28 226/1/28
f 796/1/174 797/1/174 223/1/174 225/1/174
f 797/1/175 796/1/175 226/1/175 224/1/175
f 797/1/180 795/1/180 219/1/180 223/1/180
f 795/1/181 797/1/181 224/1/181 220/1/181
f 798/1/9 799/1/9 207/1/9 225/1/9
f 799/1/1 798/1/1 226/1/1 208/1/1
f 799/1/159 800/1/159 205/1/159 207/1/159
f 800/1/158 799/1/158 208/1/158 206/1/158
f 800/1/182 798/1/182 225/1/182 205/1/182
f 798/1/183 800/1/183 206/1/183 226/1/183
f 801/1/176 802/1/176 225/1/176 223/1/176
f 802/1/177 801/1/177 224/1/177 226/1/177
f 802/1/184 803/1/184 227/1/184 225/1/184
f 803/1/185 802/1/185 226/1/185 228/1/185
f 803/1/27 801/1/27 223/1/27 227/1/27
f 801/1/26 803/1/26 228/1/26 224/1/26
f 804/1/186 805/1/186 205/1/186 225/1/186
f 805/1/187 804/1/187 226/1/187 206/1/187
f 805/1/10 806/1/10 227/1/10 205/1/10
f 806/1/2 805/1/2 206/1/2 228/1/2
f 806/1/188 804/1/188 225/1/188 227/1/188
f 804/1/189 806/1/189 228/1/189 226/1/189
f 807/1/190 808/1/190 587/1/190 585/1/190
f 808/1/191 807/1/191 586/1/191 588/1/191
f 808/1/192 809/1/192 583/1/192 587/1/192
f 809/1/193 808/1/193 588/1/193 584/1/193
f 809/1/194 810/1/194 581/1/194 583/1/194
f 810/1/195 809/1/195 584/1/195 582/1/195
f 810/1/196 807/1/196 585/1/196 581/1/196
f 807/1/197 810/1/197 582/1/197 586/1/197
f 811/1/198 812/1/198 591/1/198 585/1/198
f 812/1/199 811/1/199 586/1/199 592/1/199
f 812/1/200 813/1/200 589/1/200 591/1/200
f 813/1/201 812/1/201 592/1/201 590/1/201
f 813/1/202 814/1/202 587/1/202 589/1/202
f 814/1/203 813/1/203 590/1/203 588/1/203
f 814/1/204 811/1/204 585/1/204 587/1/204
f 811/1/205 814/1/205 588/1/205 586/1/205
f 815/1/206 816/1/206 239/1/206 237/1/206
f 816/1/207 815/1/207 238/1/207 240/1/207
f 816/1/208 817/1/208 241/1/208 239/1/208
f 817/1/209 816/1/209 240/1/209 242/1/209
f 817/1/210 815/1/210 237/1/210 241/1/210
f 815/1/211 817/1/211 242/1/211 238/1/211
f 818/1/1 819/1/1 191/1/1 185/1/1
f 819/1/9 818/1/9 186/1/9 192/1/9
f 819/1/212 820/1/212 187/1/212 191/1/212
f 820/1/213 819/1/213 192/1/213 188/1/213
f 820/1/2 821/1/2 181/1/2 187/1/2
f 821/1/10 820/1/10 188/1/10 182/1/10
f 821/1/214 818/1/214 185/1/214 181/1/214
f 818/1/215 821/1/215 182/1/215 186/1/215
f 822/1/6 823/1/6 495/1/6 493/1/6
f 823/1/8 822/1/8 494/1/8 496/1/8
f 823/1/28 824/1/28 487/1/28 495/1/28
f 824/1/26 823/1/26 496/1/26 488/1/26
f 824/1/216 825/1/216 485/1/216 487/1/216
f 825/1/217 824/1/217 488/1/217 486/1/217
f 825/1/29 822/1/29 493/1/29 485/1/29
f 822/1/27 825/1/27 486/1/27 494/1/27
f 826/1/207 827/1/207 253/1/207 251/1/207
f 827/1/206 826/1/206 252/1/206 254/1/206
f 827/1/211 828/1/211 255/1/211 253/1/211
f 828/1/210 827/1/210 254/1/210 256/1/210
f 828/1/209 826/1/209 251/1/209 255/1/209
f 826/1/208 828/1/208 256/1/208 252/1/208
f 829/1/218 830/1/218 369/1/218 357/1/218
f 830/1/219 829/1/219 358/1/219 370/1/219
f 830/1/29 831/1/29 361/1/29 369/1/29
f 831/1/28 830/1/28 370/1/28 362/1/28
f 831/1/9 832/1/9 353/1/9 361/1/9
f 832/1/1 831/1/1 362/1/1 354/1/1
f 832/1/220 829/1/220 357/1/220 353/1/220
f 829/1/221 832/1/221 354/1/221 358/1/221
f 833/1/213 834/1/213 217/1/213 215/1/213
f 834/1/212 833/1/212 216/1/212 218/1/212
f 834/1/9 835/1/9 211/1/9 217/1/9
f 835/1/1 834/1/1 218/1/1 212/1/1
f 835/1/215 836/1/215 213/1/215 211/1/215
f 836/1/214 835/1/214 212/1/214 214/1/214
f 836/1/10 833/1/10 215/1/10 213/1/10
f 833/1/2 836/1/2 214/1/2 216/1/2
f 837/1/1 838/1/1 249/1/1 247/1/1
f 838/1/9 837/1/9 248/1/9 250/1/9
f 838/1/169 839/1/169 243/1/169 249/1/169
f 839/1/168 838/1/168 250/1/168 244/1/168
f 839/1/2 840/1/2 245/1/2 243/1/2
f 840/1/10 839/1/10 244/1/10 246/1/10
f 840/1/26 837/1/26 247/1/26 245/1/26
f 837/1/27 840/1/27 246/1/27 248/1/27
f 841/1/222 842/1/222 47/1/222 43/1/222
f 842/1/223 841/1/223 44/1/223 48/1/223
f 842/1/224 843/1/224 45/1/224 47/1/224
f 843/1/225 842/1/225 48/1/225 46/1/225
f 843/1/226 844/1/226 41/1/226 45/1/226
f 844/1/227 843/1/227 46/1/227 42/1/227
f 844/1/228 841/1/228 43/1/228 41/1/228
f 841/1/229 844/1/229 42/1/229 44/1/229
f 845/1/230 846/1/230 237/1/230 239/1/230
f 846/1/231 845/1/231 240/1/231 238/1/231
f 846/1/232 847/1/232 233/1/232 237/1/232
f 847/1/233 846/1/233 238/1/233 234/1/233
f 847/1/100 848/1/100 235/1/100 233/1/100
f 848/1/96 847/1/96 234/1/96 236/1/96
f 848/1/26 845/1/26 239/1/26 235/1/26
f 845/1/27 848/1/27 236/1/27 240/1/27
f 849/1/234 850/1/234 271/1/234 275/1/234
f 850/1/235 849/1/235 276/1/235 272/1/235
f 850/1/28 851/1/28 277/1/28 271/1/28
f 851/1/29 850/1/29 272/1/29 278/1/29
f 851/1/236 849/1/236 275/1/236 277/1/236
f 849/1/237 851/1/237 278/1/237 276/1/237
f 852/1/29 853/1/29 415/1/29 413/1/29
f 853/1/27 852/1/27 414/1/27 416/1/27
f 853/1/6 854/1/6 409/1/6 415/1/6
f 854/1/8 853/1/8 416/1/8 410/1/8
f 854/1/28 855/1/28 411/1/28 409/1/28
f 855/1/26 854/1/26 410/1/26 412/1/26
f 855/1/15 852/1/15 413/1/15 411/1/15
f 852/1/7 855/1/7 412/1/7 414/1/7
f 856/1/104 857/1/104 175/1/104 173/1/104
f 857/1/105 856/1/105 174/1/105 176/1/105
f 857/1/106 858/1/106 169/1/106 175/1/106
f 858/1/107 857/1/107 176/1/107 170/1/107
f 858/1/238 859/1/238 167/1/238 169/1/238
f 859/1/239 858/1/239 170/1/239 168/1/239
f 859/1/108 856/1/108 173/1/108 167/1/108
f 856/1/109 859/1/109 168/1/109 174/1/109
f 860/1/10 861/1/10 575/1/10 571/1/10
f 861/1/9 860/1/9 572/1/9 576/1/9
f 861/1/8 862/1/8 573/1/8 575/1/8
f 862/1/7 861/1/7 576/1/7 574/1/7
f 862/1/2 863/1/2 569/1/2 573/1/2
f 863/1/1 862/1/1 574/1/1 570/1/1
f 863/1/6 860/1/6 571/1/6 569/1/6
f 860/1/15 863/1/15 570/1/15 572/1/15
f 864/1/96 865/1/96 259/1/96 257/1/96
f 865/1/100 864/1/100 258/1/100 260/1/100
f 865/1/233 866/1/233 253/1/233 259/1/233
f 866/1/232 865/1/232 260/1/232 254/1/232
f 866/1/231 867/1/231 251/1/231 253/1/231
f 867/1/230 866/1/230 254/1/230 252/1/230
f 867/1/27 864/1/27 257/1/27 251/1/27
f 864/1/26 867/1/26 252/1/26 258/1/26
f 868/1/235 869/1/235 299/1/235 297/1/235
f 869/1/234 868/1/234 298/1/234 300/1/234
f 869/1/237 870/1/237 303/1/237 299/1/237
f 870/1/236 869/1/236 300/1/236 304/1/236
f 870/1/29 868/1/29 297/1/29 303/1/29
f 868/1/28 870/1/28 304/1/28 298/1/28
f 871/1/240 872/1/240 307/1/240 305/1/240
f 872/1/241 871/1/241 306/1/241 308/1/241
f 872/1/242 873/1/242 309/1/242 307/1/242
f 873/1/243 872/1/243 308/1/243 310/1/243
f 873/1/2 871/1/2 305/1/2 309/1/2
f 871/1/10 873/1/10 310/1/10 306/1/10
f 874/1/244 875/1/244 309/1/244 311/1/244
f 875/1/245 874/1/245 312/1/245 310/1/245
f 875/1/221 876/1/221 307/1/221 309/1/221
f 876/1/220 875/1/220 310/1/220 308/1/220
f 876/1/28 874/1/28 311/1/28 307/1/28
f 874/1/29 876/1/29 308/1/29 312/1/29
f 877/1/26 878/1/26 309/1/26 313/1/26
f 878/1/27 877/1/27 314/1/27 310/1/27
f 878/1/246 879/1/246 311/1/246 309/1/246
f 879/1/247 878/1/247 310/1/247 312/1/247
f 879/1/248 877/1/248 313/1/248 311/1/248
f 877/1/249 879/1/249 312/1/249 314/1/249
f 880/1/250 881/1/250 305/1/250 307/1/250
f 881/1/251 880/1/251 308/1/251 306/1/251
f 881/1/252 882/1/252 315/1/252 305/1/252
f 882/1/253 881/1/253 306/1/253 316/1/253
f 882/1/28 880/1/28 307/1/28 315/1/28
f 880/1/29 882/1/29 316/1/29 308/1/29
f 883/1/28 884/1/28 317/1/28 311/1/28
f 884/1/29 883/1/29 312/1/29 318/1/29
f 884/1/254 885/1/254 313/1/254 317/1/254
f 885/1/255 884/1/255 318/1/255 314/1/255
f 885/1/256 883/1/256 311/1/256 313/1/256
f 883/1/257 885/1/257 314/1/257 312/1/257
f 886/1/258 887/1/258 317/1/258 313/1/258
f 887/1/259 886/1/259 314/1/259 318/1/259
f 887/1/260 888/1/260 319/1/260 317/1/260
f 888/1/261 887/1/261 318/1/261 320/1/261
f 888/1/1 886/1/1 313/1/1 319/1/1
f 886/1/9 888/1/9 320/1/9 314/1/9
f 889/1/262 890/1/262 317/1/262 319/1/262
f 890/1/263 889/1/263 320/1/263 318/1/263
f 890/1/264 891/1/264 321/1/264 317/1/264
f 891/1/265 890/1/265 318/1/265 322/1/265
f 891/1/26 889/1/26 319/1/26 321/1/26
f 889/1/27 891/1/27 322/1/27 320/1/27
f 892/1/266 893/1/266 279/1/266 275/1/266
f 893/1/267 892/1/267 276/1/267 280/1/267
f 893/1/26 894/1/26 273/1/26 279/1/26
f 894/1/27 893/1/27 280/1/27 274/1/27
f 894/1/1 895/1/1 271/1/1 273/1/1
f 895/1/9 894/1/9 274/1/9 272/1/9
f 895/1/268 892/1/268 275/1/268 271/1/268
f 892/1/269 895/1/269 272/1/269 276/1/269
f 896/1/270 897/1/270 49/1/270 51/1/270
f 897/1/271 896/1/271 52/1/271 50/1/271
f 897/1/272 898/1/272 43/1/272 49/1/272
f 898/1/273 897/1/273 50/1/273 44/1/273
f 898/1/274 899/1/274 41/1/274 43/1/274
f 899/1/275 898/1/275 44/1/275 42/1/275
f 899/1/276 896/1/276 51/1/276 41/1/276
f 896/1/277 899/1/277 42/1/277 52/1/277
f 900/1/278 901/1/278 323/1/278 327/1/278
f 901/1/279 900/1/279 328/1/279 324/1/279
f 901/1/280 902/1/280 325/1/280 323/1/280
f 902/1/281 901/1/281 324/1/281 326/1/281
f 902/1/282 900/1/282 327/1/282 325/1/282
f 900/1/283 902/1/283 326/1/283 328/1/283
f 903/1/284 904/1/284 331/1/284 327/1/284
f 904/1/285 903/1/285 328/1/285 332/1/285
f 904/1/286 905/1/286 323/1/286 331/1/286
f 905/1/287 904/1/287 332/1/287 324/1/287
f 905/1/288 903/1/288 327/1/288 323/1/288
f 903/1/289 905/1/289 324/1/289 328/1/289
f 906/1/290 907/1/290 331/1/290 329/1/290
f 907/1/291 906/1/291 330/1/291 332/1/291
f 907/1/292 908/1/292 327/1/292 331/1/292
f 908/1/293 907/1/293 332/1/293 328/1/293
f 908/1/294 906/1/294 329/1/294 327/1/294
f 906/1/295 908/1/295 328/1/295 330/1/295
f 909/1/296 910/1/296 331/1/296 333/1/296
f 910/1/297 909/1/297 334/1/297 332/1/297
f 910/1/298 911/1/298 329/1/298 331/1/298
f 911/1/299 910/1/299 332/1/299 330/1/299
f 911/1/26 909/1/26 333/1/26 329/1/26
f 909/1/27 911/1/27 330/1/27 334/1/27
f 912/1/300 913/1/300 333/1/300 331/1/300
f 913/1/301 912/1/301 332/1/301 334/1/301
f 913/1/26 914/1/26 335/1/26 333/1/26
f 914/1/27 913/1/27 334/1/27 336/1/27
f 914/1/302 912/1/302 331/1/302 335/1/302
f 912/1/303 914/1/303 336/1/303 332/1/303
f 915/1/304 916/1/304 335/1/304 331/1/304
f 916/1/305 915/1/305 332/1/305 336/1/305
f 916/1/26 917/1/26 337/1/26 335/1/26
f 917/1/27 916/1/27 336/1/27 338/1/27
f 917/1/306 915/1/306 331/1/306 337/1/306
f 915/1/307 917/1/307 338/1/307 332/1/307
f 918/1/308 919/1/308 331/1/308 339/1/308
f 919/1/309 918/1/309 340/1/309 332/1/309
f 919/1/310 920/1/310 337/1/310 331/1/310
f 920/1/311 919/1/311 332/1/311 338/1/311
f 920/1/2 918/1/2 339/1/2 337/1/2
f 918/1/10 920/1/10 338/1/10 340/1/10
f 921/1/1 922/1/1 329/1/1 307/1/1
f 922/1/9 921/1/9 308/1/9 330/1/9
f 922/1/28 923/1/28 327/1/28 329/1/28
f 923/1/29 922/1/29 330/1/29 328/1/29
f 923/1/2 924/1/2 311/1/2 327/1/2
f 924/1/10 923/1/10 328/1/10 312/1/10
f 924/1/26 921/1/26 307/1/26 311/1/26
f 921/1/27 924/1/27 312/1/27 308/1/27
f 925/1/312 926/1/312 339/1/312 331/1/312
f 926/1/313 925/1/313 332/1/313 340/1/313
f 926/1/314 927/1/314 343/1/314 339/1/314
f 927/1/315 926/1/315 340/1/315 344/1/315
f 927/1/1 925/1/1 331/1/1 343/1/1
f 925/1/9 927/1/9 344/1/9 332/1/9
f 928/1/316 929/1/316 339/1/316 343/1/316
f 929/1/317 928/1/317 344/1/317 340/1/317
f 929/1/28 930/1/28 341/1/28 339/1/28
f 930/1/29 929/1/29 340/1/29 342/1/29
f 930/1/318 928/1/318 343/1/318 341/1/318
f 928/1/319 930/1/319 342/1/319 344/1/319
f 931/1/320 932/1/320 305/1/320 341/1/320
f 932/1/321 931/1/321 342/1/321 306/1/321
f 932/1/26 933/1/26 343/1/26 305/1/26
f 933/1/27 932/1/27 306/1/27 344/1/27
f 933/1/322 931/1/322 341/1/322 343/1/322
f 931/1/323 933/1/323 344/1/323 342/1/323
f 934/1/324 935/1/324 341/1/324 305/1/324
f 935/1/325 934/1/325 306/1/325 342/1/325
f 935/1/28 936/1/28 315/1/28 341/1/28
f 936/1/29 935/1/29 342/1/29 316/1/29
f 936/1/326 934/1/326 305/1/326 315/1/326
f 934/1/327 936/1/327 316/1/327 306/1/327
f 937/1/328 938/1/328 457/1/328 463/1/328
f 938/1/329 937/1/329 464/1/329 458/1/329
f 938/1/330 939/1/330 459/1/330 457/1/330
f 939/1/331 938/1/331 458/1/331 460/1/331
f 939/1/332 940/1/332 461/1/332 459/1/332
f 940/1/333 939/1/333 460/1/333 462/1/333
f 940/1/6 937/1/6 463/1/6 461/1/6
f 937/1/8 940/1/8 462/1/8 464/1/8
f 941/1/325 942/1/325 351/1/325 347/1/325
f 942/1/324 941/1/324 348/1/324 352/1/324
f 942/1/327 943/1/327 349/1/327 351/1/327
f 943/1/326 942/1/326 352/1/326 350/1/326
f 943/1/29 941/1/29 347/1/29 349/1/29
f 941/1/28 943/1/28 350/1/28 348/1/28
f 944/1/251 945/1/251 353/1/251 351/1/251
f 945/1/250 944/1/250 352/1/250 354/1/250
f 945/1/29 946/1/29 349/1/29 353/1/29
f 946/1/28 945/1/28 354/1/28 350/1/28
f 946/1/253 944/1/253 351/1/253 349/1/253
f 944/1/252 946/1/252 350/1/252 352/1/252
f 947/1/323 948/1/323 355/1/323 347/1/323
f 948/1/322 947/1/322 348/1/322 356/1/322
f 948/1/27 949/1/27 351/1/27 355/1/27
f 949/1/26 948/1/26 356/1/26 352/1/26
f 949/1/321 947/1/321 347/1/321 351/1/321
f 947/1/320 949/1/320 352/1/320 348/1/320
f 950/1/243 951/1/243 353/1/243 357/1/243
f 951/1/242 950/1/242 358/1/242 354/1/242
f 951/1/241 952/1/241 351/1/241 353/1/241
f 952/1/240 951/1/240 354/1/240 352/1/240
f 952/1/10 950/1/10 357/1/10 351/1/10
f 950/1/2 952/1/2 352/1/2 358/1/2
f 953/1/319 954/1/319 347/1/319 355/1/319
f 954/1/318 953/1/318 356/1/318 348/1/318
f 954/1/29 955/1/29 359/1/29 347/1/29
f 955/1/28 954/1/28 348/1/28 360/1/28
f 955/1/317 953/1/317 355/1/317 359/1/317
f 953/1/316 955/1/316 360/1/316 356/1/316
f 956/1/334 957/1/334 393/1/334 395/1/334
f 957/1/335 956/1/335 396/1/335 394/1/335
f 957/1/336 958/1/336 389/1/336 393/1/336
f 958/1/337 957/1/337 394/1/337 390/1/337
f 958/1/338 959/1/338 387/1/338 389/1/338
f 959/1/339 958/1/339 390/1/339 388/1/339
f 959/1/340 956/1/340 395/1/340 387/1/340
f 956/1/341 959/1/341 388/1/341 396/1/341
f 960/1/315 961/1/315 359/1/315 355/1/315
f 961/1/314 960/1/314 356/1/314 360/1/314
f 961/1/313 962/1/313 363/1/313 359/1/313
f 962/1/312 961/1/312 360/1/312 364/1/312
f 962/1/9 960/1/9 355/1/9 363/1/9
f 960/1/1 962/1/1 364/1/1 356/1/1
f 963/1/301 964/1/301 363/1/301 345/1/301
f 964/1/300 963/1/300 346/1/300 364/1/300
f 964/1/303 965/1/303 365/1/303 363/1/303
f 965/1/302 964/1/302 364/1/302 366/1/302
f 965/1/27 963/1/27 345/1/27 365/1/27
f 963/1/26 965/1/26 366/1/26 346/1/26
f 966/1/297 967/1/297 345/1/297 363/1/297
f 967/1/296 966/1/296 364/1/296 346/1/296
f 967/1/27 968/1/27 361/1/27 345/1/27
f 968/1/26 967/1/26 346/1/26 362/1/26
f 968/1/299 966/1/299 363/1/299 361/1/299
f 966/1/298 968/1/298 362/1/298 364/1/298
f 969/1/307 970/1/307 367/1/307 363/1/307
f 970/1/306 969/1/306 364/1/306 368/1/306
f 970/1/27 971/1/27 365/1/27 367/1/27
f 971/1/26 970/1/26 368/1/26 366/1/26
f 971/1/305 969/1/305 363/1/305 365/1/305
f 969/1/304 971/1/304 366/1/304 364/1/304
f 972/1/311 973/1/311 363/1/311 367/1/311
f 973/1/310 972/1/310 368/1/310 364/1/310
f 973/1/309 974/1/309 359/1/309 363/1/309
f 974/1/308 973/1/308 364/1/308 360/1/308
f 974/1/10 972/1/10 367/1/10 359/1/10
f 972/1/2 974/1/2 360/1/2 368/1/2
f 975/1/291 976/1/291 361/1/291 363/1/291
f 976/1/290 975/1/290 364/1/290 362/1/290
f 976/1/295 977/1/295 369/1/295 361/1/295
f 977/1/294 976/1/294 362/1/294 370/1/294
f 977/1/293 975/1/293 363/1/293 369/1/293
f 975/1/292 977/1/292 370/1/292 364/1/292
f 978/1/289 979/1/289 371/1/289 369/1/289
f 979/1/288 978/1/288 370/1/288 372/1/288
f 979/1/287 980/1/287 363/1/287 371/1/287
f 980/1/286 979/1/286 372/1/286 364/1/286
f 980/1/285 978/1/285 369/1/285 363/1/285
f 978/1/284 980/1/284 364/1/284 370/1/284
f 981/1/342 982/1/342 357/1/342 369/1/342
f 982/1/343 981/1/343 370/1/343 358/1/343
f 982/1/344 983/1/344 373/1/344 357/1/344
f 983/1/244 982/1/244 358/1/244 374/1/244
f 983/1/10 981/1/10 369/1/10 373/1/10
f 981/1/2 983/1/2 374/1/2 370/1/2
f 984/1/279 985/1/279 369/1/279 371/1/279
f 985/1/278 984/1/278 372/1/278 370/1/278
f 985/1/283 986/1/283 375/1/283 369/1/283
f 986/1/282 985/1/282 370/1/282 376/1/282
f 986/1/281 984/1/281 371/1/281 375/1/281
f 984/1/280 986/1/280 376/1/280 372/1/280
f 987/1/27 988/1/27 377/1/27 357/1/27
f 988/1/26 987/1/26 358/1/26 378/1/26
f 988/1/249 989/1/249 373/1/249 377/1/249
f 989/1/248 988/1/248 378/1/248 374/1/248
f 989/1/247 987/1/247 357/1/247 373/1/247
f 987/1/246 989/1/246 374/1/246 358/1/246
f 990/1/27 991/1/27 301/1/27 295/1/27
f 991/1/26 990/1/26 296/1/26 302/1/26
f 991/1/267 992/1/267 299/1/267 301/1/267
f 992/1/266 991/1/266 302/1/266 300/1/266
f 992/1/269 993/1/269 297/1/269 299/1/269
f 993/1/268 992/1/268 300/1/268 298/1/268
f 993/1/9 990/1/9 295/1/9 297/1/9
f 990/1/1 993/1/1 298/1/1 296/1/1
f 994/1/29 995/1/29 373/1/29 379/1/29
f 995/1/28 994/1/28 380/1/28 374/1/28
f 995/1/257 996/1/257 377/1/257 373/1/257
f 996/1/256 995/1/256 374/1/256 378/1/256
f 996/1/255 994/1/255 379/1/255 377/1/255
f 994/1/254 996/1/254 378/1/254 380/1/254
f 997/1/259 998/1/259 377/1/259 379/1/259
f 998/1/258 997/1/258 380/1/258 378/1/258
f 998/1/9 999/1/9 383/1/9 377/1/9
f 999/1/1 998/1/1 378/1/1 384/1/1
f 999/1/261 997/1/261 379/1/261 383/1/261
f 997/1/260 999/1/260 384/1/260 380/1/260
f 1000/1/27 1001/1/27 381/1/27 383/1/27
f 1001/1/26 1000/1/26 384/1/26 382/1/26
f 1001/1/265 1002/1/265 379/1/265 381/1/265
f 1002/1/264 1001/1/264 382/1/264 380/1/264
f 1002/1/263 1000/1/263 383/1/263 379/1/263
f 1000/1/262 1002/1/262 380/1/262 384/1/262
f 1003/1/9 1004/1/9 543/1/9 539/1/9
f 1004/1/10 1003/1/10 540/1/10 544/1/10
f 1004/1/15 1005/1/15 541/1/15 543/1/15
f 1005/1/6 1004/1/6 544/1/6 542/1/6
f 1005/1/1 1006/1/1 537/1/1 541/1/1
f 1006/1/2 1005/1/2 542/1/2 538/1/2
f 1006/1/7 1003/1/7 539/1/7 537/1/7
f 1003/1/8 1006/1/8 538/1/8 540/1/8
f 1007/1/2 1008/1/2 315/1/2 333/1/2
f 1008/1/10 1007/1/10 334/1/10 316/1/10
f 1008/1/26 1009/1/26 341/1/26 315/1/26
f 1009/1/27 1008/1/27 316/1/27 342/1/27
f 1009/1/1 1010/1/1 335/1/1 341/1/1
f 1010/1/9 1009/1/9 342/1/9 336/1/9
f 1010/1/28 1007/1/28 333/1/28 335/1/28
f 1007/1/29 1010/1/29 336/1/29 334/1/29
f 1011/1/26 1012/1/26 481/1/26 483/1/26
f 1012/1/28 1011/1/28 484/1/28 482/1/28
f 1012/1/8 1013/1/8 477/1/8 481/1/8
f 1013/1/6 1012/1/6 482/1/6 478/1/6
f 1013/1/27 1014/1/27 479/1/27 477/1/27
f 1014/1/29 1013/1/29 478/1/29 480/1/29
f 1014/1/7 1011/1/7 483/1/7 479/1/7
f 1011/1/15 1014/1/15 480/1/15 484/1/15
f 1015/1/28 1016/1/28 117/1/28 119/1/28
f 1016/1/26 1015/1/26 120/1/26 118/1/26
f 1016/1/15 1017/1/15 113/1/15 117/1/15
f 1017/1/7 1016/1/7 118/1/7 114/1/7
f 1017/1/29 1018/1/29 115/1/29 113/1/29
f 1018/1/27 1017/1/27 114/1/27 116/1/27
f 1018/1/6 1015/1/6 119/1/6 115/1/6
f 1015/1/8 1018/1/8 116/1/8 120/1/8
f 1019/1/104 1020/1/104 179/1/104 177/1/104
f 1020/1/105 1019/1/105 178/1/105 180/1/105
f 1020/1/106 1021/1/106 175/1/106 179/1/106
f 1021/1/107 1020/1/107 180/1/107 176/1/107
f 1021/1/238 1022/1/238 173/1/238 175/1/238
f 1022/1/239 1021/1/239 176/1/239 174/1/239
f 1022/1/108 1019/1/108 177/1/108 173/1/108
f 1019/1/109 1022/1/109 174/1/109 178/1/109
f 1023/1/345 1024/1/345 91/1/345 89/1/345
f 1024/1/346 1023/1/346 90/1/346 92/1/346
f 1024/1/347 1025/1/347 87/1/347 91/1/347
f 1025/1/348 1024/1/348 92/1/348 88/1/348
f 1025/1/349 1026/1/349 85/1/349 87/1/349
f 1026/1/350 1025/1/350 88/1/350 86/1/350
f 1026/1/351 1023/1/351 89/1/351 85/1/351
f 1023/1/352 1026/1/352 86/1/352 90/1/352
f 1027/1/353 1028/1/353 427/1/353 425/1/353
f 1028/1/354 1027/1/354 426/1/354 428/1/354
f 1028/1/355 1029/1/355 429/1/355 427/1/355
f 1029/1/356 1028/1/356 428/1/356 430/1/356
f 1029/1/29 1027/1/29 425/1/29 429/1/29
f 1027/1/27 1029/1/27 430/1/27 426/1/27
f 1030/1/357 1031/1/357 427/1/357 429/1/357
f 1031/1/358 1030/1/358 430/1/358 428/1/358
f 1031/1/15 1032/1/15 431/1/15 427/1/15
f 1032/1/7 1031/1/7 428/1/7 432/1/7
f 1032/1/29 1030/1/29 429/1/29 431/1/29
f 1030/1/27 1032/1/27 432/1/27 430/1/27
f 1033/1/28 1034/1/28 427/1/28 433/1/28
f 1034/1/26 1033/1/26 434/1/26 428/1/26
f 1034/1/359 1035/1/359 425/1/359 427/1/359
f 1035/1/360 1034/1/360 428/1/360 426/1/360
f 1035/1/361 1033/1/361 433/1/361 425/1/361
f 1033/1/362 1035/1/362 426/1/362 434/1/362
f 1036/1/363 1037/1/363 425/1/363 433/1/363
f 1037/1/364 1036/1/364 434/1/364 426/1/364
f 1037/1/29 1038/1/29 435/1/29 425/1/29
f 1038/1/27 1037/1/27 426/1/27 436/1/27
f 1038/1/6 1036/1/6 433/1/6 435/1/6
f 1036/1/8 1038/1/8 436/1/8 434/1/8
f 1039/1/27 1040/1/27 439/1/27 437/1/27
f 1040/1/29 1039/1/29 438/1/29 440/1/29
f 1040/1/365 1041/1/365 441/1/365 439/1/365
f 1041/1/366 1040/1/366 440/1/366 442/1/366
f 1041/1/8 1039/1/8 437/1/8 441/1/8
f 1039/1/6 1041/1/6 442/1/6 438/1/6
f 1042/1/26 1043/1/26 441/1/26 443/1/26
f 1043/1/28 1042/1/28 444/1/28 442/1/28
f 1043/1/367 1044/1/367 439/1/367 441/1/367
f 1044/1/368 1043/1/368 442/1/368 440/1/368
f 1044/1/369 1042/1/369 443/1/369 439/1/369
f 1042/1/5 1044/1/5 440/1/5 444/1/5
f 1045/1/27 1046/1/27 105/1/27 97/1/27
f 1046/1/29 1045/1/29 98/1/29 106/1/29
f 1046/1/7 1047/1/7 103/1/7 105/1/7
f 1047/1/15 1046/1/15 106/1/15 104/1/15
f 1047/1/26 1048/1/26 99/1/26 103/1/26
f 1048/1/28 1047/1/28 104/1/28 100/1/28
f 1048/1/8 1045/1/8 97/1/8 99/1/8
f 1045/1/6 1048/1/6 100/1/6 98/1/6
f 1049/1/9 1050/1/9 263/1/9 261/1/9
f 1050/1/1 1049/1/1 262/1/1 264/1/1
f 1050/1/27 1051/1/27 251/1/27 263/1/27
f 1051/1/26 1050/1/26 264/1/26 252/1/26
f 1051/1/31 1052/1/31 255/1/31 251/1/31
f 1052/1/30 1051/1/30 252/1/30 256/1/30
f 1052/1/29 1049/1/29 261/1/29 255/1/29
f 1049/1/28 1052/1/28 256/1/28 262/1/28
f 1053/1/370 1054/1/370 93/1/370 95/1/370
f 1054/1/371 1053/1/371 96/1/371 94/1/371
f 1054/1/372 1055/1/372 91/1/372 93/1/372
f 1055/1/373 1054/1/373 94/1/373 92/1/373
f 1055/1/374 1056/1/374 89/1/374 91/1/374
f 1056/1/375 1055/1/375 92/1/375 90/1/375
f 1056/1/376 1053/1/376 95/1/376 89/1/376
f 1053/1/377 1056/1/377 90/1/377 96/1/377
f 1057/1/378 1058/1/378 67/1/378 61/1/378
f 1058/1/379 1057/1/379 62/1/379 68/1/379
f 1058/1/380 1059/1/380 63/1/380 67/1/380
f 1059/1/381 1058/1/381 68/1/381 64/1/381
f 1059/1/382 1060/1/382 65/1/382 63/1/382
f 1060/1/383 1059/1/383 64/1/383 66/1/383
f 1060/1/384 1057/1/384 61/1/384 65/1/384
f 1057/1/385 1060/1/385 66/1/385 62/1/385
f 1061/1/386 1062/1/386 465/1/386 471/1/386
f 1062/1/387 1061/1/387 472/1/387 466/1/387
f 1062/1/27 1063/1/27 473/1/27 465/1/27
f 1063/1/29 1062/1/29 466/1/29 474/1/29
f 1063/1/388 1061/1/388 471/1/388 473/1/388
f 1061/1/389 1063/1/389 474/1/389 472/1/389
f 1064/1/390 1065/1/390 473/1/390 471/1/390
f 1065/1/391 1064/1/391 472/1/391 474/1/391
f 1065/1/27 1066/1/27 475/1/27 473/1/27
f 1066/1/29 1065/1/29 474/1/29 476/1/29
f 1066/1/7 1064/1/7 471/1/7 475/1/7
f 1064/1/15 1066/1/15 476/1/15 472/1/15
f 1067/1/8 1068/1/8 107/1/8 101/1/8
f 1068/1/6 1067/1/6 102/1/6 108/1/6
f 1068/1/27 1069/1/27 97/1/27 107/1/27
f 1069/1/29 1068/1/29 108/1/29 98/1/29
f 1069/1/7 1070/1/7 99/1/7 97/1/7
f 1070/1/15 1069/1/15 98/1/15 100/1/15
f 1070/1/26 1067/1/26 101/1/26 99/1/26
f 1067/1/28 1070/1/28 100/1/28 102/1/28
f 1071/1/392 1072/1/392 487/1/392 485/1/392
f 1072/1/393 1071/1/393 486/1/393 488/1/393
f 1072/1/28 1073/1/28 489/1/28 487/1/28
f 1073/1/26 1072/1/26 488/1/26 490/1/26
f 1073/1/394 1071/1/394 485/1/394 489/1/394
f 1071/1/395 1073/1/395 490/1/395 486/1/395
f 1074/1/15 1075/1/15 485/1/15 491/1/15
f 1075/1/7 1074/1/7 492/1/7 486/1/7
f 1075/1/396 1076/1/396 489/1/396 485/1/396
f 1076/1/397 1075/1/397 486/1/397 490/1/397
f 1076/1/28 1074/1/28 491/1/28 489/1/28
f 1074/1/26 1076/1/26 490/1/26 492/1/26
f 1077/1/155 1078/1/155 381/1/155 379/1/155
f 1078/1/154 1077/1/154 380/1/154 382/1/154
f 1078/1/10 1079/1/10 371/1/10 381/1/10
f 1079/1/2 1078/1/2 382/1/2 372/1/2
f 1079/1/153 1080/1/153 375/1/153 371/1/153
f 1080/1/152 1079/1/152 372/1/152 376/1/152
f 1080/1/9 1077/1/9 379/1/9 375/1/9
f 1077/1/1 1080/1/1 376/1/1 380/1/1
f 1081/1/15 1082/1/15 499/1/15 497/1/15
f 1082/1/6 1081/1/6 498/1/6 500/1/6
f 1082/1/1 1083/1/1 501/1/1 499/1/1
f 1083/1/2 1082/1/2 500/1/2 502/1/2
f 1083/1/398 1081/1/398 497/1/398 501/1/398
f 1081/1/399 1083/1/399 502/1/399 498/1/399
f 1084/1/7 1085/1/7 503/1/7 501/1/7
f 1085/1/8 1084/1/8 502/1/8 504/1/8
f 1085/1/9 1086/1/9 497/1/9 503/1/9
f 1086/1/10 1085/1/10 504/1/10 498/1/10
f 1086/1/400 1084/1/400 501/1/400 497/1/400
f 1084/1/401 1086/1/401 498/1/401 502/1/401
f 1087/1/15 1088/1/15 507/1/15 505/1/15
f 1088/1/6 1087/1/6 506/1/6 508/1/6
f 1088/1/1 1089/1/1 509/1/1 507/1/1
f 1089/1/2 1088/1/2 508/1/2 510/1/2
f 1089/1/402 1087/1/402 505/1/402 509/1/402
f 1087/1/403 1089/1/403 510/1/403 506/1/403
f 1090/1/7 1091/1/7 511/1/7 509/1/7
f 1091/1/8 1090/1/8 510/1/8 512/1/8
f 1091/1/9 1092/1/9 505/1/9 511/1/9
f 1092/1/10 1091/1/10 512/1/10 506/1/10
f 1092/1/404 1090/1/404 509/1/404 505/1/404
f 1090/1/405 1092/1/405 506/1/405 510/1/405
f 1093/1/26 1094/1/26 515/1/26 513/1/26
f 1094/1/28 1093/1/28 514/1/28 516/1/28
f 1094/1/406 1095/1/406 517/1/406 515/1/406
f 1095/1/407 1094/1/407 516/1/407 518/1/407
f 1095/1/7 1093/1/7 513/1/7 517/1/7
f 1093/1/15 1095/1/15 518/1/15 514/1/15
f 1096/1/8 1097/1/8 519/1/8 515/1/8
f 1097/1/6 1096/1/6 516/1/6 520/1/6
f 1097/1/27 1098/1/27 517/1/27 519/1/27
f 1098/1/29 1097/1/29 520/1/29 518/1/29
f 1098/1/408 1096/1/408 515/1/408 517/1/408
f 1096/1/409 1098/1/409 518/1/409 516/1/409
f 1099/1/26 1100/1/26 533/1/26 535/1/26
f 1100/1/28 1099/1/28 536/1/28 534/1/28
f 1100/1/8 1101/1/8 529/1/8 533/1/8
f 1101/1/6 1100/1/6 534/1/6 530/1/6
f 1101/1/27 1102/1/27 531/1/27 529/1/27
f 1102/1/29 1101/1/29 530/1/29 532/1/29
f 1102/1/7 1099/1/7 535/1/7 531/1/7
f 1099/1/15 1102/1/15 532/1/15 536/1/15
f 1103/1/410 1104/1/410 471/1/410 465/1/410
f 1104/1/411 1103/1/411 466/1/411 472/1/411
f 1104/1/26 1105/1/26 467/1/26 471/1/26
f 1105/1/28 1104/1/28 472/1/28 468/1/28
f 1105/1/8 1106/1/8 469/1/8 467/1/8
f 1106/1/6 1105/1/6 468/1/6 470/1/6
f 1106/1/27 1103/1/27 465/1/27 469/1/27
f 1103/1/29 1106/1/29 470/1/29 466/1/29
f 1107/1/29 1108/1/29 407/1/29 405/1/29
f 1108/1/27 1107/1/27 406/1/27 408/1/27
f 1108/1/6 1109/1/6 401/1/6 407/1/6
f 1109/1/8 1108/1/8 408/1/8 402/1/8
f 1109/1/28 1110/1/28 403/1/28 401/1/28
f 1110/1/26 1109/1/26 402/1/26 404/1/26
f 1110/1/412 1107/1/412 405/1/412 403/1/412
f 1107/1/413 1110/1/413 404/1/413 406/1/413
f 1111/1/1 1112/1/1 285/1/1 283/1/1
f 1112/1/9 1111/1/9 284/1/9 286/1/9
f 1112/1/28 1113/1/28 269/1/28 285/1/28
f 1113/1/29 1112/1/29 286/1/29 270/1/29
f 1113/1/2 1114/1/2 281/1/2 269/1/2
f 1114/1/10 1113/1/10 270/1/10 282/1/10
f 1114/1/26 1111/1/26 283/1/26 281/1/26
f 1111/1/27 1114/1/27 282/1/27 284/1/27
f 1115/1/29 1116/1/29 293/1/29 289/1/29
f 1116/1/28 1115/1/28 290/1/28 294/1/28
f 1116/1/9 1117/1/9 291/1/9 293/1/9
f 1117/1/1 1116/1/1 294/1/1 292/1/1
f 1117/1/27 1118/1/27 287/1/27 291/1/27
f 1118/1/26 1117/1/26 292/1/26 288/1/26
f 1118/1/10 1115/1/10 289/1/10 287/1/10
f 1115/1/2 1118/1/2 288/1/2 290/1/2
f 1119/1/6 1120/1/6 567/1/6 561/1/6
f 1120/1/15 1119/1/15 562/1/15 568/1/15
f 1120/1/10 1121/1/10 563/1/10 567/1/10
f 1121/1/9 1120/1/9 568/1/9 564/1/9
f 1121/1/8 1122/1/8 565/1/8 563/1/8
f 1122/1/7 1121/1/7 564/1/7 566/1/7
f 1122/1/2 1119/1/2 561/1/2 565/1/2
f 1119/1/1 1122/1/1 566/1/1 562/1/1
f 1123/1/414 1124/1/414 87/1/414 85/1/414
f 1124/1/415 1123/1/415 86/1/415 88/1/415
f 1124/1/416 1125/1/416 79/1/416 87/1/416
f 1125/1/417 1124/1/417 88/1/417 80/1/417
f 1125/1/418 1126/1/418 77/1/418 79/1/418
f 1126/1/419 1125/1/419 80/1/419 78/1/419
f 1126/1/420 1123/1/420 85/1/420 77/1/420
f 1123/1/421 1126/1/421 78/1/421 86/1/421
f 1127/1/422 1128/1/422 583/1/422 581/1/422
f 1128/1/423 1127/1/423 582/1/423 584/1/423
f 1128/1/424 1129/1/424 577/1/424 583/1/424
f 1129/1/425 1128/1/425 584/1/425 578/1/425
f 1129/1/426 1130/1/426 579/1/426 577/1/426
f 1130/1/427 1129/1/427 578/1/427 580/1/427
f 1130/1/428 1127/1/428 581/1/428 579/1/428
f 1127/1/429 1130/1/429 580/1/429 582/1/429
f 1131/1/8 1132/1/8 111/1/8 109/1/8
f 1132/1/6 1131/1/6 110/1/6 112/1/6
f 1132/1/27 1133/1/27 107/1/27 111/1/27
f 1133/1/29 1132/1/29 112/1/29 108/1/29
f 1133/1/7 1134/1/7 101/1/7 107/1/7
f 1134/1/15 1133/1/15 108/1/15 102/1/15
f 1134/1/26 1131/1/26 109/1/26 101/1/26
f 1131/1/28 1134/1/28 102/1/28 110/1/28
f 1135/1/29 1136/1/29 231/1/29 225/1/29
f 1136/1/28 1135/1/28 226/1/28 232/1/28
f 1136/1/9 1137/1/9 229/1/9 231/1/9
f 1137/1/1 1136/1/1 232/1/1 230/1/1
f 1137/1/27 1138/1/27 207/1/27 229/1/27
f 1138/1/26 1137/1/26 230/1/26 208/1/26
f 1138/1/10 1135/1/10 225/1/10 207/1/10
f 1135/1/2 1138/1/2 208/1/2 226/1/2
f 1139/1/10 1140/1/10 599/1/10 595/1/10
f 1140/1/9 1139/1/9 596/1/9 600/1/9
f 1140/1/430 1141/1/430 597/1/430 599/1/430
f 1141/1/7 1140/1/7 600/1/7 598/1/7
f 1141/1/2 1142/1/2 593/1/2 597/1/2
f 1142/1/1 1141/1/1 598/1/1 594/1/1
f 1142/1/431 1139/1/431 595/1/431 593/1/431
f 1139/1/15 1142/1/15 594/1/15 596/1/15
