# Blender 5.2.2 LTS
# www.blender.org
mtllib RenderMesh_12613283355.mtl
o RenderMesh_12613283355
v -0.024709 -0.024709 0.070033
v -0.024709 -0.024709 0.071533
v 0.000001 0.034944 0.070033
v 0.000001 0.034944 0.071533
v -0.034944 0.000001 0.070033
v -0.034944 0.000001 0.071533
v -0.024709 0.024710 0.070033
v -0.024709 0.024710 0.071533
v 0.024708 -0.024709 0.070033
v 0.024708 -0.024709 0.071533
v 0.000001 -0.034943 0.070033
v 0.000001 -0.034943 0.071533
v 0.034943 0.000001 0.070033
v 0.034943 0.000001 0.071533
v 0.024708 0.024710 0.070033
v 0.024708 0.024710 0.071533
v 0.000001 -0.020957 -0.012484
v 0.000001 -0.020957 -0.013984
v 0.024708 -0.024709 -0.012484
v 0.024708 -0.024709 -0.013984
v 0.000001 -0.034943 -0.012484
v 0.000001 -0.034943 -0.013984
v -0.024709 -0.024709 -0.012484
v -0.024709 -0.024709 -0.013984
v 0.014820 -0.014818 -0.012484
v 0.014820 -0.014818 -0.013984
v -0.014820 -0.014818 -0.012484
v -0.014820 -0.014818 -0.013984
v 0.034943 0.000001 -0.012484
v 0.034943 0.000001 -0.013984
v -0.034944 0.000001 -0.012484
v -0.034944 0.000001 -0.013984
v 0.020957 0.000001 -0.012484
v 0.020957 0.000001 -0.013984
v -0.020957 0.000001 -0.012484
v -0.020957 0.000001 -0.013984
v 0.014820 0.014820 -0.012484
v 0.014820 0.014820 -0.013984
v -0.014820 0.014820 -0.012484
v -0.014820 0.014820 -0.013984
v 0.024708 0.024710 -0.012484
v 0.024708 0.024710 -0.013984
v -0.024709 0.024710 -0.012484
v -0.024709 0.024710 -0.013984
v 0.000001 0.020958 -0.012484
v 0.000001 0.020958 -0.013984
v 0.000001 0.034944 -0.012484
v 0.000001 0.034944 -0.013984
v 0.000001 0.034944 -0.012484
v 0.000001 0.036444 -0.012484
v 0.000001 0.034944 0.070033
v 0.000001 0.036444 0.070033
v 0.024708 0.024710 -0.012484
v 0.025769 0.025771 -0.012484
v 0.024708 0.024710 0.070033
v 0.025769 0.025771 0.070033
v -0.024709 0.024710 0.070033
v -0.025770 0.025771 0.070033
v 0.034943 0.000001 -0.012484
v 0.036443 0.000001 -0.012484
v -0.024709 0.024710 -0.012484
v -0.025770 0.025771 -0.012484
v 0.034943 0.000001 0.070033
v 0.036443 0.000001 0.070033
v -0.034944 0.000001 0.070033
v -0.036444 0.000001 0.070033
v 0.024708 -0.024709 -0.012484
v 0.025769 -0.025770 -0.012484
v -0.034944 0.000001 -0.012484
v -0.036444 0.000001 -0.012484
v 0.024708 -0.024709 0.070033
v 0.025769 -0.025770 0.070033
v -0.024709 -0.024709 0.070033
v -0.025770 -0.025770 0.070033
v 0.000001 -0.034943 -0.012484
v 0.000001 -0.036443 -0.012484
v -0.024709 -0.024709 -0.012484
v -0.025770 -0.025770 -0.012484
v 0.000001 -0.034943 0.070033
v 0.000001 -0.036443 0.070033
v -0.020957 0.000001 -0.070033
v -0.022457 0.000001 -0.070033
v -0.014820 0.014820 -0.012484
v -0.015881 0.015881 -0.012484
v -0.014820 0.014820 -0.070033
v -0.015881 0.015881 -0.070033
v -0.000001 0.020958 -0.070033
v -0.000001 0.022458 -0.070033
v -0.020957 0.000001 -0.012484
v -0.022457 0.000001 -0.012484
v 0.000001 0.020958 -0.012484
v 0.000001 0.022458 -0.012484
v -0.014820 -0.014818 -0.070033
v -0.015881 -0.015879 -0.070033
v 0.014820 0.014820 -0.070033
v 0.015881 0.015881 -0.070033
v -0.014820 -0.014818 -0.012484
v -0.015881 -0.015879 -0.012484
v 0.014820 0.014820 -0.012484
v 0.015881 0.015881 -0.012484
v -0.000001 -0.020957 -0.070033
v -0.000001 -0.022457 -0.070033
v 0.020957 0.000001 -0.012484
v 0.022457 0.000001 -0.012484
v 0.000001 -0.020957 -0.012484
v 0.000001 -0.022457 -0.012484
v 0.020957 0.000001 -0.070033
v 0.022457 0.000001 -0.070033
v 0.014820 -0.014818 -0.070033
v 0.015881 -0.015879 -0.070033
v 0.014820 -0.014818 -0.012484
v 0.015881 -0.015879 -0.012484
v -0.024709 -0.022749 0.070783
v -0.002135 0.031748 0.070783
v -0.034059 -0.000175 0.070783
v -0.032808 0.003197 0.070783
v -0.003195 0.032808 0.070783
v -0.024135 0.024136 0.070783
v 0.000001 0.032984 0.070783
v -0.023587 -0.023959 0.070783
v 0.023586 -0.023959 0.070783
v 0.020938 -0.025459 0.070783
v -0.020938 -0.025459 0.070783
v 0.000001 -0.034131 0.070783
v 0.002137 0.031748 0.070783
v 0.024708 -0.022749 0.070783
v 0.034058 -0.000175 0.070783
v 0.003197 0.032808 0.070783
v 0.032807 0.003198 0.070783
v 0.024134 0.024136 0.070783
v 0.000751 -0.021829 -0.013234
v 0.021934 -0.025046 -0.013234
v 0.000751 -0.033821 -0.013234
v -0.021935 -0.025046 -0.013234
v -0.000749 -0.021829 -0.013234
v -0.000749 -0.033821 -0.013234
v 0.022564 -0.023625 -0.013234
v 0.002775 -0.020620 -0.013234
v 0.014644 -0.015703 -0.013234
v -0.002773 -0.020620 -0.013234
v -0.022564 -0.023625 -0.013234
v -0.014644 -0.015703 -0.013234
v 0.015967 -0.014905 -0.013234
v 0.033220 -0.002199 -0.013234
v 0.024445 -0.023385 -0.013234
v -0.024446 -0.023385 -0.013234
v -0.033221 -0.002199 -0.013234
v -0.015967 -0.014905 -0.013234
v 0.032660 -0.000749 -0.013234
v 0.016543 -0.012618 -0.013234
v 0.021458 -0.000749 -0.013234
v -0.016543 -0.012618 -0.013234
v -0.032661 -0.000749 -0.013234
v -0.021458 -0.000749 -0.013234
v 0.016543 0.012620 -0.013234
v 0.032660 0.000751 -0.013234
v 0.021458 0.000751 -0.013234
v -0.032661 0.000751 -0.013234
v -0.016543 0.012620 -0.013234
v -0.021458 0.000751 -0.013234
v 0.033220 0.002201 -0.013234
v 0.015967 0.014907 -0.013234
v 0.024445 0.023386 -0.013234
v -0.015967 0.014907 -0.013234
v -0.033221 0.002201 -0.013234
v -0.024446 0.023386 -0.013234
v 0.002775 0.020621 -0.013234
v 0.022563 0.023626 -0.013234
v 0.014644 0.015705 -0.013234
v -0.022564 0.023626 -0.013234
v -0.002774 0.020621 -0.013234
v -0.014644 0.015705 -0.013234
v 0.000751 0.033822 -0.013234
v 0.021934 0.025047 -0.013234
v 0.000751 0.021830 -0.013234
v -0.000749 0.021830 -0.013234
v -0.021935 0.025047 -0.013234
v -0.000749 0.033822 -0.013234
v 0.024545 -0.025526 0.069283
v 0.000694 -0.035406 0.069283
v 0.000694 -0.035406 -0.011734
v 0.024545 -0.025526 -0.011734
v 0.000694 0.035407 0.069283
v 0.024545 0.025527 0.069283
v 0.024545 0.025527 -0.011734
v 0.000694 0.035407 -0.011734
v 0.015637 -0.014655 -0.013234
v 0.015637 -0.014655 -0.069283
v 0.021420 -0.000692 -0.069283
v 0.021420 -0.000692 -0.013234
v -0.024546 0.025527 -0.011734
v -0.024546 0.025527 0.069283
v -0.000692 0.035407 0.069283
v -0.000692 0.035407 -0.011734
v 0.025525 0.024547 0.069283
v 0.035406 0.000694 0.069283
v 0.035406 0.000694 -0.011734
v 0.025525 0.024547 -0.011734
v -0.000692 -0.035406 -0.011734
v -0.000692 -0.035406 0.069283
v -0.024546 -0.025526 0.069283
v -0.024546 -0.025526 -0.011734
v 0.035406 -0.000692 0.069283
v 0.025525 -0.024546 0.069283
v 0.025525 -0.024546 -0.011734
v 0.035406 -0.000692 -0.011734
v -0.014657 0.015637 -0.013234
v -0.000692 0.021421 -0.013234
v -0.000694 0.021421 -0.069283
v -0.014657 0.015637 -0.069283
v -0.025526 -0.024546 -0.011734
v -0.025526 -0.024546 0.069283
v -0.035407 -0.000692 0.069283
v -0.035407 -0.000692 -0.011734
v -0.000694 -0.021420 -0.069283
v -0.000692 -0.021420 -0.013234
v -0.014657 -0.015635 -0.013234
v -0.014657 -0.015635 -0.069283
v -0.021420 0.000694 -0.069283
v -0.021420 0.000694 -0.013234
v -0.015637 0.014657 -0.013234
v -0.015637 0.014657 -0.069283
v 0.014657 -0.015635 -0.069283
v 0.014657 -0.015635 -0.013234
v 0.000694 -0.021420 -0.013234
v 0.000692 -0.021420 -0.069283
v 0.000694 0.021421 -0.013234
v 0.014657 0.015637 -0.013234
v 0.014657 0.015637 -0.069283
v 0.000692 0.021421 -0.069283
v 0.021420 0.000694 -0.013234
v 0.021420 0.000694 -0.069283
v 0.015637 0.014657 -0.069283
v 0.015637 0.014657 -0.013234
v -0.035407 0.000694 -0.011734
v -0.035407 0.000694 0.069283
v -0.025526 0.024547 0.069283
v -0.025526 0.024547 -0.011734
v -0.015637 -0.014655 -0.069283
v -0.015637 -0.014655 -0.013234
v -0.021420 -0.000692 -0.013234
v -0.021420 -0.000692 -0.069283
vn -0.6533 0.2706 -0.7071
vn -0.6533 0.2706 0.7071
vn 0.5000 -0.5000 -0.7071
vn 0.5000 -0.5000 0.7071
vn 0.6533 0.2706 -0.7071
vn 0.6533 0.2706 0.7071
vn -0.5000 0.5000 -0.7071
vn -0.5000 0.5000 0.7071
vn 0.2706 -0.6533 -0.7071
vn 0.2706 -0.6533 0.7071
vn 0.6533 -0.2706 -0.7071
vn 0.6533 -0.2706 0.7071
vn -0.0000 0.7071 -0.7071
vn -0.0000 0.7071 0.7071
vn -0.6533 -0.2706 -0.7071
vn -0.6533 -0.2706 0.7071
vn -0.0000 -0.7071 -0.7071
vn -0.0000 -0.7071 0.7071
vn 0.2706 0.6533 -0.7071
vn 0.2706 0.6533 0.7071
vn -0.2706 0.6533 -0.7071
vn -0.2706 0.6533 0.7071
vn -0.5000 -0.5000 -0.7071
vn -0.5000 -0.5000 0.7071
vn 0.5000 0.5000 -0.7071
vn 0.5000 0.5000 0.7071
vn -0.2706 -0.6533 -0.7071
vn -0.2706 -0.6533 0.7071
vn -0.1062 -0.6991 0.7071
vn -0.1062 -0.6991 -0.7071
vn 0.7071 -0.0000 0.7071
vn 0.7071 -0.0000 -0.7071
vn 0.1062 -0.6991 0.7071
vn 0.1062 -0.6991 -0.7071
vn -0.7071 -0.0000 0.7071
vn -0.7071 -0.0000 -0.7071
vn 0.1062 0.6991 0.7071
vn 0.1062 0.6991 -0.7071
vn -0.5001 -0.4999 0.7071
vn -0.5001 -0.4999 -0.7071
vn -0.1062 0.6991 0.7071
vn -0.1062 0.6991 -0.7071
vn 0.5001 -0.4999 0.7071
vn 0.5001 -0.4999 -0.7071
vn 0.4193 -0.5694 0.7071
vn 0.4193 -0.5694 -0.7071
vn 0.5001 0.4999 0.7071
vn 0.5001 0.4999 -0.7071
vn -0.4193 -0.5694 0.7071
vn -0.4193 -0.5694 -0.7071
vn -0.5001 0.4999 0.7071
vn -0.5001 0.4999 -0.7071
vn -0.4193 0.5694 0.7071
vn -0.4193 0.5694 -0.7071
vn 0.4193 0.5694 0.7071
vn 0.4193 0.5694 -0.7071
vn -0.2811 0.6786 -0.6786
vn 0.2811 -0.6786 -0.6786
vn 0.5556 0.8315 -0.0000
vn 0.8315 -0.5556 -0.0000
vn -0.2811 0.6786 0.6786
vn 0.2811 -0.6786 0.6786
vn -0.9808 0.1951 -0.0000
vn -0.1951 -0.9808 -0.0000
vn -0.2811 -0.6786 -0.6786
vn 0.2811 0.6786 -0.6786
vn -0.9808 -0.1951 -0.0000
vn -0.1951 0.9808 -0.0000
vn -0.2811 -0.6786 0.6786
vn 0.2811 0.6786 0.6786
vn 0.5556 -0.8315 -0.0000
vn 0.8315 0.5556 -0.0000
vn 0.9808 0.1951 -0.0000
vn -0.6786 0.2810 0.6786
vn 0.6786 -0.2810 0.6786
vn -0.8315 -0.5556 -0.0000
vn 0.5556 -0.8314 -0.0000
vn -0.6786 0.2810 -0.6786
vn 0.6786 -0.2810 -0.6786
vn 0.9808 -0.1951 -0.0000
vn 0.1951 0.9808 -0.0000
vn -0.5556 -0.8315 -0.0000
vn -0.8315 0.5556 -0.0000
vn -0.6786 -0.2811 -0.6786
vn 0.6786 0.2811 -0.6786
vn -0.6786 -0.2811 0.6786
vn 0.6786 0.2811 0.6786
vn -0.5556 0.8315 -0.0000
vn 0.1951 -0.9808 -0.0000
vn -0.6786 0.2811 -0.6786
vn 0.6786 -0.2811 -0.6786
vn -0.6786 0.2811 0.6786
vn 0.6786 -0.2811 0.6786
vn 0.2810 -0.6786 -0.6786
vn -0.2810 0.6786 -0.6786
vn -0.5556 0.8314 -0.0000
vn -0.2810 -0.6786 0.6786
vn 0.2810 0.6786 0.6786
vn 0.5556 0.8314 -0.0000
vn -0.6786 -0.2810 0.6786
vn 0.6786 0.2810 0.6786
vn -0.6786 -0.2810 -0.6786
vn 0.6786 0.2810 -0.6786
vn -0.5556 -0.8314 -0.0000
vt 0.000000 0.000000
s 0
f 113/1/1 114/1/1 3/1/1 1/1/1
f 114/1/2 113/1/2 2/1/2 4/1/2
f 114/1/3 115/1/3 5/1/3 3/1/3
f 115/1/4 114/1/4 4/1/4 6/1/4
f 115/1/5 113/1/5 1/1/5 5/1/5
f 113/1/6 115/1/6 6/1/6 2/1/6
f 116/1/7 117/1/7 3/1/7 5/1/7
f 117/1/8 116/1/8 6/1/8 4/1/8
f 117/1/9 118/1/9 7/1/9 3/1/9
f 118/1/10 117/1/10 4/1/10 8/1/10
f 118/1/11 116/1/11 5/1/11 7/1/11
f 116/1/12 118/1/12 8/1/12 6/1/12
f 119/1/11 120/1/11 1/1/11 3/1/11
f 120/1/12 119/1/12 4/1/12 2/1/12
f 120/1/13 121/1/13 9/1/13 1/1/13
f 121/1/14 120/1/14 2/1/14 10/1/14
f 121/1/15 119/1/15 3/1/15 9/1/15
f 119/1/16 121/1/16 10/1/16 4/1/16
f 122/1/17 123/1/17 1/1/17 9/1/17
f 123/1/18 122/1/18 10/1/18 2/1/18
f 123/1/19 124/1/19 11/1/19 1/1/19
f 124/1/20 123/1/20 2/1/20 12/1/20
f 124/1/21 122/1/21 9/1/21 11/1/21
f 122/1/22 124/1/22 12/1/22 10/1/22
f 125/1/5 126/1/5 9/1/5 3/1/5
f 126/1/6 125/1/6 4/1/6 10/1/6
f 126/1/1 127/1/1 13/1/1 9/1/1
f 127/1/2 126/1/2 10/1/2 14/1/2
f 127/1/23 125/1/23 3/1/23 13/1/23
f 125/1/24 127/1/24 14/1/24 4/1/24
f 128/1/25 129/1/25 13/1/25 3/1/25
f 129/1/26 128/1/26 4/1/26 14/1/26
f 129/1/15 130/1/15 15/1/15 13/1/15
f 130/1/16 129/1/16 14/1/16 16/1/16
f 130/1/27 128/1/27 3/1/27 15/1/27
f 128/1/28 130/1/28 16/1/28 4/1/28
f 131/1/29 132/1/29 19/1/29 17/1/29
f 132/1/30 131/1/30 18/1/30 20/1/30
f 132/1/22 133/1/22 21/1/22 19/1/22
f 133/1/21 132/1/21 20/1/21 22/1/21
f 133/1/31 131/1/31 17/1/31 21/1/31
f 131/1/32 133/1/32 22/1/32 18/1/32
f 134/1/33 135/1/33 17/1/33 23/1/33
f 135/1/34 134/1/34 24/1/34 18/1/34
f 135/1/35 136/1/35 21/1/35 17/1/35
f 136/1/36 135/1/36 18/1/36 22/1/36
f 136/1/20 134/1/20 23/1/20 21/1/20
f 134/1/19 136/1/19 22/1/19 24/1/19
f 137/1/37 138/1/37 17/1/37 19/1/37
f 138/1/38 137/1/38 20/1/38 18/1/38
f 138/1/10 139/1/10 25/1/10 17/1/10
f 139/1/9 138/1/9 18/1/9 26/1/9
f 139/1/39 137/1/39 19/1/39 25/1/39
f 137/1/40 139/1/40 26/1/40 20/1/40
f 140/1/41 141/1/41 23/1/41 17/1/41
f 141/1/42 140/1/42 18/1/42 24/1/42
f 141/1/43 142/1/43 27/1/43 23/1/43
f 142/1/44 141/1/44 24/1/44 28/1/44
f 142/1/28 140/1/28 17/1/28 27/1/28
f 140/1/27 142/1/27 28/1/27 18/1/27
f 143/1/45 144/1/45 29/1/45 25/1/45
f 144/1/46 143/1/46 26/1/46 30/1/46
f 144/1/2 145/1/2 19/1/2 29/1/2
f 145/1/1 144/1/1 30/1/1 20/1/1
f 145/1/47 143/1/47 25/1/47 19/1/47
f 143/1/48 145/1/48 20/1/48 26/1/48
f 146/1/6 147/1/6 31/1/6 23/1/6
f 147/1/5 146/1/5 24/1/5 32/1/5
f 147/1/49 148/1/49 27/1/49 31/1/49
f 148/1/50 147/1/50 32/1/50 28/1/50
f 148/1/51 146/1/51 23/1/51 27/1/51
f 146/1/52 148/1/52 28/1/52 24/1/52
f 149/1/53 150/1/53 25/1/53 29/1/53
f 150/1/54 149/1/54 30/1/54 26/1/54
f 150/1/12 151/1/12 33/1/12 25/1/12
f 151/1/11 150/1/11 26/1/11 34/1/11
f 151/1/18 149/1/18 29/1/18 33/1/18
f 149/1/17 151/1/17 34/1/17 30/1/17
f 152/1/55 153/1/55 31/1/55 27/1/55
f 153/1/56 152/1/56 28/1/56 32/1/56
f 153/1/18 154/1/18 35/1/18 31/1/18
f 154/1/17 153/1/17 32/1/17 36/1/17
f 154/1/16 152/1/16 27/1/16 35/1/16
f 152/1/15 154/1/15 36/1/15 28/1/15
f 155/1/49 156/1/49 29/1/49 37/1/49
f 156/1/50 155/1/50 38/1/50 30/1/50
f 156/1/14 157/1/14 33/1/14 29/1/14
f 157/1/13 156/1/13 30/1/13 34/1/13
f 157/1/6 155/1/6 37/1/6 33/1/6
f 155/1/5 157/1/5 34/1/5 38/1/5
f 158/1/45 159/1/45 39/1/45 31/1/45
f 159/1/46 158/1/46 32/1/46 40/1/46
f 159/1/2 160/1/2 35/1/2 39/1/2
f 160/1/1 159/1/1 40/1/1 36/1/1
f 160/1/14 158/1/14 31/1/14 35/1/14
f 158/1/13 160/1/13 36/1/13 32/1/13
f 161/1/55 162/1/55 37/1/55 29/1/55
f 162/1/56 161/1/56 30/1/56 38/1/56
f 162/1/43 163/1/43 41/1/43 37/1/43
f 163/1/44 162/1/44 38/1/44 42/1/44
f 163/1/16 161/1/16 29/1/16 41/1/16
f 161/1/15 163/1/15 42/1/15 30/1/15
f 164/1/53 165/1/53 31/1/53 39/1/53
f 165/1/54 164/1/54 40/1/54 32/1/54
f 165/1/12 166/1/12 43/1/12 31/1/12
f 166/1/11 165/1/11 32/1/11 44/1/11
f 166/1/24 164/1/24 39/1/24 43/1/24
f 164/1/23 166/1/23 44/1/23 40/1/23
f 167/1/33 168/1/33 41/1/33 45/1/33
f 168/1/34 167/1/34 46/1/34 42/1/34
f 168/1/51 169/1/51 37/1/51 41/1/51
f 169/1/52 168/1/52 42/1/52 38/1/52
f 169/1/20 167/1/20 45/1/20 37/1/20
f 167/1/19 169/1/19 38/1/19 46/1/19
f 170/1/29 171/1/29 45/1/29 43/1/29
f 171/1/30 170/1/30 44/1/30 46/1/30
f 171/1/22 172/1/22 39/1/22 45/1/22
f 172/1/21 171/1/21 46/1/21 40/1/21
f 172/1/26 170/1/26 43/1/26 39/1/26
f 170/1/25 172/1/25 40/1/25 44/1/25
f 173/1/28 174/1/28 41/1/28 47/1/28
f 174/1/27 173/1/27 48/1/27 42/1/27
f 174/1/41 175/1/41 45/1/41 41/1/41
f 175/1/42 174/1/42 42/1/42 46/1/42
f 175/1/31 173/1/31 47/1/31 45/1/31
f 173/1/32 175/1/32 46/1/32 48/1/32
f 176/1/37 177/1/37 43/1/37 45/1/37
f 177/1/38 176/1/38 46/1/38 44/1/38
f 177/1/10 178/1/10 47/1/10 43/1/10
f 178/1/9 177/1/9 44/1/9 48/1/9
f 178/1/35 176/1/35 45/1/35 47/1/35
f 176/1/36 178/1/36 48/1/36 46/1/36
f 179/1/57 180/1/57 79/1/57 71/1/57
f 180/1/58 179/1/58 72/1/58 80/1/58
f 180/1/59 181/1/59 75/1/59 79/1/59
f 181/1/60 180/1/60 80/1/60 76/1/60
f 181/1/61 182/1/61 67/1/61 75/1/61
f 182/1/62 181/1/62 76/1/62 68/1/62
f 182/1/63 179/1/63 71/1/63 67/1/63
f 179/1/64 182/1/64 68/1/64 72/1/64
f 183/1/65 184/1/65 55/1/65 51/1/65
f 184/1/66 183/1/66 52/1/66 56/1/66
f 184/1/67 185/1/67 53/1/67 55/1/67
f 185/1/68 184/1/68 56/1/68 54/1/68
f 185/1/69 186/1/69 49/1/69 53/1/69
f 186/1/70 185/1/70 54/1/70 50/1/70
f 186/1/71 183/1/71 51/1/71 49/1/71
f 183/1/72 186/1/72 50/1/72 52/1/72
f 187/1/68 188/1/68 109/1/68 111/1/68
f 188/1/73 187/1/73 112/1/73 110/1/73
f 188/1/74 189/1/74 107/1/74 109/1/74
f 189/1/75 188/1/75 110/1/75 108/1/75
f 189/1/76 190/1/76 103/1/76 107/1/76
f 190/1/77 189/1/77 108/1/77 104/1/77
f 190/1/78 187/1/78 111/1/78 103/1/78
f 187/1/79 190/1/79 104/1/79 112/1/79
f 191/1/80 192/1/80 57/1/80 61/1/80
f 192/1/81 191/1/81 62/1/81 58/1/81
f 192/1/58 193/1/58 51/1/58 57/1/58
f 193/1/57 192/1/57 58/1/57 52/1/57
f 193/1/82 194/1/82 49/1/82 51/1/82
f 194/1/83 193/1/83 52/1/83 50/1/83
f 194/1/62 191/1/62 61/1/62 49/1/62
f 191/1/61 194/1/61 50/1/61 62/1/61
f 195/1/84 196/1/84 63/1/84 55/1/84
f 196/1/85 195/1/85 56/1/85 64/1/85
f 196/1/83 197/1/83 59/1/83 63/1/83
f 197/1/59 196/1/59 64/1/59 60/1/59
f 197/1/86 198/1/86 53/1/86 59/1/86
f 198/1/87 197/1/87 60/1/87 54/1/87
f 198/1/64 195/1/64 55/1/64 53/1/64
f 195/1/80 198/1/80 54/1/80 56/1/80
f 199/1/88 200/1/88 79/1/88 75/1/88
f 200/1/76 199/1/76 76/1/76 80/1/76
f 200/1/66 201/1/66 73/1/66 79/1/66
f 201/1/65 200/1/65 80/1/65 74/1/65
f 201/1/73 202/1/73 77/1/73 73/1/73
f 202/1/89 201/1/89 74/1/89 78/1/89
f 202/1/70 199/1/70 75/1/70 77/1/70
f 199/1/69 202/1/69 78/1/69 76/1/69
f 203/1/90 204/1/90 71/1/90 63/1/90
f 204/1/91 203/1/91 64/1/91 72/1/91
f 204/1/68 205/1/68 67/1/68 71/1/68
f 205/1/73 204/1/73 72/1/73 68/1/73
f 205/1/92 206/1/92 59/1/92 67/1/92
f 206/1/93 205/1/93 68/1/93 60/1/93
f 206/1/76 203/1/76 63/1/76 59/1/76
f 203/1/71 206/1/71 60/1/71 64/1/71
f 207/1/94 208/1/94 91/1/94 83/1/94
f 208/1/95 207/1/95 84/1/95 92/1/95
f 208/1/82 209/1/82 87/1/82 91/1/82
f 209/1/83 208/1/83 92/1/83 88/1/83
f 209/1/62 210/1/62 85/1/62 87/1/62
f 210/1/61 209/1/61 88/1/61 86/1/61
f 210/1/80 207/1/80 83/1/80 85/1/80
f 207/1/81 210/1/81 86/1/81 84/1/81
f 211/1/81 212/1/81 73/1/81 77/1/81
f 212/1/63 211/1/63 78/1/63 74/1/63
f 212/1/85 213/1/85 65/1/85 73/1/85
f 213/1/84 212/1/84 74/1/84 66/1/84
f 213/1/60 214/1/60 69/1/60 65/1/60
f 214/1/82 213/1/82 66/1/82 70/1/82
f 214/1/87 211/1/87 77/1/87 69/1/87
f 211/1/86 214/1/86 70/1/86 78/1/86
f 215/1/88 216/1/88 105/1/88 101/1/88
f 216/1/76 215/1/76 102/1/76 106/1/76
f 216/1/66 217/1/66 97/1/66 105/1/66
f 217/1/65 216/1/65 106/1/65 98/1/65
f 217/1/73 218/1/73 93/1/73 97/1/73
f 218/1/89 217/1/89 98/1/89 94/1/89
f 218/1/70 215/1/70 101/1/70 93/1/70
f 215/1/69 218/1/69 94/1/69 102/1/69
f 219/1/72 220/1/72 89/1/72 81/1/72
f 220/1/96 219/1/96 82/1/96 90/1/96
f 220/1/79 221/1/79 83/1/79 89/1/79
f 221/1/78 220/1/78 90/1/78 84/1/78
f 221/1/89 222/1/89 85/1/89 83/1/89
f 222/1/67 221/1/67 84/1/67 86/1/67
f 222/1/75 219/1/75 81/1/75 85/1/75
f 219/1/74 222/1/74 86/1/74 82/1/74
f 223/1/63 224/1/63 111/1/63 109/1/63
f 224/1/64 223/1/64 110/1/64 112/1/64
f 224/1/57 225/1/57 105/1/57 111/1/57
f 225/1/58 224/1/58 112/1/58 106/1/58
f 225/1/59 226/1/59 101/1/59 105/1/59
f 226/1/60 225/1/60 106/1/60 102/1/60
f 226/1/61 223/1/61 109/1/61 101/1/61
f 223/1/62 226/1/62 102/1/62 110/1/62
f 227/1/65 228/1/65 99/1/65 91/1/65
f 228/1/66 227/1/66 92/1/66 100/1/66
f 228/1/67 229/1/67 95/1/67 99/1/67
f 229/1/68 228/1/68 100/1/68 96/1/68
f 229/1/97 230/1/97 87/1/97 95/1/97
f 230/1/98 229/1/98 96/1/98 88/1/98
f 230/1/71 227/1/71 91/1/71 87/1/71
f 227/1/72 230/1/72 88/1/72 92/1/72
f 231/1/83 232/1/83 107/1/83 103/1/83
f 232/1/99 231/1/99 104/1/99 108/1/99
f 232/1/100 233/1/100 95/1/100 107/1/100
f 233/1/101 232/1/101 108/1/101 96/1/101
f 233/1/64 234/1/64 99/1/64 95/1/64
f 234/1/80 233/1/80 96/1/80 100/1/80
f 234/1/102 231/1/102 103/1/102 99/1/102
f 231/1/103 234/1/103 100/1/103 104/1/103
f 235/1/72 236/1/72 65/1/72 69/1/72
f 236/1/88 235/1/88 70/1/88 66/1/88
f 236/1/91 237/1/91 57/1/91 65/1/91
f 237/1/90 236/1/90 66/1/90 58/1/90
f 237/1/89 238/1/89 61/1/89 57/1/89
f 238/1/67 237/1/67 58/1/67 62/1/67
f 238/1/93 235/1/93 69/1/93 61/1/93
f 235/1/92 238/1/92 62/1/92 70/1/92
f 239/1/81 240/1/81 97/1/81 93/1/81
f 240/1/63 239/1/63 94/1/63 98/1/63
f 240/1/103 241/1/103 89/1/103 97/1/103
f 241/1/102 240/1/102 98/1/102 90/1/102
f 241/1/60 242/1/60 81/1/60 89/1/60
f 242/1/104 241/1/104 90/1/104 82/1/104
f 242/1/101 239/1/101 93/1/101 81/1/101
f 239/1/100 242/1/100 82/1/100 94/1/100
