# Blender 5.2.2 LTS
# www.blender.org
mtllib RenderMesh_12613284036.mtl
o RenderMesh_12613284036
v -0.414839 0.283985 0.105342
v -0.416339 0.283985 0.105342
v -0.414839 0.283985 -0.105342
v -0.416339 0.283985 -0.105342
v -0.414839 0.191228 -0.105342
v -0.416339 0.191228 -0.105342
v -0.414839 0.191228 0.105342
v -0.416339 0.191228 0.105342
v -0.374839 0.071228 -0.105342
v -0.376339 0.071228 -0.105342
v -0.374839 0.071228 0.105342
v -0.376339 0.071228 0.105342
v -0.374839 0.161228 -0.105342
v -0.376339 0.161228 -0.105342
v -0.374839 0.161228 0.105342
v -0.376339 0.161228 0.105342
v 0.167977 -0.283985 -0.096575
v 0.168322 -0.285445 -0.096575
v 0.414839 -0.225590 -0.096575
v 0.415184 -0.227050 -0.096575
v 0.167977 -0.283985 0.096575
v 0.168322 -0.285445 0.096575
v 0.414839 -0.225590 0.096575
v 0.415184 -0.227050 0.096575
v -0.414839 0.283985 0.105342
v -0.414839 0.285046 0.106403
v 0.412383 0.283985 0.105342
v 0.412383 0.285046 0.106403
v -0.414839 0.283985 -0.105342
v -0.414839 0.285485 -0.105342
v 0.412383 0.283985 -0.105342
v 0.412383 0.285485 -0.105342
v 0.316551 0.189913 -0.096575
v 0.318011 0.190258 -0.096575
v 0.398017 -0.154478 0.096575
v 0.399049 -0.154234 0.097636
v 0.398017 -0.154478 -0.096575
v 0.399477 -0.154133 -0.096575
v 0.316551 0.189913 0.096575
v 0.317583 0.190157 0.097636
v 0.403624 -0.178182 -0.096575
v 0.405084 -0.177837 -0.096575
v 0.403624 -0.178182 0.096575
v 0.404656 -0.177938 0.097636
v 0.414839 -0.225590 -0.096575
v 0.416299 -0.225245 -0.096575
v 0.414839 -0.225590 0.096575
v 0.415871 -0.225346 0.097636
v -0.374839 0.161228 -0.105342
v -0.375739 0.160028 -0.105342
v -0.374839 0.161228 0.105342
v -0.375739 0.160028 0.105342
v -0.414839 0.191228 -0.105342
v -0.415739 0.190028 -0.105342
v -0.414839 0.191228 0.105342
v -0.415739 0.190028 0.105342
v -0.038469 0.022546 -0.105342
v -0.038469 0.022546 -0.106842
v -0.374839 0.071228 -0.105342
v -0.374839 0.071228 -0.106842
v -0.033102 0.111228 -0.105342
v -0.033102 0.111228 -0.106842
v -0.374839 0.161228 -0.105342
v -0.374839 0.161228 -0.106842
v -0.414839 0.283985 -0.105342
v -0.414839 0.283985 -0.106842
v -0.414839 0.191228 -0.105342
v -0.414839 0.191228 -0.106842
v 0.412383 0.283985 -0.105342
v 0.412383 0.283985 -0.106842
v 0.358635 0.161228 -0.105342
v 0.358635 0.161228 -0.106842
v 0.338635 0.111228 -0.105342
v 0.338635 0.111228 -0.106842
v 0.412383 0.181228 -0.105342
v 0.412383 0.181228 -0.106842
v 0.358635 0.161228 0.105342
v 0.358635 0.161228 0.106842
v -0.033102 0.111228 0.105342
v -0.032623 0.111199 0.106763
v 0.338635 0.111228 0.105342
v 0.338635 0.111228 0.106842
v 0.412383 0.181228 0.105342
v 0.412383 0.181228 0.106842
v -0.374839 0.161228 0.105342
v -0.374839 0.161228 0.106842
v -0.414839 0.191228 0.105342
v -0.414839 0.191228 0.106842
v -0.374839 0.071228 0.105342
v -0.374839 0.071228 0.106842
v -0.038469 0.022546 0.105342
v -0.037382 0.022480 0.106373
v 0.398017 -0.154478 -0.096575
v 0.398017 -0.154478 -0.098075
v 0.093393 0.137125 -0.096575
v 0.093393 0.137125 -0.098075
v 0.316551 0.189913 -0.096575
v 0.316551 0.189913 -0.098075
v 0.174859 -0.207267 -0.096575
v 0.174859 -0.207267 -0.098075
v 0.403624 -0.178182 -0.096575
v 0.403624 -0.178182 -0.098075
v 0.156763 -0.236578 -0.096575
v 0.156763 -0.236578 -0.098075
v 0.414839 -0.225590 -0.096575
v 0.414839 -0.225590 -0.098075
v 0.167977 -0.283985 -0.096575
v 0.167977 -0.283985 -0.098075
v 0.093393 0.137125 0.096575
v 0.093393 0.137125 0.098075
v 0.174859 -0.207267 0.096575
v 0.174385 -0.206974 0.097968
v 0.156763 -0.236578 0.096575
v 0.156055 -0.236141 0.097823
v 0.167977 -0.283985 0.096575
v 0.167977 -0.283985 0.098075
v 0.358635 0.161228 -0.105342
v 0.359683 0.160155 -0.105342
v 0.358635 0.161228 0.105342
v 0.359683 0.160155 0.105342
v 0.338635 0.111228 -0.105342
v 0.340028 0.110671 -0.105342
v 0.338635 0.111228 0.105342
v 0.340028 0.110671 0.105342
v 0.412383 0.181228 0.105342
v 0.412906 0.179822 0.105342
v 0.412383 0.181228 -0.105342
v 0.412906 0.179822 -0.105342
v -0.038469 0.022546 -0.105342
v -0.038684 0.021061 -0.105342
v -0.374839 0.071228 0.105342
v -0.375054 0.069743 0.105342
v -0.374839 0.071228 -0.105342
v -0.375054 0.069743 -0.105342
v -0.038469 0.022546 0.105342
v -0.038684 0.021061 0.105342
v 0.167977 -0.283985 0.096575
v 0.166517 -0.284330 0.096575
v 0.156763 -0.236578 -0.096575
v 0.155303 -0.236923 -0.096575
v 0.167977 -0.283985 -0.096575
v 0.166517 -0.284330 -0.096575
v 0.156763 -0.236578 0.096575
v 0.155303 -0.236923 0.096575
v 0.174859 -0.207267 0.096575
v 0.173399 -0.207612 0.096575
v 0.093393 0.137125 0.096575
v 0.091933 0.136780 0.096575
v 0.174859 -0.207267 -0.096575
v 0.173399 -0.207612 -0.096575
v 0.093393 0.137125 -0.096575
v 0.091933 0.136780 -0.096575
v 0.338635 0.111228 0.105342
v 0.338635 0.109728 0.105342
v -0.033102 0.111228 0.105342
v -0.033102 0.109728 0.105342
v 0.338635 0.111228 -0.105342
v 0.338635 0.109728 -0.105342
v -0.033102 0.111228 -0.105342
v -0.033102 0.109728 -0.105342
v -0.033102 0.111228 -0.105342
v -0.031605 0.111137 -0.105342
v -0.038469 0.022546 -0.105342
v -0.036972 0.022455 -0.105342
v 0.156763 -0.236578 -0.096575
v 0.155487 -0.235790 -0.096575
v 0.174859 -0.207267 -0.096575
v 0.173583 -0.206479 -0.096575
v 0.411633 0.284735 -0.104592
v -0.414089 0.284735 -0.104592
v -0.414089 0.284515 0.105122
v 0.411633 0.284515 0.105122
v 0.167075 -0.283428 0.095825
v 0.156206 -0.237481 0.095825
v 0.156206 -0.237481 -0.095825
v 0.167075 -0.283428 -0.095825
v 0.168880 -0.284542 -0.095825
v 0.412848 -0.226832 -0.095825
v 0.168880 -0.284542 0.095061
v 0.414282 -0.226493 -0.095061
v 0.414282 -0.226493 0.095825
v 0.170313 -0.284203 0.095825
v -0.375589 0.071978 0.104592
v -0.375589 0.160478 0.104592
v -0.375589 0.160478 -0.104592
v -0.375589 0.071978 -0.104592
v 0.404313 -0.178790 0.096355
v 0.415182 -0.224738 0.096355
v 0.415396 -0.224687 -0.095825
v 0.404527 -0.178739 -0.095825
v 0.317454 0.189356 -0.095825
v 0.317240 0.189305 0.096355
v 0.398360 -0.153626 0.096355
v 0.398574 -0.153575 -0.095825
v -0.032908 0.110465 0.105303
v -0.037880 0.023262 0.105108
v -0.037675 0.023249 -0.104592
v -0.032399 0.110434 -0.104592
v -0.375889 0.161078 -0.104592
v -0.375889 0.161078 0.098934
v -0.414530 0.190059 -0.104592
v -0.414689 0.190178 -0.098934
v -0.376048 0.161197 0.104592
v -0.414689 0.190178 0.104592
v -0.374270 0.161903 -0.106092
v -0.413599 0.282601 -0.106092
v -0.038265 0.112741 -0.106092
v -0.414089 0.279262 -0.106092
v -0.376287 0.163252 -0.106092
v -0.414089 0.191603 -0.106092
v -0.033080 0.112041 -0.106092
v -0.411363 0.283235 -0.106092
v 0.408375 0.283235 -0.106092
v 0.358118 0.161918 -0.106092
v -0.027104 0.112750 -0.106092
v 0.410973 0.282634 -0.106092
v 0.338127 0.111978 -0.106092
v -0.021302 0.111978 -0.106092
v 0.357465 0.160323 -0.106092
v 0.360032 0.162548 -0.106092
v 0.411633 0.280402 -0.106092
v 0.411633 0.181749 -0.106092
v 0.357465 0.160323 0.106092
v -0.021063 0.111964 0.106053
v 0.338127 0.111978 0.106092
v 0.411633 0.280932 0.105872
v 0.360032 0.162548 0.106092
v 0.411633 0.181749 0.106092
v 0.410973 0.283164 0.105872
v -0.026864 0.112735 0.106053
v 0.358118 0.161918 0.106092
v -0.032840 0.112027 0.106053
v 0.408375 0.283765 0.105872
v -0.411363 0.283765 0.105872
v -0.413599 0.283131 0.105872
v -0.374270 0.161903 0.106092
v -0.038026 0.112727 0.106053
v -0.376287 0.163252 0.106092
v -0.414089 0.279793 0.105872
v -0.414089 0.191603 0.106092
v 0.411942 0.180264 -0.104592
v 0.411942 0.180264 0.104592
v 0.359862 0.160953 0.104592
v 0.359862 0.160953 -0.104592
v 0.413936 -0.225033 -0.097325
v 0.168534 -0.283082 -0.097325
v 0.157666 -0.237135 -0.097325
v 0.403067 -0.179085 -0.097325
v 0.402702 -0.177543 -0.097325
v 0.188813 -0.204737 -0.097325
v 0.397460 -0.155381 -0.097325
v 0.175309 -0.207966 -0.097325
v 0.389670 -0.180712 -0.097325
v 0.158352 -0.235431 -0.097325
v -0.374089 0.160360 -0.106092
v -0.033892 0.110586 -0.106092
v -0.039168 0.023405 -0.106092
v -0.374089 0.071877 -0.106092
v 0.157312 -0.236917 0.097199
v 0.168534 -0.283082 0.097325
v 0.414453 -0.224911 0.097105
v 0.403583 -0.178962 0.097105
v 0.397976 -0.155258 0.097105
v 0.188576 -0.204591 0.097271
v 0.403218 -0.177421 0.097105
v 0.157998 -0.235213 0.097199
v 0.390186 -0.180590 0.097105
v 0.175072 -0.207820 0.097271
v -0.374089 0.071877 0.106092
v -0.038625 0.023372 0.105858
v -0.033653 0.110571 0.106053
v -0.374089 0.160360 0.106092
v 0.398706 -0.155086 0.096355
v 0.403967 -0.177330 0.096355
v 0.404181 -0.177280 -0.095825
v 0.398919 -0.155035 -0.095825
v 0.358880 0.159995 0.104592
v 0.339610 0.111646 0.104592
v 0.339610 0.111646 -0.104592
v 0.358880 0.159995 -0.104592
v -0.041183 0.022181 -0.104592
v -0.374204 0.070378 0.103995
v -0.374204 0.070378 -0.104592
v -0.372340 0.070109 0.104592
v -0.039319 0.021911 -0.103995
v -0.039319 0.021911 0.104592
v 0.397631 -0.153799 0.097105
v 0.316510 0.189133 0.097105
v 0.094296 0.136568 0.097325
v 0.175179 -0.206218 0.097271
v -0.415589 0.191978 -0.104592
v -0.415589 0.191978 0.104592
v -0.415589 0.283235 0.104592
v -0.415589 0.283235 -0.104592
v 0.337885 0.110478 0.104592
v -0.030258 0.110478 0.104592
v 0.337885 0.110478 -0.104055
v -0.032352 0.110478 -0.104592
v 0.335791 0.110478 -0.104592
v -0.032352 0.110478 0.104055
v 0.397114 -0.153921 -0.097325
v 0.175416 -0.206364 -0.097325
v 0.094296 0.136568 -0.097325
v 0.315994 0.189011 -0.097325
v 0.092836 0.136222 -0.095825
v 0.173956 -0.206710 -0.095825
v 0.173956 -0.206710 0.095825
v 0.092836 0.136222 0.095825
v 0.156803 -0.235721 0.096449
v 0.174228 -0.207759 0.096521
v 0.173827 -0.207511 -0.095825
v 0.156519 -0.235546 -0.095825
vn -0.6762 0.0002 0.7367
vn 0.6762 0.0002 0.7367
vn 0.3703 -0.8370 0.4030
vn -0.3703 -0.8370 0.4030
vn -0.3699 0.8366 0.4041
vn 0.3699 0.8366 0.4041
vn 0.6333 0.3380 -0.6962
vn 0.4458 -0.5000 -0.7425
vn 0.3243 0.6951 0.6416
vn -0.6333 0.3380 -0.6962
vn -0.4452 -0.4848 -0.7528
vn -0.3165 0.6910 0.6499
vn -0.1628 0.6881 -0.7071
vn 0.1628 -0.6881 -0.7071
vn 0.8885 -0.2093 -0.4082
vn 0.7006 0.5852 -0.4082
vn -0.8886 0.2093 -0.4082
vn -0.7006 -0.5852 -0.4082
vn 0.1628 -0.6881 0.7071
vn 0.8885 -0.2093 0.4082
vn -0.7006 -0.5852 0.4082
vn -0.1628 0.6881 0.7071
vn 0.7006 0.5852 0.4082
vn -0.8886 0.2093 0.4082
vn 0.6881 0.1628 0.7071
vn -0.9221 -0.2181 0.3197
vn -0.4372 0.8619 0.2567
vn 0.2093 0.8885 0.4082
vn 0.5852 -0.7006 0.4082
vn -0.0047 -0.9665 0.2567
vn 0.4320 0.1022 -0.8960
vn 0.0047 0.9665 -0.2567
vn 0.4372 -0.8619 -0.2567
vn -0.4320 -0.1022 0.8960
vn -0.6881 -0.1628 -0.7071
vn -0.5852 0.7006 -0.4082
vn -0.2093 -0.8885 -0.4082
vn 0.9221 0.2181 -0.3197
vn -0.0000 0.7071 -0.7071
vn -0.0000 -0.7071 -0.7071
vn 0.8165 -0.4082 -0.4082
vn 0.8165 0.4082 -0.4083
vn -0.8165 0.4082 -0.4083
vn -0.8165 -0.4082 -0.4082
vn -0.0000 -0.7071 0.7071
vn 0.8165 -0.4082 0.4082
vn -0.8165 -0.4082 0.4082
vn -0.0000 0.7071 0.7071
vn 0.8165 0.4082 0.4083
vn -0.8165 0.4082 0.4083
vn 0.4747 -0.5385 -0.6962
vn 0.1831 0.6941 -0.6962
vn -0.7016 0.3977 -0.5913
vn -0.6631 -0.1969 -0.7222
vn 0.6848 0.1808 0.7059
vn 0.4953 0.6069 0.6216
vn -0.1554 0.6581 0.7367
vn -0.8997 0.1677 0.4030
vn 0.7289 0.5526 0.4042
vn 0.1558 -0.6580 0.7367
vn -0.8768 -0.2074 0.4338
vn 0.8762 0.2073 0.4350
vn 0.1559 -0.6580 0.7367
vn -0.4491 -0.6699 -0.5913
vn -0.7292 -0.5530 0.4030
vn 0.8992 -0.1674 0.4042
vn 0.7147 -0.3207 0.6216
vn -0.6801 -0.1875 -0.7087
vn 0.6815 0.1821 0.7088
vn 0.3939 -0.5553 -0.7325
vn 0.4238 0.6212 -0.6591
vn -0.5124 0.5815 -0.6320
vn -0.4527 -0.0571 -0.8898
vn 0.2163 0.2559 0.9422
vn 0.6526 0.4305 0.6235
vn 0.0412 0.6773 0.7346
vn -0.8115 0.4227 0.4034
vn 0.8562 0.3215 0.4044
vn -0.0366 -0.6134 0.7890
vn -0.8817 -0.2563 0.3961
vn 0.8433 -0.3603 0.3987
vn -0.5657 0.4243 0.7071
vn -0.0930 0.0698 -0.9932
vn 0.2406 0.9229 -0.3007
vn 0.1633 0.8981 0.4082
vn -0.8165 -0.4083 0.4083
vn -0.8186 -0.4894 -0.3007
vn 0.6276 -0.4707 0.6201
vn 0.8186 0.4894 0.3007
vn -0.2406 -0.9229 0.3007
vn 0.0930 -0.0697 0.9932
vn -0.6276 0.4707 -0.6201
vn 0.5657 -0.4243 -0.7071
vn 0.8165 0.4083 -0.4083
vn -0.1633 -0.8981 -0.4082
vn 0.6446 0.7645 -0.0000
vn 0.6672 -0.7449 -0.0000
vn 0.1939 -0.1925 0.9620
vn 0.3518 0.1563 0.9229
vn 0.3518 0.1563 -0.9229
vn 0.1939 -0.1925 -0.9620
vn -0.9596 0.2813 -0.0000
vn -0.1862 0.2544 0.9490
vn -0.1862 0.2544 -0.9490
vn 0.1568 -0.9876 -0.0000
vn -0.5820 0.8132 -0.0000
vn 0.8944 0.4472 -0.0000
vn 0.5963 0.2981 0.7454
vn 0.5963 0.2981 -0.7454
vn 0.0275 0.9996 -0.0000
vn 0.9775 -0.2109 -0.0000
vn -0.9829 -0.1839 -0.0000
vn -0.1846 -0.1859 0.9651
vn -0.1846 -0.1859 -0.9651
vn -0.5992 0.8006 -0.0000
vn 0.9693 0.2459 -0.0000
vn -0.2816 0.2865 0.9158
vn -0.2816 0.2864 -0.9158
vn -0.7221 -0.6918 -0.0000
vn -0.5606 0.8281 -0.0000
vn 0.9980 0.0634 -0.0000
vn -0.3576 0.5281 0.7702
vn -0.3576 0.5281 -0.7702
vn -0.7908 -0.6120 -0.0000
vn 0.7268 0.6869 -0.0000
vn -0.2049 -0.9788 -0.0000
vn -0.8212 0.5706 -0.0000
vn -0.5212 0.3621 0.7728
vn -0.5212 0.3621 -0.7728
vn -0.7977 -0.6028 -0.0147
vn 0.9938 0.0672 -0.0887
vn -0.2459 0.2711 -0.9306
vn -0.2874 0.2804 0.9159
vn -0.5643 0.8255 0.0026
vn -0.3573 0.5244 -0.7729
vn -0.3571 0.5206 0.7756
vn -0.1848 -0.9659 0.1814
vn 0.6565 0.7496 0.0842
vn -0.8040 0.5946 -0.0011
vn -0.4857 0.3592 -0.7969
vn -0.4876 0.3614 0.7947
vn -0.7115 -0.6928 0.1176
vn 0.7429 0.4629 0.4836
vn -0.5839 0.8113 -0.0302
vn 0.0386 0.9838 -0.1751
vn -0.7637 -0.1866 0.6181
vn 0.8632 -0.1939 0.4661
vn 0.6275 -0.7482 0.2154
vn 0.6279 0.7775 -0.0349
vn 0.3181 0.1410 -0.9375
vn 0.3505 0.1574 0.9232
vn -0.7362 0.4015 0.5448
vn -0.4722 0.8776 0.0824
vn 0.1434 -0.9755 0.1668
vn 0.8847 0.4661 -0.0017
vn 0.5630 0.2966 -0.7714
vn 0.5661 0.2988 0.7682
vn -0.6702 -0.2497 0.6989
vn -0.6702 -0.2497 -0.6989
vn -0.6679 0.6291 -0.3978
vn -0.6679 0.6291 0.3978
vn -0.0954 -0.9127 0.3972
vn -0.0954 -0.9127 -0.3972
vn 0.5970 0.4140 -0.6872
vn -0.6258 0.6411 -0.4442
vn 0.6124 -0.6274 -0.4811
vn 0.5970 0.4140 0.6872
vn -0.6258 0.6411 0.4442
vn 0.6124 -0.6274 0.4811
vn -0.8509 0.5253 -0.0000
vn 0.5253 0.8509 -0.0000
vn 0.3033 0.4913 0.8165
vn -0.4913 0.3033 0.8165
vn -0.4913 0.3033 -0.8165
vn 0.3033 0.4913 -0.8165
vn 0.8509 -0.5253 -0.0000
vn 0.4411 -0.1410 0.8863
vn 0.4411 -0.1410 -0.8863
vn -0.5253 -0.8509 -0.0000
vn -0.4022 -0.1085 0.9091
vn -0.4022 -0.1085 -0.9091
vn -0.8219 0.5696 -0.0000
vn 0.9840 0.1784 -0.0000
vn 0.3869 -0.1477 0.9102
vn 0.3869 -0.1477 -0.9102
vn -0.4352 -0.1029 0.8944
vn -0.4352 -0.1029 -0.8944
vn 0.5414 -0.8408 -0.0000
vn -0.9840 -0.1781 -0.0000
vn 0.8110 0.5851 -0.0000
vn 0.6539 -0.7566 -0.0000
vn -0.7760 -0.6308 -0.0000
vn -0.6314 0.7755 -0.0000
vn -0.3540 0.4348 0.8281
vn -0.3540 0.4348 -0.8281
vn 0.7561 0.6545 -0.0000
vn 0.4560 0.3947 0.7977
vn 0.4560 0.3947 -0.7977
vn 0.8603 -0.4686 0.2008
vn 0.5396 0.8389 0.0712
vn 0.3353 0.4650 -0.8194
vn 0.6967 -0.0645 -0.7145
vn -0.1249 0.3919 0.9115
vn 0.2477 0.4343 0.8660
vn -0.8233 0.4559 0.3380
vn -0.5451 -0.7362 0.4010
vn -0.5355 -0.7542 0.3800
vn 0.9922 0.1237 -0.0184
vn 0.4464 -0.4657 -0.7641
vn -0.0486 0.0648 0.9967
vn -0.8096 0.4981 0.3105
vn 0.8594 0.4575 0.2282
vn -0.8922 -0.3813 -0.2418
vn 0.5479 -0.8101 0.2087
vn 0.7814 0.6239 -0.0093
vn -0.6562 0.7106 0.2538
vn 0.4443 0.3494 -0.8249
vn 0.4484 0.3630 0.8168
vn -0.7499 -0.6262 0.2134
vn 0.6598 -0.7514 0.0052
vn -0.1555 0.6581 0.7367
vn -0.4284 -0.5868 -0.6872
vn 0.2659 0.6640 -0.6989
vn -0.6127 0.6829 -0.3978
vn 0.9148 0.0733 -0.3972
vn 0.2659 0.6640 0.6989
vn -0.6127 0.6829 0.3978
vn 0.9148 0.0733 0.3972
vn -0.4284 -0.5868 0.6872
vn -0.9518 0.1378 0.2739
vn 0.4814 -0.0697 -0.8737
vn 0.3611 0.8903 -0.2774
vn -0.0938 0.9562 0.2774
vn -0.3611 -0.8903 0.2774
vn 0.0938 -0.9562 -0.2774
vn 0.6998 -0.1013 0.7071
vn 0.5210 0.7496 0.4083
vn 0.2871 -0.8666 0.4082
vn 0.9518 -0.1378 -0.2739
vn -0.4814 0.0697 0.8737
vn -0.6998 0.1013 -0.7071
vn -0.2871 0.8666 -0.4082
vn -0.5210 -0.7496 -0.4082
vn -0.8351 0.4585 0.3041
vn -0.5318 -0.7765 0.3380
vn 0.8674 -0.4952 0.0484
vn 0.5021 -0.2654 -0.8231
vn 0.4402 -0.2713 0.8559
vn 0.5637 0.8259 0.0100
vn 0.8165 0.4083 -0.4082
vn 0.8165 0.4083 0.4082
vn -0.8165 0.4083 0.4082
vn -0.8165 0.4083 -0.4082
vn 0.8165 -0.4083 -0.4082
vn -0.8165 -0.4083 -0.4082
vn 0.8165 -0.4083 0.4082
vn -0.8165 -0.4083 0.4082
vn -0.7071 -0.0000 -0.7071
vn 0.9670 -0.0000 -0.2550
vn 0.2333 0.9291 -0.2869
vn -0.4082 0.8165 -0.4082
vn -0.4082 -0.8165 -0.4082
vn 0.2333 -0.9291 -0.2869
vn -0.5034 -0.0000 0.8640
vn -0.2333 0.9291 0.2869
vn -0.2333 -0.9291 0.2869
vn 0.7071 -0.0000 0.7071
vn -0.9669 -0.0000 0.2550
vn 0.4082 0.8165 0.4082
vn 0.4082 -0.8165 0.4082
vn 0.5035 -0.0000 -0.8640
vn 0.4913 -0.3033 0.8165
vn 0.4913 -0.3033 -0.8165
vn -0.3033 -0.4913 0.8165
vn -0.3033 -0.4913 -0.8165
vn -0.8885 0.2093 0.4082
vn -0.8885 0.2093 -0.4082
vn -0.0720 0.7385 -0.6704
vn -0.6780 -0.2083 -0.7049
vn -0.3285 -0.5311 0.7810
vn 0.5655 -0.7229 0.3969
vn -0.8986 0.1815 0.3996
vn 0.3440 0.5578 0.7553
vn 0.9041 -0.1494 0.4002
vn -0.5384 0.7406 0.4021
vt 0.000000 0.000000
s 1
f 169/1/1 170/1/2 29/1/3 31/1/4
f 170/1/2 169/1/1 32/1/5 30/1/6
f 170/1/2 171/1/7 25/1/8 29/1/3
f 171/1/7 170/1/2 30/1/6 26/1/9
f 171/1/7 172/1/10 27/1/11 25/1/8
f 172/1/10 171/1/7 26/1/9 28/1/12
f 172/1/10 169/1/1 31/1/4 27/1/11
f 169/1/1 172/1/10 28/1/12 32/1/5
f 173/1/13 174/1/14 143/1/15 137/1/16
f 174/1/14 173/1/13 138/1/17 144/1/18
f 174/1/14 175/1/19 139/1/20 143/1/15
f 175/1/19 174/1/14 144/1/18 140/1/21
f 175/1/19 176/1/22 141/1/23 139/1/20
f 176/1/22 175/1/19 140/1/21 142/1/24
f 176/1/22 173/1/13 137/1/16 141/1/23
f 173/1/13 176/1/22 142/1/24 138/1/17
f 177/1/25 178/1/26 19/1/27 17/1/28
f 178/1/26 177/1/25 18/1/29 20/1/30
f 178/1/26 179/1/31 21/1/32 19/1/27
f 179/1/31 178/1/26 20/1/30 22/1/33
f 179/1/31 177/1/25 17/1/28 21/1/32
f 177/1/25 179/1/31 22/1/33 18/1/29
f 180/1/34 181/1/35 23/1/36 19/1/27
f 181/1/35 180/1/34 20/1/30 24/1/37
f 181/1/35 182/1/38 21/1/32 23/1/36
f 182/1/38 181/1/35 24/1/37 22/1/33
f 182/1/38 180/1/34 19/1/27 21/1/32
f 180/1/34 182/1/38 22/1/33 20/1/30
f 183/1/39 184/1/40 15/1/41 11/1/42
f 184/1/40 183/1/39 12/1/43 16/1/44
f 184/1/40 185/1/45 13/1/46 15/1/41
f 185/1/45 184/1/40 16/1/44 14/1/47
f 185/1/45 186/1/48 9/1/49 13/1/46
f 186/1/48 185/1/45 14/1/47 10/1/50
f 186/1/48 183/1/39 11/1/42 9/1/49
f 183/1/39 186/1/48 10/1/50 12/1/43
f 187/1/51 188/1/52 47/1/53 43/1/54
f 188/1/52 187/1/51 44/1/55 48/1/56
f 188/1/52 189/1/57 45/1/58 47/1/53
f 189/1/57 188/1/52 48/1/56 46/1/59
f 189/1/57 190/1/60 41/1/61 45/1/58
f 190/1/60 189/1/57 46/1/59 42/1/62
f 190/1/60 187/1/51 43/1/54 41/1/61
f 187/1/51 190/1/60 42/1/62 44/1/55
f 191/1/63 192/1/51 39/1/64 33/1/65
f 192/1/51 191/1/63 34/1/66 40/1/67
f 192/1/51 193/1/52 35/1/68 39/1/64
f 193/1/52 192/1/51 40/1/67 36/1/69
f 193/1/52 194/1/57 37/1/61 35/1/68
f 194/1/57 193/1/52 36/1/69 38/1/62
f 194/1/57 191/1/63 33/1/65 37/1/61
f 191/1/63 194/1/57 38/1/62 34/1/66
f 195/1/70 196/1/71 91/1/72 79/1/73
f 196/1/71 195/1/70 80/1/74 92/1/75
f 196/1/71 197/1/76 163/1/77 91/1/72
f 197/1/76 196/1/71 92/1/75 164/1/78
f 197/1/76 198/1/79 161/1/80 163/1/77
f 198/1/79 197/1/76 164/1/78 162/1/81
f 198/1/79 195/1/70 79/1/73 161/1/80
f 195/1/70 198/1/79 162/1/81 80/1/74
f 199/1/82 200/1/83 51/1/84 49/1/85
f 200/1/83 199/1/82 50/1/86 52/1/87
f 200/1/83 201/1/88 53/1/89 51/1/84
f 201/1/88 200/1/83 52/1/87 54/1/90
f 201/1/88 199/1/82 49/1/85 53/1/89
f 199/1/82 201/1/88 54/1/90 50/1/86
f 202/1/91 203/1/92 51/1/84 53/1/89
f 203/1/92 202/1/91 54/1/90 52/1/87
f 203/1/92 204/1/93 55/1/94 51/1/84
f 204/1/93 203/1/92 52/1/87 56/1/95
f 204/1/93 202/1/91 53/1/89 55/1/94
f 202/1/91 204/1/93 56/1/95 54/1/90
f 205/1/96 206/1/97 65/1/98 63/1/99
f 206/1/97 205/1/96 64/1/100 66/1/101
f 206/1/97 207/1/102 61/1/103 65/1/98
f 207/1/102 206/1/97 66/1/101 62/1/104
f 207/1/102 205/1/96 63/1/99 61/1/103
f 205/1/96 207/1/102 62/1/104 64/1/100
f 208/1/105 209/1/106 63/1/99 65/1/98
f 209/1/106 208/1/105 66/1/101 64/1/100
f 209/1/106 210/1/107 67/1/108 63/1/99
f 210/1/107 209/1/106 64/1/100 68/1/109
f 210/1/107 208/1/105 65/1/98 67/1/108
f 208/1/105 210/1/107 68/1/109 66/1/101
f 211/1/110 212/1/111 65/1/98 61/1/103
f 212/1/111 211/1/110 62/1/104 66/1/101
f 212/1/111 213/1/112 69/1/113 65/1/98
f 213/1/112 212/1/111 66/1/101 70/1/114
f 213/1/112 211/1/110 61/1/103 69/1/113
f 211/1/110 213/1/112 70/1/114 62/1/104
f 214/1/115 215/1/116 61/1/103 71/1/117
f 215/1/116 214/1/115 72/1/118 62/1/104
f 215/1/116 216/1/119 69/1/113 61/1/103
f 216/1/119 215/1/116 62/1/104 70/1/114
f 216/1/119 214/1/115 71/1/117 69/1/113
f 214/1/115 216/1/119 70/1/114 72/1/118
f 217/1/120 218/1/121 61/1/103 73/1/122
f 218/1/121 217/1/120 74/1/123 62/1/104
f 218/1/121 219/1/124 71/1/117 61/1/103
f 219/1/124 218/1/121 62/1/104 72/1/118
f 219/1/124 217/1/120 73/1/122 71/1/117
f 217/1/120 219/1/124 72/1/118 74/1/123
f 220/1/125 221/1/126 69/1/113 71/1/117
f 221/1/126 220/1/125 72/1/118 70/1/114
f 221/1/126 222/1/127 75/1/128 69/1/113
f 222/1/127 221/1/126 70/1/114 76/1/129
f 222/1/127 220/1/125 71/1/117 75/1/128
f 220/1/125 222/1/127 76/1/129 72/1/118
f 223/1/130 224/1/131 79/1/73 77/1/132
f 224/1/131 223/1/130 78/1/133 80/1/74
f 224/1/131 225/1/134 81/1/135 79/1/73
f 225/1/134 224/1/131 80/1/74 82/1/136
f 225/1/134 223/1/130 77/1/132 81/1/135
f 223/1/130 225/1/134 82/1/136 78/1/133
f 226/1/137 227/1/138 77/1/132 27/1/11
f 227/1/138 226/1/137 28/1/12 78/1/133
f 227/1/138 228/1/139 83/1/140 77/1/132
f 228/1/139 227/1/138 78/1/133 84/1/141
f 228/1/139 226/1/137 27/1/11 83/1/140
f 226/1/137 228/1/139 84/1/141 28/1/12
f 229/1/142 230/1/143 79/1/73 27/1/11
f 230/1/143 229/1/142 28/1/12 80/1/74
f 230/1/143 231/1/144 77/1/132 79/1/73
f 231/1/144 230/1/143 80/1/74 78/1/133
f 231/1/144 229/1/142 27/1/11 77/1/132
f 229/1/142 231/1/144 78/1/133 28/1/12
f 232/1/145 233/1/146 27/1/11 79/1/73
f 233/1/146 232/1/145 80/1/74 28/1/12
f 233/1/146 234/1/147 25/1/8 27/1/11
f 234/1/147 233/1/146 28/1/12 26/1/9
f 234/1/147 232/1/145 79/1/73 25/1/8
f 232/1/145 234/1/147 26/1/9 80/1/74
f 235/1/148 236/1/149 85/1/150 25/1/8
f 236/1/149 235/1/148 26/1/9 86/1/151
f 236/1/149 237/1/152 79/1/73 85/1/150
f 237/1/152 236/1/149 86/1/151 80/1/74
f 237/1/152 235/1/148 25/1/8 79/1/73
f 235/1/148 237/1/152 80/1/74 26/1/9
f 238/1/153 239/1/154 25/1/8 85/1/150
f 239/1/154 238/1/153 86/1/151 26/1/9
f 239/1/154 240/1/155 87/1/156 25/1/8
f 240/1/155 239/1/154 26/1/9 88/1/157
f 240/1/155 238/1/153 85/1/150 87/1/156
f 238/1/153 240/1/155 88/1/157 86/1/151
f 241/1/158 242/1/159 125/1/160 127/1/161
f 242/1/159 241/1/158 128/1/162 126/1/163
f 242/1/159 243/1/164 119/1/165 125/1/160
f 243/1/164 242/1/159 126/1/163 120/1/166
f 243/1/164 244/1/167 117/1/168 119/1/165
f 244/1/167 243/1/164 120/1/166 118/1/169
f 244/1/167 241/1/158 127/1/161 117/1/168
f 241/1/158 244/1/167 118/1/169 128/1/162
f 245/1/170 246/1/171 107/1/172 105/1/173
f 246/1/171 245/1/170 106/1/174 108/1/175
f 246/1/171 247/1/176 103/1/177 107/1/172
f 247/1/176 246/1/171 108/1/175 104/1/178
f 247/1/176 248/1/179 101/1/180 103/1/177
f 248/1/179 247/1/176 104/1/178 102/1/181
f 248/1/179 245/1/170 105/1/173 101/1/180
f 245/1/170 248/1/179 102/1/181 106/1/174
f 249/1/182 250/1/183 99/1/184 101/1/180
f 250/1/183 249/1/182 102/1/181 100/1/185
f 250/1/183 251/1/179 93/1/186 99/1/184
f 251/1/179 250/1/183 100/1/185 94/1/187
f 251/1/179 249/1/182 101/1/180 93/1/186
f 249/1/182 251/1/179 94/1/187 102/1/181
f 252/1/188 253/1/189 101/1/180 99/1/184
f 253/1/189 252/1/188 100/1/185 102/1/181
f 253/1/189 254/1/190 103/1/177 101/1/180
f 254/1/190 253/1/189 102/1/181 104/1/178
f 254/1/190 252/1/188 99/1/184 103/1/177
f 252/1/188 254/1/190 104/1/178 100/1/185
f 255/1/191 256/1/192 61/1/103 63/1/99
f 256/1/192 255/1/191 64/1/100 62/1/104
f 256/1/192 257/1/193 57/1/194 61/1/103
f 257/1/193 256/1/192 62/1/104 58/1/195
f 257/1/193 258/1/196 59/1/197 57/1/194
f 258/1/196 257/1/193 58/1/195 60/1/198
f 258/1/196 255/1/191 63/1/99 59/1/197
f 255/1/191 258/1/196 60/1/198 64/1/100
f 259/1/199 260/1/200 115/1/201 113/1/202
f 260/1/200 259/1/199 114/1/203 116/1/204
f 260/1/200 261/1/205 47/1/53 115/1/201
f 261/1/205 260/1/200 116/1/204 48/1/56
f 261/1/205 262/1/206 43/1/54 47/1/53
f 262/1/206 261/1/205 48/1/56 44/1/55
f 262/1/206 259/1/199 113/1/202 43/1/54
f 259/1/199 262/1/206 44/1/55 114/1/203
f 263/1/207 264/1/208 111/1/209 35/1/68
f 264/1/208 263/1/207 36/1/69 112/1/210
f 264/1/208 265/1/211 43/1/54 111/1/209
f 265/1/211 264/1/208 112/1/210 44/1/55
f 265/1/211 263/1/207 35/1/68 43/1/54
f 263/1/207 265/1/211 44/1/55 36/1/69
f 266/1/212 267/1/213 43/1/54 113/1/202
f 267/1/213 266/1/212 114/1/203 44/1/55
f 267/1/213 268/1/214 111/1/209 43/1/54
f 268/1/214 267/1/213 44/1/55 112/1/210
f 268/1/214 266/1/212 113/1/202 111/1/209
f 266/1/212 268/1/214 112/1/210 114/1/203
f 269/1/215 270/1/216 91/1/72 89/1/217
f 270/1/216 269/1/215 90/1/218 92/1/75
f 270/1/216 271/1/219 79/1/73 91/1/72
f 271/1/219 270/1/216 92/1/75 80/1/74
f 271/1/219 272/1/220 85/1/150 79/1/73
f 272/1/220 271/1/219 80/1/74 86/1/151
f 272/1/220 269/1/215 89/1/217 85/1/150
f 269/1/215 272/1/220 86/1/151 90/1/218
f 273/1/51 274/1/52 43/1/54 35/1/68
f 274/1/52 273/1/51 36/1/69 44/1/55
f 274/1/52 275/1/221 41/1/61 43/1/54
f 275/1/221 274/1/52 44/1/55 42/1/62
f 275/1/221 276/1/60 37/1/61 41/1/61
f 276/1/60 275/1/221 42/1/62 38/1/62
f 276/1/60 273/1/51 35/1/68 37/1/61
f 273/1/51 276/1/60 38/1/62 36/1/69
f 277/1/222 278/1/223 123/1/224 119/1/165
f 278/1/223 277/1/222 120/1/166 124/1/225
f 278/1/223 279/1/226 121/1/227 123/1/224
f 279/1/226 278/1/223 124/1/225 122/1/228
f 279/1/226 280/1/229 117/1/168 121/1/227
f 280/1/229 279/1/226 122/1/228 118/1/169
f 280/1/229 277/1/222 119/1/165 117/1/168
f 277/1/222 280/1/229 118/1/169 120/1/166
f 281/1/230 282/1/231 131/1/232 129/1/233
f 282/1/231 281/1/230 130/1/234 132/1/235
f 282/1/231 283/1/236 133/1/237 131/1/232
f 283/1/236 282/1/231 132/1/235 134/1/238
f 283/1/236 281/1/230 129/1/233 133/1/237
f 281/1/230 283/1/236 134/1/238 130/1/234
f 284/1/239 285/1/240 129/1/233 131/1/232
f 285/1/240 284/1/239 132/1/235 130/1/234
f 285/1/240 286/1/241 135/1/242 129/1/233
f 286/1/241 285/1/240 130/1/234 136/1/243
f 286/1/241 284/1/239 131/1/232 135/1/242
f 284/1/239 286/1/241 136/1/243 132/1/235
f 287/1/244 288/1/245 39/1/64 35/1/68
f 288/1/245 287/1/244 36/1/69 40/1/67
f 288/1/245 289/1/246 109/1/247 39/1/64
f 289/1/246 288/1/245 40/1/67 110/1/248
f 289/1/246 290/1/249 111/1/209 109/1/247
f 290/1/249 289/1/246 110/1/248 112/1/210
f 290/1/249 287/1/244 35/1/68 111/1/209
f 287/1/244 290/1/249 112/1/210 36/1/69
f 291/1/48 292/1/39 7/1/250 5/1/251
f 292/1/39 291/1/48 6/1/252 8/1/253
f 292/1/39 293/1/40 1/1/254 7/1/250
f 293/1/40 292/1/39 8/1/253 2/1/255
f 293/1/40 294/1/45 3/1/256 1/1/254
f 294/1/45 293/1/40 2/1/255 4/1/257
f 294/1/45 291/1/48 5/1/251 3/1/256
f 291/1/48 294/1/45 4/1/257 6/1/252
f 295/1/258 296/1/259 155/1/260 153/1/261
f 296/1/259 295/1/258 154/1/262 156/1/263
f 296/1/259 297/1/264 157/1/265 155/1/260
f 297/1/264 296/1/259 156/1/263 158/1/266
f 297/1/264 295/1/258 153/1/261 157/1/265
f 295/1/258 297/1/264 158/1/266 154/1/262
f 298/1/267 299/1/268 157/1/265 159/1/269
f 299/1/268 298/1/267 160/1/270 158/1/266
f 299/1/268 300/1/271 155/1/260 157/1/265
f 300/1/271 299/1/268 158/1/266 156/1/263
f 300/1/271 298/1/267 159/1/269 155/1/260
f 298/1/267 300/1/271 156/1/263 160/1/270
f 301/1/170 302/1/171 99/1/184 93/1/186
f 302/1/171 301/1/170 94/1/187 100/1/185
f 302/1/171 303/1/176 95/1/272 99/1/184
f 303/1/176 302/1/171 100/1/185 96/1/273
f 303/1/176 304/1/179 97/1/274 95/1/272
f 304/1/179 303/1/176 96/1/273 98/1/275
f 304/1/179 301/1/170 93/1/186 97/1/274
f 301/1/170 304/1/179 98/1/275 94/1/187
f 305/1/19 306/1/22 149/1/23 151/1/20
f 306/1/22 305/1/19 152/1/21 150/1/276
f 306/1/22 307/1/13 145/1/16 149/1/23
f 307/1/13 306/1/22 150/1/276 146/1/277
f 307/1/13 308/1/14 147/1/15 145/1/16
f 308/1/14 307/1/13 146/1/277 148/1/18
f 308/1/14 305/1/19 151/1/20 147/1/15
f 305/1/19 308/1/14 148/1/18 152/1/21
f 309/1/278 310/1/279 111/1/209 113/1/202
f 310/1/279 309/1/278 114/1/203 112/1/210
f 310/1/279 311/1/280 167/1/281 111/1/209
f 311/1/280 310/1/279 112/1/210 168/1/282
f 311/1/280 312/1/283 165/1/284 167/1/281
f 312/1/283 311/1/280 168/1/282 166/1/285
f 312/1/283 309/1/278 113/1/202 165/1/284
f 309/1/278 312/1/283 166/1/285 114/1/203
