# Blender 5.2.2 LTS
# www.blender.org
mtllib RenderMesh_12613283569.mtl
o RenderMesh_12613283569
v -0.285719 0.040267 -0.111939
v -0.285719 0.040267 -0.113439
v -0.277440 0.020281 -0.111939
v -0.277440 0.020281 -0.113439
v -0.325692 0.000294 -0.111939
v -0.325692 0.000294 -0.113439
v -0.325692 0.040267 -0.111939
v -0.325692 0.040267 -0.113439
v -0.305705 0.048546 -0.111939
v -0.305705 0.048546 -0.113439
v -0.285719 0.040267 0.111939
v -0.285719 0.040267 0.113439
v -0.325692 0.040267 0.111939
v -0.325692 0.040267 0.113439
v -0.333970 0.020281 0.111939
v -0.333970 0.020281 0.113439
v -0.305705 0.048546 0.111939
v -0.305705 0.048546 0.113439
v -0.305705 -0.007984 0.111939
v -0.305705 -0.007984 0.113439
v -0.325692 0.000294 0.111939
v -0.325692 0.000294 0.113439
v -0.285719 0.000294 0.111939
v -0.285719 0.000294 0.113439
v -0.277440 0.020281 0.111939
v -0.277440 0.020281 0.113439
v 0.333970 -0.020281 -0.111939
v 0.333970 -0.020281 -0.113439
v 0.305705 0.007984 -0.111939
v 0.305705 0.007984 -0.113439
v 0.325692 -0.000294 -0.111939
v 0.325692 -0.000294 -0.113439
v 0.285719 -0.040267 -0.111939
v 0.285719 -0.040267 -0.113439
v 0.285719 -0.000294 -0.111939
v 0.285719 -0.000294 -0.113439
v 0.277440 -0.020281 -0.111939
v 0.277440 -0.020281 -0.113439
v 0.325692 -0.040267 -0.111939
v 0.325692 -0.040267 -0.113439
v 0.305705 -0.048546 -0.111939
v 0.305705 -0.048546 -0.113439
v 0.285719 -0.040267 0.111939
v 0.285719 -0.040267 0.113439
v 0.285719 -0.000294 0.111939
v 0.285719 -0.000294 0.113439
v 0.277440 -0.020281 0.111939
v 0.277440 -0.020281 0.113439
v 0.305705 0.007984 0.111939
v 0.305705 0.007984 0.113439
v 0.333970 -0.020281 0.111939
v 0.333970 -0.020281 0.113439
v 0.325692 -0.000294 0.111939
v 0.325692 -0.000294 0.113439
v 0.325692 -0.040267 0.111939
v 0.325692 -0.040267 0.113439
v 0.305705 -0.048546 0.111939
v 0.305705 -0.048546 0.113439
v -0.325692 0.040267 -0.111939
v -0.326753 0.041328 -0.111939
v -0.305705 0.048546 0.111939
v -0.305705 0.050046 0.111939
v -0.305705 0.048546 -0.111939
v -0.305705 0.050046 -0.111939
v -0.285719 0.040267 0.111939
v -0.284658 0.041328 0.111939
v -0.325692 0.040267 0.111939
v -0.326753 0.041328 0.111939
v -0.285719 0.040267 -0.111939
v -0.284658 0.041328 -0.111939
v -0.333970 0.020281 -0.111939
v -0.335470 0.020281 -0.111939
v -0.277440 0.020281 0.111939
v -0.275940 0.020281 0.111939
v -0.333970 0.020281 0.111939
v -0.335470 0.020281 0.111939
v -0.277440 0.020281 -0.111939
v -0.275940 0.020281 -0.111939
v -0.325692 0.000294 -0.111939
v -0.326753 -0.000767 -0.111939
v -0.285719 0.000294 0.111939
v -0.284658 -0.000767 0.111939
v -0.325692 0.000294 0.111939
v -0.326753 -0.000767 0.111939
v -0.285719 0.000294 -0.111939
v -0.284658 -0.000767 -0.111939
v -0.305705 -0.007984 -0.111939
v -0.305705 -0.009484 -0.111939
v -0.305705 -0.007984 0.111939
v -0.305705 -0.009484 0.111939
v 0.285719 -0.000294 -0.111939
v 0.284658 0.000767 -0.111939
v 0.305705 0.007984 0.111939
v 0.305705 0.009484 0.111939
v 0.305705 0.007984 -0.111939
v 0.305705 0.009484 -0.111939
v 0.325692 -0.000294 0.111939
v 0.326753 0.000767 0.111939
v 0.285719 -0.000294 0.111939
v 0.284658 0.000767 0.111939
v 0.325692 -0.000294 -0.111939
v 0.326753 0.000767 -0.111939
v 0.277440 -0.020281 -0.111939
v 0.275940 -0.020281 -0.111939
v 0.333970 -0.020281 0.111939
v 0.335470 -0.020281 0.111939
v 0.277440 -0.020281 0.111939
v 0.275940 -0.020281 0.111939
v 0.333970 -0.020281 -0.111939
v 0.335470 -0.020281 -0.111939
v 0.285719 -0.040267 -0.111939
v 0.284658 -0.041328 -0.111939
v 0.325692 -0.040267 0.111939
v 0.326753 -0.041328 0.111939
v 0.285719 -0.040267 0.111939
v 0.284658 -0.041328 0.111939
v 0.325692 -0.040267 -0.111939
v 0.326753 -0.041328 -0.111939
v 0.305705 -0.048546 -0.111939
v 0.305705 -0.050046 -0.111939
v 0.305705 -0.048546 0.111939
v 0.305705 -0.050046 0.111939
v -0.305705 0.048546 0.076056
v -0.305705 0.050046 0.076056
v -0.325692 0.040267 0.076056
v -0.326753 0.041328 0.076056
v -0.285719 0.040267 0.076056
v -0.284658 0.041328 0.076056
v -0.333970 0.020281 0.076056
v -0.335470 0.020281 0.076056
v -0.277440 0.020281 0.076056
v -0.275940 0.020281 0.076056
v -0.306398 -0.008447 -0.111189
v -0.306398 -0.008447 0.111189
v -0.305705 -0.008734 0.112689
v -0.326222 -0.000236 0.112689
v -0.325529 -0.000523 0.111189
v -0.325529 -0.000523 -0.111189
v -0.326222 -0.000236 -0.112689
v -0.305705 -0.008734 -0.112689
v -0.278420 0.020687 -0.112689
v -0.276460 0.019875 -0.112689
v -0.326442 -0.000828 -0.112689
v -0.324942 0.001416 -0.112689
v -0.326442 0.040768 -0.112689
v -0.324942 0.039517 -0.112689
v -0.286220 0.039517 -0.112689
v -0.285145 0.040841 -0.112689
v -0.289489 0.041017 -0.112689
v -0.321922 0.041017 -0.112689
v -0.305705 0.049358 -0.112689
v -0.305705 0.047734 -0.112689
v -0.289490 0.039517 0.112689
v -0.325191 0.039517 0.112689
v -0.326266 0.040841 0.112689
v -0.334782 0.020281 0.112689
v -0.332584 0.021667 0.112689
v -0.321922 0.041017 0.112689
v -0.289489 0.041017 0.112689
v -0.285145 0.040841 0.112689
v -0.305705 0.049358 0.112689
v -0.305705 0.047734 0.112689
v -0.287105 0.038881 0.112689
v -0.332646 0.020018 0.112689
v -0.305968 -0.006660 0.112689
v -0.308901 -0.005848 0.112689
v -0.331834 0.017085 0.112689
v -0.326266 -0.000280 0.112689
v -0.325118 0.000868 0.112689
v -0.305705 -0.008796 0.112689
v -0.286469 0.000795 0.112689
v -0.286469 0.036496 0.112689
v -0.304319 -0.006598 0.112689
v -0.285145 -0.000280 0.112689
v -0.284969 0.036497 0.112689
v -0.284969 0.004064 0.112689
v -0.276628 0.020281 0.112689
v -0.278252 0.020281 0.112689
v 0.331834 -0.017085 -0.112689
v 0.308901 0.005848 -0.112689
v 0.305705 0.008796 -0.112689
v 0.326266 0.000280 -0.112689
v 0.325118 -0.000868 -0.112689
v 0.334782 -0.020281 -0.112689
v 0.332646 -0.020018 -0.112689
v 0.287105 -0.038881 -0.112689
v 0.305968 0.006660 -0.112689
v 0.304319 0.006598 -0.112689
v 0.286469 -0.036496 -0.112689
v 0.286469 -0.000795 -0.112689
v 0.285145 0.000280 -0.112689
v 0.284969 -0.004064 -0.112689
v 0.284969 -0.036497 -0.112689
v 0.285145 -0.040841 -0.112689
v 0.276628 -0.020281 -0.112689
v 0.278252 -0.020281 -0.112689
v 0.325191 -0.039517 -0.112689
v 0.289490 -0.039517 -0.112689
v 0.332584 -0.021667 -0.112689
v 0.326266 -0.040841 -0.112689
v 0.289489 -0.041017 -0.112689
v 0.321922 -0.041017 -0.112689
v 0.305705 -0.049358 -0.112689
v 0.305705 -0.047734 -0.112689
v 0.284969 -0.036497 0.112689
v 0.284969 -0.004064 0.112689
v 0.285145 0.000280 0.112689
v 0.276628 -0.020281 0.112689
v 0.278252 -0.020281 0.112689
v 0.285145 -0.040841 0.112689
v 0.286469 -0.000795 0.112689
v 0.286469 -0.036496 0.112689
v 0.304319 0.006598 0.112689
v 0.305705 0.008796 0.112689
v 0.287105 -0.038881 0.112689
v 0.332646 -0.020018 0.112689
v 0.305968 0.006660 0.112689
v 0.308901 0.005848 0.112689
v 0.331834 -0.017085 0.112689
v 0.334782 -0.020281 0.112689
v 0.326266 0.000280 0.112689
v 0.325118 -0.000868 0.112689
v 0.332584 -0.021667 0.112689
v 0.289490 -0.039517 0.112689
v 0.325191 -0.039517 0.112689
v 0.326266 -0.040841 0.112689
v 0.321922 -0.041017 0.112689
v 0.289489 -0.041017 0.112689
v 0.305705 -0.049358 0.112689
v 0.305705 -0.047734 0.112689
v 0.285882 0.000523 -0.111189
v 0.285882 0.000523 0.111189
v 0.285189 0.000236 0.112689
v 0.305705 0.008734 0.112689
v 0.305012 0.008447 0.111189
v 0.305012 0.008447 -0.111189
v 0.305705 0.008734 -0.112689
v 0.285189 0.000236 -0.112689
v -0.334433 0.020974 0.076806
v -0.334433 0.020974 0.111189
v -0.334720 0.020281 0.112689
v -0.326222 0.040797 0.112689
v -0.326509 0.040104 0.111189
v -0.326509 0.040104 0.076806
v -0.276977 0.020974 0.075306
v -0.276977 0.020974 -0.111189
v -0.276690 0.020281 -0.112689
v -0.285189 0.040797 -0.112689
v -0.284902 0.040104 -0.111189
v -0.284902 0.040104 0.075306
v 0.325529 0.000523 0.111189
v 0.325529 0.000523 -0.111189
v 0.326222 0.000236 -0.112689
v 0.306398 0.008447 -0.111189
v 0.306398 0.008447 0.111189
v 0.326222 0.000236 0.112689
v -0.326538 0.000527 -0.111189
v -0.334433 0.019588 0.096380
v -0.334433 0.019588 0.076056
v -0.334433 0.019588 -0.111189
v -0.334720 0.020281 -0.112689
v -0.284873 0.000527 0.111189
v -0.276977 0.019588 -0.096380
v -0.276977 0.019588 0.076056
v -0.276977 0.019588 0.111189
v -0.276690 0.020281 0.112689
v -0.285189 -0.000236 0.112689
v -0.334404 0.019518 0.111189
v -0.326509 0.000457 -0.096380
v -0.326509 0.000457 0.111189
v -0.277006 0.019518 -0.111189
v -0.284902 0.000457 0.096380
v -0.284902 0.000457 -0.111189
v -0.285189 -0.000236 -0.112689
v -0.304942 -0.008418 0.111189
v -0.285882 -0.000523 -0.096379
v -0.285882 -0.000523 0.111189
v -0.285952 -0.000552 -0.111189
v -0.305012 -0.008447 0.096379
v -0.305012 -0.008447 -0.111189
v -0.285882 0.041084 0.075306
v -0.285882 0.041084 -0.111189
v -0.305705 0.049296 -0.112689
v -0.305012 0.049009 -0.111189
v -0.305012 0.049009 0.075306
v 0.276977 -0.019588 -0.111189
v 0.276977 -0.019588 0.111189
v 0.276690 -0.020281 0.112689
v 0.284902 -0.000457 0.111189
v 0.284902 -0.000457 -0.111189
v 0.276690 -0.020281 -0.112689
v 0.334404 -0.019518 0.111189
v 0.326509 -0.000457 -0.096380
v 0.326509 -0.000457 0.111189
v 0.334720 -0.020281 0.112689
v 0.326538 -0.000527 -0.111189
v 0.334433 -0.019588 0.096380
v 0.334433 -0.019588 -0.111189
v 0.334720 -0.020281 -0.112689
v -0.325529 0.041084 0.076806
v -0.325529 0.041084 0.111189
v -0.305705 0.049296 0.112689
v -0.306398 0.049009 0.111189
v -0.306398 0.049009 0.076806
v 0.326538 -0.040034 0.111189
v 0.334433 -0.020974 -0.096379
v 0.334433 -0.020974 0.111189
v 0.326222 -0.040797 0.112689
v 0.334404 -0.021044 -0.111189
v 0.326509 -0.040104 0.096379
v 0.326509 -0.040104 -0.111189
v 0.326222 -0.040797 -0.112689
v 0.304942 -0.048980 -0.111189
v 0.285882 -0.041084 0.096379
v 0.285882 -0.041084 -0.111189
v 0.285189 -0.040797 -0.112689
v 0.305705 -0.049296 -0.112689
v 0.306468 -0.048980 0.111189
v 0.325529 -0.041084 -0.096380
v 0.325529 -0.041084 0.111189
v 0.305705 -0.049296 0.112689
v 0.285952 -0.041113 0.111189
v 0.305012 -0.049009 -0.096379
v 0.305012 -0.049009 0.111189
v 0.285189 -0.040797 0.112689
v 0.325459 -0.041113 -0.111189
v 0.306398 -0.049009 0.096380
v 0.306398 -0.049009 -0.111189
v 0.284902 -0.040104 -0.111189
v 0.284902 -0.040104 0.111189
v 0.276977 -0.020974 0.111189
v 0.276977 -0.020974 -0.111189
v -0.325529 0.041084 -0.111189
v -0.325529 0.041084 0.075306
v -0.306398 0.049009 0.075306
v -0.306398 0.049009 -0.111189
v -0.326222 0.040797 -0.112689
v -0.285882 0.041084 0.111189
v -0.285882 0.041084 0.076806
v -0.305012 0.049009 0.076806
v -0.305012 0.049009 0.111189
v -0.285189 0.040797 0.112689
v -0.276977 0.020974 0.111189
v -0.276977 0.020974 0.076806
v -0.284902 0.040104 0.076806
v -0.284902 0.040104 0.111189
v -0.334433 0.020974 -0.111189
v -0.334433 0.020974 0.075306
v -0.326509 0.040104 0.075306
v -0.326509 0.040104 -0.111189
vn -0.7230 0.1134 0.6815
vn -0.7230 0.1134 -0.6815
vn 0.1161 0.9796 0.1641
vn -0.0000 0.9852 -0.1717
vn -0.0000 -0.9845 -0.1752
vn -0.5510 -0.8230 0.1380
vn 0.7230 -0.1135 0.6815
vn -0.1160 -0.9796 -0.1640
vn -0.6966 -0.6966 -0.1717
vn -0.5915 0.4310 0.6815
vn 0.6962 0.6962 -0.1752
vn 0.5510 0.8230 -0.1381
vn -0.1215 -0.1215 0.9851
vn -0.0710 -0.1714 0.9826
vn 0.1160 0.9796 0.1640
vn 0.6966 0.6966 0.1716
vn -0.6962 -0.6962 0.1751
vn -0.5914 0.4310 -0.6815
vn 0.7016 0.6842 0.1991
vn 0.5915 -0.4310 0.6814
vn 0.7219 0.6671 -0.1837
vn -0.7016 -0.6842 -0.1990
vn -0.0000 0.1719 0.9851
vn -0.0000 -0.9852 0.1716
vn -0.7220 -0.6671 0.1837
vn 0.1215 0.1215 0.9851
vn 0.7016 0.6842 0.1990
vn -0.0000 0.9845 0.1751
vn -0.9239 0.3827 -0.0000
vn 0.5556 0.8315 -0.0000
vn -0.1536 -0.2299 0.9610
vn 0.2467 -0.1022 0.9637
vn -0.5556 -0.8314 -0.0000
vn 0.1536 0.2299 0.9610
vn -0.2467 0.1022 0.9637
vn -0.5555 -0.8315 -0.0000
vn 0.9239 -0.3826 -0.0000
vn 0.7071 -0.7071 -0.0000
vn -0.2543 0.1365 0.9574
vn -0.7071 0.7071 -0.0000
vn 0.2543 -0.1365 0.9574
vn -0.8314 0.5556 -0.0001
vn 0.8315 -0.5556 -0.0000
vn 0.5555 0.8315 -0.0000
vn -0.5555 -0.8315 -0.0001
vn 0.1905 0.1319 0.9728
vn 0.5555 0.8315 -0.0001
vn -0.1905 -0.1319 0.9728
vn 0.9239 -0.3827 -0.0000
vn 0.7071 0.7071 -0.0000
vn -0.7071 -0.7071 -0.0001
vn -0.9808 0.1951 -0.0000
vn 0.9808 0.1951 -0.0000
vn -0.9808 -0.1952 -0.0000
vn -0.0000 -1.0000 -0.0000
vn -0.0000 0.1653 0.9862
vn -0.0000 1.0000 -0.0000
vn -0.0000 -0.1653 0.9862
vn 0.0001 1.0000 -0.0000
vn 0.9808 -0.1950 -0.0000
vn -0.0000 -0.7071 -0.7071
vn -0.0000 -0.7071 0.7071
vn -0.6533 0.2706 0.7071
vn 0.6533 -0.2706 0.7071
vn -0.6533 0.2706 -0.7071
vn 0.2706 -0.6533 0.7071
vn -0.2706 0.6533 0.7071
vn 0.2000 -0.5735 0.7944
vn -0.2000 -0.5735 0.7944
vn -0.2000 0.5735 0.7944
vn 0.2000 0.5735 0.7944
vn -0.0000 -0.1654 0.9862
vn 0.3827 0.9239 -0.0000
vn 0.2000 0.5735 -0.7944
vn -0.0000 0.1653 -0.9862
vn -0.3827 0.9239 -0.0000
vn -0.2000 0.5735 -0.7944
vn -0.5000 -0.5000 0.7071
vn 0.5000 0.5000 0.7071
vn 0.8315 -0.5555 -0.0000
vn 0.2640 0.5470 0.7944
vn 0.5470 0.2641 0.7944
vn 0.5556 -0.8314 -0.0000
vn -0.8315 0.5555 -0.0000
vn -0.2641 -0.5469 0.7945
vn -0.5469 -0.2641 0.7944
vn -0.5556 0.8314 -0.0000
vn 0.1170 0.1169 0.9862
vn -0.1169 -0.1169 0.9862
vn -0.7071 -0.7071 -0.0000
vn -0.9239 -0.3826 -0.0000
vn -0.5469 -0.2641 -0.7944
vn -0.1169 -0.1169 -0.9862
vn -0.3826 -0.9239 -0.0000
vn -0.2640 -0.5469 -0.7944
vn 0.7071 -0.0000 0.7071
vn -0.7071 -0.0000 0.7071
vn 0.2706 -0.6533 -0.7071
vn 0.6533 -0.2706 -0.7071
vn 0.6533 0.2706 0.7071
vn -0.6533 -0.2706 0.7071
vn 0.6533 0.2706 -0.7071
vn -0.0047 0.3137 0.9495
vn 0.3137 -0.0047 0.9495
vn 0.0047 -0.3137 0.9495
vn -0.3137 0.0047 0.9495
vn 0.1169 0.1169 0.9862
vn -0.0000 -1.0000 -0.0001
vn 1.0000 -0.0001 -0.0001
vn -1.0000 -0.0000 -0.0001
vn -0.2578 -0.2578 0.9312
vn 0.2578 0.2578 0.9312
vn 0.1951 -0.9808 -0.0000
vn -0.1950 0.9808 -0.0000
vn 0.9808 -0.1951 -0.0000
vn -0.7071 -0.7071 0.0001
vn 0.1950 0.9808 -0.0000
vn -0.1950 -0.9808 -0.0000
vn -0.1319 0.1905 0.9728
vn 0.1319 -0.1905 0.9728
vn -0.1951 0.9808 -0.0000
vn 0.1952 -0.9808 -0.0000
vn 1.0000 -0.0000 -0.0000
vn -0.1653 -0.0000 0.9862
vn -1.0000 -0.0001 -0.0001
vn 0.1653 -0.0000 0.9862
vn -1.0000 -0.0000 -0.0000
vn 0.7071 0.7071 -0.0001
vn 0.1905 -0.1319 0.9728
vn -0.1905 0.1319 0.9728
vn 0.7071 0.7072 -0.0000
vn -0.9808 -0.1951 -0.0000
vn 0.9808 0.1952 -0.0000
vn -0.0001 -1.0000 -0.0000
vn -0.9808 0.1950 -0.0000
vn 0.4010 0.4010 0.8237
vn -0.4010 -0.4010 0.8237
vn -0.5735 0.2000 0.7944
vn 0.5735 -0.2000 0.7944
vn 0.1654 -0.0000 0.9862
vn -0.5735 0.2000 -0.7944
vn -0.1653 -0.0000 -0.9862
vn -1.0000 -0.0001 -0.0000
vn -0.4010 -0.4010 -0.8237
vn -0.2706 0.6533 -0.7071
vn -0.2640 -0.5470 0.7944
vn -0.5470 -0.2641 0.7944
vn 0.2641 0.5469 0.7945
vn 0.5469 0.2641 0.7944
vn -0.1170 -0.1169 0.9862
vn 0.9239 0.3826 -0.0000
vn 0.5469 0.2641 -0.7944
vn 0.1169 0.1169 -0.9862
vn 0.3826 0.9239 -0.0000
vn 0.2640 0.5469 -0.7944
vn -0.0000 0.7071 0.7071
vn -0.0000 0.1654 0.9862
vn -0.0000 -0.1653 -0.9862
vn 0.3827 -0.9239 -0.0000
vn 0.2000 -0.5735 -0.7944
vn -0.1951 -0.9808 -0.0000
vn -0.2811 0.6786 0.6786
vn 0.2811 -0.6786 0.6786
vn 0.5556 0.8314 -0.0000
vn 0.2811 -0.6786 -0.6786
vn -0.1134 -0.7230 0.6815
vn -0.1134 -0.7230 -0.6814
vn -0.9673 0.2536 0.0001
vn 0.1135 0.7230 -0.6815
vn 0.1134 0.7230 0.6815
vn -0.9932 -0.1166 -0.0000
vn -0.9799 -0.0123 0.1990
vn -0.9822 -0.0388 -0.1837
vn -0.7852 0.5954 -0.1701
vn 0.4310 0.5915 0.6815
vn 0.9777 -0.1545 -0.1425
vn 0.9799 0.0123 -0.1990
vn -0.1714 0.0710 0.9826
vn -0.1719 -0.0000 0.9851
vn 0.9822 0.0388 0.1837
vn 0.7852 -0.5954 0.1701
vn -0.9777 0.1545 0.1424
vn 0.4311 0.5915 -0.6814
vn -0.4310 -0.5915 0.6815
vn -0.4310 -0.5915 -0.6814
vn -0.9777 0.1546 0.1424
vn -0.9999 0.0116 0.0001
vn 0.9673 -0.2536 -0.0001
vn 0.6351 -0.7724 -0.0000
vn -0.5556 -0.8315 -0.0000
vn -0.6786 -0.2811 0.6786
vn 0.6786 0.2811 0.6786
vn -0.6786 -0.2811 -0.6786
vn -0.2811 -0.6786 0.6786
vn 0.2811 0.6786 0.6786
vn -0.2811 -0.6786 -0.6786
vn 0.5556 -0.8315 -0.0000
vn 0.8315 0.5556 -0.0000
vn 0.7559 0.5072 0.4140
vn 0.3174 -0.6696 -0.6715
vn -0.7560 -0.5071 -0.4140
vn -0.3174 0.6696 0.6714
vn -0.7016 -0.6842 -0.1991
vn -0.1134 0.7230 -0.6815
vn 0.1134 -0.7230 0.6815
vn -0.9845 -0.0000 -0.1752
vn 0.7220 0.6671 -0.1837
vn 0.9852 -0.0000 -0.1716
vn 0.1719 -0.0000 0.9851
vn 0.9845 -0.0000 0.1751
vn -0.4259 0.9024 0.0657
vn -0.9434 -0.3250 -0.0665
vn -0.8315 -0.5556 -0.0000
vn -0.5556 0.8315 -0.0000
vn 0.6786 -0.2811 0.6786
vn -0.6786 0.2811 0.6786
vn 0.8931 0.1760 -0.4140
vn -0.2490 0.6979 0.6715
vn -0.8931 -0.1760 0.4140
vn 0.2490 -0.6979 -0.6715
vn -0.4310 0.5915 -0.6815
vn -0.6962 -0.6962 0.1752
vn 0.4310 -0.5914 0.6815
vn 0.6961 0.6962 -0.1751
vn -0.9393 -0.3369 -0.0657
vn -0.4372 0.8969 0.0665
vn -0.3370 -0.9392 -0.0657
vn -0.8969 0.4372 -0.0665
vn -0.6696 -0.3174 0.6715
vn 0.5071 -0.7559 -0.4140
vn -0.5429 0.8159 -0.1990
vn 0.1103 -0.9761 -0.1873
vn -0.5510 -0.8230 0.1381
vn -0.5072 0.7559 0.4139
vn -0.1160 -0.9796 -0.1641
vn -0.0000 -0.9852 0.1717
vn -0.7230 -0.1134 -0.6815
vn -0.0000 0.9845 0.1752
vn 0.7230 0.1134 0.6814
vn -0.0000 0.9852 -0.1716
vn -0.0001 -0.9845 -0.1752
vn -0.0710 0.1714 0.9826
vn 0.5430 -0.8158 0.1989
vn -0.8315 -0.5555 -0.0000
vn 0.5555 -0.8315 -0.0000
vn 0.6786 -0.2811 -0.6786
vn 0.9392 -0.3370 -0.0657
vn 0.4373 0.8968 0.0665
vn 0.4259 0.9024 0.0657
vn 0.9434 -0.3250 -0.0665
vn -0.8315 0.5556 -0.0000
vn 0.4259 -0.9024 -0.0657
vn 0.9434 0.3250 0.0665
vn -0.8931 0.1759 0.4140
vn 0.2490 0.6979 -0.6715
vn 0.9608 -0.1930 0.1989
vn 0.8931 -0.1760 -0.4140
vn -0.2490 -0.6980 0.6714
vn 0.7682 -0.6122 -0.1873
vn 0.1923 -0.9716 0.1381
vn 0.6106 -0.7748 -0.1641
vn 0.6671 -0.7220 0.1837
vn 0.4310 0.5914 0.6815
vn 0.6842 -0.7016 -0.1991
vn -0.9608 0.1930 -0.1989
vn -0.6671 0.7219 -0.1837
vn 0.1714 -0.0710 -0.9826
vn 0.1216 -0.1215 -0.9851
vn -0.1215 0.1215 0.9851
vn -0.6842 0.7016 0.1990
vn -0.7682 0.6123 0.1873
vn 0.1760 0.8931 0.4140
vn 0.6979 -0.2490 -0.6715
vn -0.0317 -0.9818 0.1873
vn 0.9716 0.1923 -0.1380
vn 0.0001 0.9788 0.2049
vn -0.1759 -0.8931 -0.4140
vn 0.5914 -0.4310 0.6815
vn 0.6966 0.6966 -0.1716
vn 0.7748 0.6106 0.1641
vn -0.9716 -0.1922 0.1381
vn -0.6961 -0.6962 -0.1752
vn -0.6979 0.2491 0.6715
vn 0.0317 0.9818 -0.1872
vn -0.0001 -0.9788 -0.2049
vn 0.0001 -0.1719 -0.9851
vn -0.1215 -0.1216 -0.9851
vn -0.0000 0.1718 0.9851
vn 0.6962 0.6962 0.1751
vn -0.1758 0.8931 -0.4140
vn -0.6979 -0.2491 0.6715
vn 0.2020 -0.9605 -0.1916
vn 0.1760 -0.8931 0.4140
vn 0.6980 0.2490 -0.6714
vn 0.6059 -0.7754 0.1779
vn -0.5915 -0.4310 -0.6815
vn 0.5914 0.4310 0.6815
vn -0.6059 0.7754 -0.1779
vn -0.1923 0.9716 -0.1381
vn 0.0710 -0.1714 0.9826
vn -0.6106 0.7748 0.1640
vn -0.2020 0.9605 0.1915
vn 0.6059 -0.7754 0.1778
vn 0.1923 -0.9716 0.1380
vn 0.9024 0.4259 0.0657
vn 0.3249 -0.9434 0.0665
vn -0.5072 0.7559 0.4140
vn 0.6696 0.3175 -0.6715
vn 0.5072 -0.7559 -0.4139
vn -0.6696 -0.3175 0.6715
vn -0.0317 -0.9818 0.1872
vn 0.7230 0.1134 0.6815
vn -0.0001 -0.9788 -0.2050
vn 0.4310 -0.5914 -0.6815
vn -0.6966 -0.6966 0.1716
vn 0.9716 0.1923 -0.1381
vn -0.7747 -0.6106 -0.1641
vn -0.9762 -0.1343 -0.1701
vn -0.1134 0.7230 0.6814
vn 0.8006 0.5820 -0.1425
vn -0.1714 -0.0710 0.9826
vn 0.7747 0.6107 0.1640
vn 0.9762 0.1343 0.1701
vn -0.8006 -0.5820 0.1424
vn -0.9716 -0.1923 0.1381
vn 0.1134 -0.7230 -0.6815
vn 0.9762 0.1343 -0.1701
vn -0.8006 -0.5820 -0.1424
vn -0.4310 0.5915 0.6815
vn -0.6961 -0.6962 -0.1751
vn -0.1714 -0.0709 -0.9826
vn 0.1714 0.0710 0.9826
vn 0.8006 0.5821 0.1424
vn -0.1134 -0.7231 -0.6814
vn -0.9852 -0.0000 0.1716
vn -0.6351 0.7724 -0.0000
vn 0.9999 -0.0115 -0.0000
vn 0.9932 0.1167 -0.0000
vn -0.4310 -0.5914 0.6815
vn -0.9999 0.0115 -0.0000
vn -0.9777 0.1546 -0.1424
vn 0.9852 0.0001 -0.1716
vn 0.7852 -0.5954 -0.1701
vn -0.7853 0.5954 0.1700
vn 0.1714 -0.0710 0.9826
vn 0.9777 -0.1545 0.1424
vn -0.6352 0.7724 -0.0000
vn -0.9434 -0.3248 -0.0665
vn -0.4374 0.8968 0.0665
vn -0.3368 -0.9393 -0.0657
vn -0.8968 0.4374 -0.0665
vn -0.1102 0.9761 0.1873
vn 0.9393 -0.3368 -0.0657
vn 0.4261 0.9023 0.0657
vn 0.4261 -0.9023 -0.0657
vn 0.8315 0.5555 -0.0000
vn -0.4311 -0.5915 -0.6814
vn -0.7747 -0.6106 -0.1640
vn -0.7231 -0.1134 -0.6814
vn 0.6962 0.6962 0.1752
vn -0.5555 0.8315 -0.0000
vn -0.7853 0.5953 0.1701
vt 0.000000 0.000000
s 1
f 133/1/1 134/1/2 89/1/3 87/1/4
f 134/1/2 133/1/1 88/1/5 90/1/6
f 134/1/7 89/1/8 83/1/9
f 137/1/10 84/1/11 90/1/12
f 136/1/13 135/1/14 89/1/15 83/1/16
f 135/1/14 136/1/13 84/1/17 90/1/6
f 138/1/18 137/1/10 83/1/9
f 137/1/10 138/1/18 80/1/19
f 138/1/20 133/1/1 87/1/4 79/1/21
f 133/1/1 138/1/20 80/1/22 88/1/5
f 140/1/23 87/1/24 79/1/25
f 139/1/26 80/1/27 88/1/28
f 141/1/29 144/1/30 5/1/31 3/1/32
f 144/1/33 6/1/34 4/1/35
f 143/1/36 142/1/37 3/1/32 5/1/31
f 142/1/29 4/1/35 6/1/34
f 144/1/30 146/1/38 7/1/39 5/1/31
f 144/1/33 146/1/40 8/1/41
f 145/1/42 143/1/36 5/1/31 7/1/39
f 145/1/43 143/1/44 6/1/34
f 146/1/38 147/1/45 1/1/46 7/1/39
f 146/1/40 147/1/47 2/1/48
f 147/1/45 141/1/29 3/1/32 1/1/46
f 141/1/49 4/1/35 2/1/48
f 142/1/37 148/1/50 1/1/46 3/1/32
f 148/1/51 2/1/48 4/1/35
f 149/1/52 150/1/53 7/1/39 1/1/46
f 150/1/54 8/1/41 2/1/48
f 150/1/53 152/1/55 9/1/56 7/1/39
f 150/1/54 152/1/57 10/1/58
f 151/1/59 145/1/42 7/1/39 9/1/56
f 151/1/55 145/1/43 8/1/41
f 152/1/55 149/1/52 1/1/46 9/1/56
f 149/1/60 2/1/48 10/1/58
f 148/1/50 151/1/59 9/1/56 1/1/46
f 148/1/51 151/1/55 10/1/58
s 0
f 153/1/61 154/1/61 13/1/61 11/1/61
f 154/1/62 153/1/62 12/1/62 14/1/62
f 157/1/63 154/1/63 13/1/63
f 157/1/64 154/1/64 14/1/64 16/1/64
f 156/1/65 155/1/65 13/1/65 15/1/65
f 155/1/63 156/1/63 16/1/63 14/1/63
f 153/1/66 157/1/66 15/1/66
f 153/1/67 157/1/67 16/1/67 12/1/67
s 1
f 158/1/54 13/1/68 11/1/69
f 159/1/52 158/1/53 14/1/70 12/1/71
f 159/1/60 11/1/69 17/1/72
f 162/1/55 159/1/52 12/1/71 18/1/56
f 161/1/57 160/1/73 11/1/74 17/1/75
f 160/1/73 161/1/57 18/1/56 12/1/71
f 158/1/54 162/1/57 17/1/72
f 158/1/53 162/1/55 18/1/56 14/1/70
f 155/1/76 161/1/57 17/1/75 13/1/77
f 161/1/57 155/1/76 14/1/70 18/1/56
s 0
f 163/1/67 11/1/67 15/1/67
f 164/1/66 163/1/66 12/1/66 16/1/66
f 165/1/78 164/1/78 15/1/78
f 165/1/79 164/1/79 16/1/79 20/1/79
f 163/1/64 165/1/64 19/1/64
f 163/1/63 165/1/63 20/1/63 12/1/63
s 1
f 166/1/80 19/1/81 15/1/82
f 167/1/83 166/1/84 20/1/85 16/1/86
f 167/1/87 15/1/82 21/1/88
f 169/1/50 167/1/83 16/1/86 22/1/89
f 168/1/90 156/1/91 15/1/92 21/1/93
f 156/1/91 168/1/90 22/1/89 16/1/86
f 166/1/80 169/1/90 21/1/88
f 166/1/84 169/1/50 22/1/89 20/1/85
f 170/1/94 168/1/90 21/1/93 19/1/95
f 168/1/90 170/1/94 20/1/85 22/1/89
s 0
f 172/1/96 171/1/96 23/1/96
f 172/1/97 171/1/97 24/1/97 12/1/97
f 172/1/63 11/1/63 19/1/63
f 173/1/64 172/1/64 12/1/64 20/1/64
f 173/1/66 19/1/66 23/1/66
f 171/1/67 173/1/67 20/1/67 24/1/67
f 174/1/98 170/1/98 19/1/98 23/1/98
f 170/1/66 174/1/66 24/1/66 20/1/66
f 176/1/97 175/1/97 11/1/97
f 176/1/96 175/1/96 12/1/96 24/1/96
f 176/1/64 23/1/64 25/1/64
f 178/1/63 176/1/63 24/1/63 26/1/63
f 177/1/99 174/1/99 23/1/99 25/1/99
f 174/1/64 177/1/64 26/1/64 24/1/64
f 175/1/100 178/1/100 25/1/100
f 175/1/101 178/1/101 26/1/101 12/1/101
f 160/1/102 177/1/102 25/1/102 11/1/102
f 177/1/100 160/1/100 12/1/100 26/1/100
s 1
f 179/1/87 180/1/80 29/1/103 27/1/104
f 180/1/84 30/1/105 28/1/106
f 180/1/80 183/1/90 31/1/107 29/1/103
f 180/1/84 183/1/50 32/1/89
f 182/1/50 181/1/57 29/1/103 31/1/107
f 181/1/108 30/1/105 32/1/89
f 183/1/90 179/1/87 27/1/104 31/1/107
f 179/1/83 28/1/106 32/1/89
f 184/1/109 182/1/50 31/1/107 27/1/104
f 184/1/110 182/1/90 32/1/89
f 185/1/52 186/1/50 33/1/111 27/1/104
f 186/1/90 34/1/112 28/1/106
f 186/1/50 187/1/113 29/1/103 33/1/111
f 186/1/90 187/1/114 30/1/105
f 187/1/113 185/1/52 27/1/104 29/1/103
f 187/1/114 185/1/115 28/1/106
f 188/1/116 189/1/117 33/1/111 29/1/103
f 189/1/118 34/1/112 30/1/105
f 189/1/117 190/1/43 35/1/119 33/1/111
f 189/1/118 190/1/84 36/1/120
f 190/1/43 188/1/116 29/1/103 35/1/119
f 188/1/50 30/1/105 36/1/120
f 181/1/57 191/1/40 35/1/119 29/1/103
f 181/1/108 191/1/38 36/1/120
f 192/1/118 193/1/121 33/1/111 35/1/119
f 192/1/117 193/1/122 34/1/112
f 193/1/121 196/1/123 37/1/124 33/1/111
f 193/1/122 196/1/125 38/1/126
f 195/1/127 194/1/51 33/1/111 37/1/124
f 194/1/128 34/1/112 38/1/126
f 196/1/123 192/1/118 35/1/119 37/1/124
f 192/1/117 36/1/120 38/1/126
f 191/1/40 195/1/127 37/1/124 35/1/119
f 191/1/38 195/1/123 38/1/126
f 197/1/87 198/1/53 33/1/111 39/1/129
f 198/1/54 34/1/112 40/1/130
f 198/1/53 199/1/116 27/1/104 33/1/111
f 198/1/54 199/1/131 28/1/106
f 199/1/116 197/1/87 39/1/129 27/1/104
f 199/1/131 197/1/83 40/1/130
f 200/1/38 184/1/109 27/1/104 39/1/129
f 184/1/110 28/1/106 40/1/130
f 201/1/115 202/1/132 39/1/129 33/1/111
f 202/1/133 40/1/130 34/1/112
f 202/1/132 204/1/57 41/1/58 39/1/129
f 202/1/133 204/1/55 42/1/56
f 203/1/134 200/1/38 39/1/129 41/1/58
f 203/1/57 200/1/40 40/1/130
f 204/1/57 201/1/115 33/1/111 41/1/58
f 201/1/135 34/1/112 42/1/56
f 194/1/51 203/1/134 41/1/58 33/1/111
f 194/1/128 203/1/57 42/1/56
f 206/1/117 205/1/122 43/1/136
f 206/1/118 205/1/121 44/1/137 46/1/138
f 206/1/117 45/1/139 47/1/140
f 209/1/123 206/1/118 46/1/138 48/1/124
f 208/1/127 207/1/29 45/1/141 47/1/142
f 207/1/29 208/1/127 48/1/124 46/1/138
f 205/1/122 209/1/143 47/1/140
f 205/1/121 209/1/123 48/1/124 44/1/137
f 210/1/90 208/1/127 47/1/142 43/1/144
f 208/1/127 210/1/90 44/1/137 48/1/124
s 0
f 212/1/97 211/1/97 45/1/97
f 212/1/96 211/1/96 46/1/96 44/1/96
f 212/1/64 43/1/64 49/1/64
f 213/1/63 212/1/63 44/1/63 50/1/63
f 213/1/67 49/1/67 45/1/67
f 211/1/66 213/1/66 50/1/66 46/1/66
f 207/1/145 214/1/145 49/1/145 45/1/145
f 214/1/67 207/1/67 46/1/67 50/1/67
f 215/1/66 43/1/66 51/1/66
f 216/1/67 215/1/67 44/1/67 52/1/67
f 217/1/79 216/1/79 51/1/79
f 217/1/78 216/1/78 52/1/78 50/1/78
f 215/1/63 217/1/63 49/1/63
f 215/1/64 217/1/64 50/1/64 44/1/64
s 1
f 218/1/84 49/1/146 51/1/147
f 219/1/87 218/1/80 50/1/148 52/1/149
f 219/1/83 51/1/147 53/1/150
f 222/1/90 219/1/87 52/1/149 54/1/107
f 221/1/50 220/1/151 51/1/152 53/1/153
f 220/1/151 221/1/50 54/1/107 52/1/149
f 218/1/84 222/1/50 53/1/150
f 218/1/80 222/1/90 54/1/107 50/1/148
f 214/1/154 221/1/50 53/1/153 49/1/155
f 221/1/50 214/1/154 50/1/148 54/1/107
s 0
f 224/1/67 223/1/67 51/1/67
f 224/1/66 223/1/66 52/1/66 44/1/66
f 224/1/62 43/1/62 55/1/62
f 225/1/156 224/1/156 44/1/156 56/1/156
f 223/1/64 225/1/64 55/1/64
f 223/1/63 225/1/63 56/1/63 52/1/63
f 220/1/99 226/1/99 55/1/99 51/1/99
f 226/1/64 220/1/64 52/1/64 56/1/64
s 1
f 227/1/133 55/1/70 43/1/136
f 228/1/115 227/1/132 56/1/68 44/1/137
f 228/1/135 43/1/136 57/1/157
f 230/1/57 228/1/115 44/1/137 58/1/58
f 229/1/55 210/1/90 43/1/144 57/1/158
f 210/1/90 229/1/55 58/1/58 44/1/137
f 227/1/133 230/1/55 57/1/157
f 227/1/132 230/1/57 58/1/58 56/1/68
f 226/1/159 229/1/55 57/1/158 55/1/160
f 229/1/55 226/1/159 56/1/68 58/1/58
s 0
f 231/1/115 232/1/115 99/1/115 91/1/115
f 231/1/161 232/1/161 100/1/161
f 235/1/162 232/1/162 99/1/162
f 232/1/163 235/1/163 94/1/163
f 234/1/163 233/1/163 99/1/163 93/1/163
f 233/1/162 234/1/162 94/1/162 100/1/162
f 236/1/164 235/1/164 93/1/164
f 235/1/80 236/1/80 96/1/80
f 236/1/163 231/1/163 91/1/163 95/1/163
f 231/1/162 236/1/162 96/1/162 92/1/162
f 238/1/165 237/1/165 95/1/165 91/1/165
f 238/1/163 237/1/163 96/1/163
s 1
f 240/1/166 239/1/167 129/1/168
f 240/1/169 239/1/170 130/1/171 76/1/172
f 240/1/166 75/1/173 67/1/174
f 243/1/175 68/1/176 76/1/177
f 242/1/178 241/1/179 75/1/180 67/1/181
f 241/1/179 242/1/178 68/1/182 76/1/172
f 244/1/183 243/1/175 67/1/174
f 244/1/184 243/1/185 68/1/186 126/1/187
f 244/1/184 239/1/170 129/1/188 125/1/189
f 239/1/170 244/1/184 126/1/187 130/1/171
s 0
f 245/1/84 246/1/84 77/1/84 131/1/84
f 246/1/190 78/1/190 132/1/190
f 246/1/191 249/1/191 69/1/191 77/1/191
f 249/1/192 246/1/192 78/1/192 70/1/192
f 248/1/193 247/1/193 77/1/193 69/1/193
f 247/1/191 78/1/191 70/1/191
f 249/1/161 250/1/161 127/1/161 69/1/161
f 249/1/52 250/1/52 128/1/52
f 250/1/192 127/1/192 131/1/192
f 245/1/191 132/1/191 128/1/191
f 252/1/53 251/1/53 97/1/53
f 251/1/113 252/1/113 102/1/113
f 252/1/194 254/1/194 95/1/194 101/1/194
f 254/1/195 252/1/195 102/1/195 96/1/195
f 237/1/196 253/1/196 101/1/196 95/1/196
f 253/1/194 102/1/194 96/1/194
f 254/1/197 255/1/197 93/1/197 95/1/197
f 255/1/198 254/1/198 96/1/198 94/1/198
f 255/1/195 93/1/195 97/1/195
f 255/1/194 251/1/194 98/1/194
f 256/1/194 234/1/194 93/1/194 97/1/194
f 234/1/195 256/1/195 98/1/195 94/1/195
s 1
f 258/1/199 257/1/200 79/1/25
f 258/1/201 257/1/202 80/1/203 76/1/172
f 258/1/199 75/1/173 129/1/168
f 259/1/113 258/1/201 76/1/172 130/1/171
f 260/1/204 259/1/114 129/1/168
f 260/1/205 259/1/113 130/1/171 72/1/206
f 260/1/205 257/1/202 79/1/207 71/1/208
f 257/1/202 260/1/205 72/1/206 80/1/203
f 261/1/209 139/1/26 79/1/25
f 139/1/26 261/1/209 72/1/210
s 0
f 262/1/211 263/1/211 77/1/211 81/1/211
f 263/1/212 78/1/212 82/1/212
f 263/1/213 264/1/213 131/1/213 77/1/213
f 263/1/214 264/1/214 132/1/214
f 264/1/213 265/1/213 73/1/213 131/1/213
f 265/1/214 74/1/214 132/1/214
f 262/1/215 265/1/215 73/1/215
f 262/1/216 82/1/216 74/1/216
f 267/1/216 266/1/216 73/1/216 81/1/216
f 266/1/215 267/1/215 82/1/215 74/1/215
s 1
f 269/1/217 268/1/218 75/1/173
f 269/1/219 268/1/220 76/1/172 80/1/203
f 269/1/217 79/1/25 83/1/9
f 270/1/221 269/1/219 80/1/203 84/1/222
f 268/1/218 270/1/223 83/1/9
f 268/1/218 76/1/177 84/1/224
f 241/1/179 136/1/13 83/1/16 75/1/180
f 136/1/13 241/1/179 76/1/172 84/1/17
s 0
f 271/1/225 272/1/225 81/1/225 77/1/225
f 272/1/226 82/1/226 78/1/226
f 272/1/121 273/1/121 85/1/121 81/1/121
f 272/1/132 273/1/132 86/1/132
f 273/1/216 271/1/216 77/1/216 85/1/216
f 271/1/215 273/1/215 86/1/215 78/1/215
f 274/1/215 247/1/215 77/1/215
f 247/1/216 274/1/216 86/1/216
f 276/1/227 275/1/227 89/1/227
f 276/1/228 86/1/228 90/1/228
f 276/1/52 277/1/52 81/1/52 85/1/52
f 277/1/161 276/1/161 86/1/161 82/1/161
f 275/1/163 277/1/163 81/1/163
f 275/1/162 90/1/162 82/1/162
f 135/1/162 267/1/162 81/1/162 89/1/162
f 267/1/163 135/1/163 90/1/163 82/1/163
s 1
f 278/1/229 279/1/230 89/1/15 85/1/231
f 279/1/230 278/1/229 86/1/232 90/1/233
f 279/1/234 89/1/235 87/1/236
f 279/1/234 280/1/237 88/1/238
f 280/1/239 278/1/229 85/1/231 87/1/240
f 278/1/229 280/1/239 88/1/241 86/1/232
f 140/1/23 274/1/242 85/1/243
f 274/1/242 140/1/23 88/1/28
s 0
f 281/1/132 282/1/132 69/1/132 127/1/132
f 282/1/121 281/1/121 128/1/121 70/1/121
f 282/1/194 284/1/194 63/1/194 69/1/194
f 284/1/195 282/1/195 70/1/195 64/1/195
f 283/1/196 248/1/196 69/1/196 63/1/196
f 283/1/194 248/1/194 70/1/194
f 284/1/214 63/1/214 123/1/214
f 284/1/244 285/1/244 124/1/244
f 285/1/195 123/1/195 127/1/195
f 285/1/194 281/1/194 128/1/194
f 286/1/198 287/1/198 107/1/198 103/1/198
f 286/1/245 287/1/245 108/1/245
f 289/1/216 287/1/216 107/1/216
f 287/1/215 289/1/215 100/1/215
f 233/1/215 288/1/215 107/1/215 99/1/215
f 288/1/216 233/1/216 100/1/216 108/1/216
f 289/1/113 290/1/113 91/1/113 99/1/113
f 289/1/53 290/1/53 92/1/53
f 290/1/215 286/1/215 103/1/215 91/1/215
f 286/1/216 290/1/216 92/1/216 104/1/216
f 291/1/246 238/1/246 91/1/246 103/1/246
f 291/1/215 238/1/215 92/1/215
f 293/1/247 292/1/247 105/1/247
f 293/1/248 292/1/248 106/1/248 102/1/248
f 293/1/161 294/1/161 97/1/161 101/1/161
f 294/1/115 293/1/115 102/1/115 98/1/115
f 292/1/192 294/1/192 97/1/192
f 292/1/191 106/1/191 98/1/191
f 295/1/191 256/1/191 97/1/191 105/1/191
f 256/1/192 295/1/192 106/1/192 98/1/192
f 297/1/249 296/1/249 101/1/249
f 297/1/250 296/1/250 102/1/250 106/1/250
f 297/1/43 105/1/43 109/1/43
f 297/1/190 298/1/190 110/1/190
f 298/1/191 296/1/191 101/1/191 109/1/191
f 296/1/192 298/1/192 110/1/192 102/1/192
f 253/1/193 299/1/193 109/1/193 101/1/193
f 253/1/191 299/1/191 110/1/191
f 301/1/135 300/1/135 125/1/135
f 300/1/161 301/1/161 68/1/161
f 301/1/162 67/1/162 61/1/162
f 303/1/163 62/1/163 68/1/163
f 302/1/163 242/1/163 67/1/163 61/1/163
f 242/1/162 302/1/162 62/1/162 68/1/162
f 303/1/190 304/1/190 123/1/190 61/1/190
f 304/1/251 303/1/251 62/1/251 124/1/251
f 304/1/163 300/1/163 125/1/163 123/1/163
f 300/1/162 304/1/162 124/1/162 126/1/162
f 306/1/252 305/1/252 113/1/252
f 306/1/253 305/1/253 114/1/253 110/1/253
f 306/1/198 109/1/198 105/1/198
f 307/1/197 306/1/197 110/1/197 106/1/197
f 305/1/215 307/1/215 105/1/215
f 305/1/216 114/1/216 106/1/216
f 308/1/216 295/1/216 105/1/216 113/1/216
f 295/1/215 308/1/215 114/1/215 106/1/215
s 1
f 310/1/254 309/1/255 109/1/256
f 310/1/257 309/1/258 110/1/259 114/1/260
f 310/1/254 113/1/261 117/1/262
f 311/1/263 310/1/257 114/1/260 118/1/264
f 311/1/263 309/1/258 109/1/265 117/1/266
f 309/1/258 311/1/263 118/1/264 110/1/259
f 299/1/267 312/1/268 117/1/266 109/1/265
f 312/1/269 118/1/270 110/1/271
f 314/1/272 313/1/273 119/1/274
f 314/1/272 116/1/275 120/1/276
f 314/1/277 315/1/278 111/1/279 115/1/280
f 315/1/278 314/1/277 116/1/281 112/1/282
f 315/1/278 313/1/283 119/1/284 111/1/279
f 313/1/283 315/1/278 112/1/282 120/1/285
f 317/1/286 316/1/287 111/1/279 119/1/284
f 317/1/288 316/1/26 112/1/289
f 319/1/290 318/1/291 121/1/292
f 319/1/293 318/1/294 122/1/295 118/1/264
f 319/1/290 117/1/262 113/1/261
f 320/1/296 319/1/293 118/1/264 114/1/260
f 318/1/291 320/1/297 113/1/261
f 318/1/291 122/1/298 114/1/299
f 321/1/300 308/1/300 113/1/301 121/1/302
f 308/1/300 321/1/300 122/1/303 114/1/304
s 0
f 322/1/305 323/1/305 119/1/305 115/1/305
f 323/1/306 322/1/306 116/1/306 120/1/306
f 323/1/245 119/1/245 121/1/245
f 323/1/198 324/1/198 122/1/198
f 322/1/194 324/1/194 121/1/194
f 322/1/195 116/1/195 122/1/195
f 325/1/195 321/1/195 121/1/195 115/1/195
f 321/1/194 325/1/194 116/1/194 122/1/194
s 1
f 327/1/307 326/1/308 117/1/262
f 327/1/309 326/1/310 118/1/264 122/1/295
f 327/1/307 121/1/292 119/1/311
f 328/1/312 327/1/309 122/1/295 120/1/313
f 328/1/312 326/1/310 117/1/266 119/1/284
f 326/1/310 328/1/312 120/1/313 118/1/264
f 312/1/268 317/1/286 119/1/284 117/1/266
f 317/1/288 120/1/276 118/1/270
f 330/1/223 329/1/314 111/1/315
f 329/1/314 330/1/223 116/1/316
f 330/1/223 115/1/317 107/1/318
f 331/1/319 108/1/320 116/1/316
f 288/1/321 325/1/321 115/1/322 107/1/323
f 325/1/321 288/1/321 108/1/324 116/1/325
f 331/1/326 332/1/205 103/1/327 107/1/323
f 332/1/205 331/1/326 108/1/324 104/1/328
f 332/1/205 329/1/329 111/1/279 103/1/327
f 329/1/329 332/1/205 104/1/328 112/1/330
f 316/1/287 291/1/331 103/1/327 111/1/279
f 291/1/332 104/1/333 112/1/289
s 0
f 334/1/135 333/1/135 59/1/135
f 333/1/161 334/1/161 126/1/161
f 334/1/162 125/1/162 123/1/162
f 335/1/163 124/1/163 126/1/163
f 335/1/190 336/1/190 63/1/190 123/1/190
f 336/1/251 335/1/251 124/1/251 64/1/251
f 336/1/163 333/1/163 59/1/163 63/1/163
f 333/1/162 336/1/162 64/1/162 60/1/162
f 337/1/165 283/1/165 63/1/165 59/1/165
f 283/1/163 64/1/163 60/1/163
f 338/1/132 339/1/132 127/1/132 65/1/132
f 339/1/121 338/1/121 66/1/121 128/1/121
f 339/1/194 340/1/194 123/1/194 127/1/194
f 340/1/195 339/1/195 128/1/195 124/1/195
f 341/1/214 340/1/214 123/1/214
f 340/1/213 341/1/213 62/1/213
f 341/1/195 61/1/195 65/1/195
f 341/1/194 338/1/194 66/1/194
f 342/1/194 302/1/194 61/1/194 65/1/194
f 302/1/195 342/1/195 66/1/195 62/1/195
f 343/1/251 344/1/251 131/1/251 73/1/251
f 343/1/36 344/1/36 132/1/36
f 344/1/191 345/1/191 127/1/191 131/1/191
f 345/1/192 344/1/192 132/1/192 128/1/192
f 345/1/161 346/1/161 65/1/161 127/1/161
f 345/1/52 346/1/52 66/1/52
f 346/1/192 65/1/192 73/1/192
f 343/1/191 74/1/191 66/1/191
f 266/1/191 342/1/191 65/1/191 73/1/191
f 342/1/192 266/1/192 74/1/192 66/1/192
s 1
f 347/1/334 71/1/335 129/1/168
f 348/1/169 347/1/170 72/1/206 130/1/171
f 348/1/166 129/1/168 125/1/336
f 349/1/175 126/1/337 130/1/338
f 350/1/183 349/1/175 125/1/336
f 350/1/339 349/1/185 126/1/340 60/1/341
f 350/1/339 347/1/170 71/1/342 59/1/343
f 347/1/170 350/1/339 60/1/341 72/1/206
f 261/1/209 71/1/335 59/1/344
f 337/1/345 60/1/346 72/1/210
f 134/1/7 83/1/9 137/1/10
f 137/1/10 90/1/12 134/1/7
f 138/1/18 83/1/9 79/1/25
f 137/1/10 80/1/19 84/1/11
f 140/1/23 79/1/25 139/1/26
f 139/1/26 88/1/28 140/1/23
f 144/1/33 4/1/35 141/1/49
f 142/1/29 6/1/34 143/1/44
f 144/1/33 8/1/41 6/1/34
f 145/1/43 6/1/34 8/1/41
f 146/1/40 2/1/48 8/1/41
f 141/1/49 2/1/48 147/1/47
f 148/1/51 4/1/35 142/1/29
f 150/1/54 2/1/48 149/1/60
f 150/1/54 10/1/58 8/1/41
f 151/1/55 8/1/41 10/1/58
f 149/1/60 10/1/58 152/1/57
f 148/1/51 10/1/58 2/1/48
s 0
f 157/1/63 13/1/63 15/1/63
f 153/1/66 15/1/66 11/1/66
s 1
f 158/1/54 11/1/69 159/1/60
f 159/1/60 17/1/72 162/1/57
f 158/1/54 17/1/72 13/1/68
s 0
f 163/1/67 15/1/67 164/1/67
f 165/1/78 15/1/78 19/1/78
f 163/1/64 19/1/64 11/1/64
s 1
f 166/1/80 15/1/82 167/1/87
f 167/1/87 21/1/88 169/1/90
f 166/1/80 21/1/88 19/1/81
s 0
f 172/1/96 23/1/96 11/1/96
f 172/1/63 19/1/63 173/1/63
f 173/1/66 23/1/66 171/1/66
f 176/1/97 11/1/97 23/1/97
f 176/1/64 25/1/64 178/1/64
f 175/1/100 25/1/100 11/1/100
s 1
f 180/1/84 28/1/106 179/1/83
f 180/1/84 32/1/89 30/1/105
f 181/1/108 32/1/89 182/1/90
f 179/1/83 32/1/89 183/1/50
f 184/1/110 32/1/89 28/1/106
f 186/1/90 28/1/106 185/1/115
f 186/1/90 30/1/105 34/1/112
f 187/1/114 28/1/106 30/1/105
f 189/1/118 30/1/105 188/1/50
f 189/1/118 36/1/120 34/1/112
f 188/1/50 36/1/120 190/1/84
f 181/1/108 36/1/120 30/1/105
f 192/1/117 34/1/112 36/1/120
f 193/1/122 38/1/126 34/1/112
f 194/1/128 38/1/126 195/1/123
f 192/1/117 38/1/126 196/1/125
f 191/1/38 38/1/126 36/1/120
f 198/1/54 40/1/130 197/1/83
f 198/1/54 28/1/106 34/1/112
f 199/1/131 40/1/130 28/1/106
f 184/1/110 40/1/130 200/1/40
f 202/1/133 34/1/112 201/1/135
f 202/1/133 42/1/56 40/1/130
f 203/1/57 40/1/130 42/1/56
f 201/1/135 42/1/56 204/1/55
f 194/1/128 42/1/56 34/1/112
f 206/1/117 43/1/136 45/1/139
f 206/1/117 47/1/140 209/1/143
f 205/1/122 47/1/140 43/1/136
s 0
f 212/1/97 45/1/97 43/1/97
f 212/1/64 49/1/64 213/1/64
f 213/1/67 45/1/67 211/1/67
f 215/1/66 51/1/66 216/1/66
f 217/1/79 51/1/79 49/1/79
f 215/1/63 49/1/63 43/1/63
s 1
f 218/1/84 51/1/147 219/1/83
f 219/1/83 53/1/150 222/1/50
f 218/1/84 53/1/150 49/1/146
s 0
f 224/1/67 51/1/67 43/1/67
f 224/1/62 55/1/62 225/1/62
f 223/1/64 55/1/64 51/1/64
s 1
f 227/1/133 43/1/136 228/1/135
f 228/1/135 57/1/157 230/1/55
f 227/1/133 57/1/157 55/1/70
s 0
f 231/1/161 100/1/161 92/1/161
f 235/1/162 99/1/162 93/1/162
f 232/1/163 94/1/163 100/1/163
f 236/1/30 93/1/30 95/1/30
f 235/1/43 96/1/43 94/1/43
f 238/1/163 96/1/163 92/1/163
s 1
f 240/1/166 129/1/168 75/1/173
f 240/1/166 67/1/174 243/1/175
f 243/1/175 76/1/177 240/1/166
f 244/1/183 67/1/174 125/1/347
s 0
f 246/1/36 132/1/36 245/1/36
f 247/1/191 70/1/191 248/1/191
f 249/1/52 128/1/52 70/1/52
f 250/1/192 131/1/192 245/1/192
f 245/1/191 128/1/191 250/1/191
f 252/1/53 97/1/53 101/1/53
f 251/1/113 102/1/113 98/1/113
f 253/1/194 96/1/194 237/1/194
f 255/1/195 97/1/195 251/1/195
f 255/1/194 98/1/194 94/1/194
s 1
f 258/1/199 79/1/25 75/1/173
f 258/1/199 129/1/168 259/1/114
f 260/1/204 129/1/168 71/1/335
f 261/1/209 79/1/25 71/1/335
f 139/1/26 72/1/210 80/1/27
s 0
f 263/1/348 82/1/348 262/1/348
f 263/1/214 132/1/214 78/1/214
f 265/1/214 132/1/214 264/1/214
f 262/1/215 73/1/215 81/1/215
f 262/1/216 74/1/216 265/1/216
s 1
f 269/1/217 75/1/173 79/1/25
f 269/1/217 83/1/9 270/1/223
f 268/1/218 83/1/9 75/1/173
f 268/1/218 84/1/224 270/1/223
s 0
f 272/1/349 78/1/349 271/1/349
f 272/1/132 86/1/132 82/1/132
f 274/1/215 77/1/215 85/1/215
f 247/1/216 86/1/216 78/1/216
f 276/1/350 89/1/350 85/1/350
f 276/1/351 90/1/351 275/1/351
f 275/1/163 81/1/163 89/1/163
f 275/1/162 82/1/162 277/1/162
s 1
f 279/1/234 87/1/236 280/1/237
f 279/1/234 88/1/238 90/1/12
f 140/1/23 85/1/243 87/1/24
f 274/1/242 88/1/28 86/1/352
s 0
f 283/1/194 70/1/194 64/1/194
f 284/1/214 123/1/214 285/1/214
f 284/1/244 124/1/244 64/1/244
f 285/1/195 127/1/195 281/1/195
f 285/1/194 128/1/194 124/1/194
f 286/1/197 108/1/197 104/1/197
f 289/1/216 107/1/216 99/1/216
f 287/1/215 100/1/215 108/1/215
f 289/1/53 92/1/53 100/1/53
f 291/1/215 92/1/215 104/1/215
f 293/1/353 105/1/353 101/1/353
f 292/1/192 97/1/192 105/1/192
f 292/1/191 98/1/191 294/1/191
f 297/1/354 101/1/354 105/1/354
f 297/1/43 109/1/43 298/1/43
f 297/1/190 110/1/190 106/1/190
f 253/1/191 110/1/191 102/1/191
f 301/1/52 125/1/52 67/1/52
f 300/1/161 68/1/161 126/1/161
f 301/1/162 61/1/162 303/1/162
f 303/1/163 68/1/163 301/1/163
f 306/1/355 113/1/355 109/1/355
f 306/1/356 105/1/356 307/1/356
f 305/1/215 105/1/215 113/1/215
f 305/1/216 106/1/216 307/1/216
s 1
f 310/1/254 109/1/256 113/1/261
f 310/1/254 117/1/262 311/1/357
f 312/1/269 110/1/271 299/1/178
f 314/1/272 119/1/274 115/1/358
f 314/1/272 120/1/276 313/1/273
f 317/1/288 112/1/289 120/1/276
f 319/1/290 121/1/292 117/1/262
f 319/1/290 113/1/261 320/1/297
f 318/1/291 113/1/261 121/1/292
f 318/1/291 114/1/299 320/1/297
s 0
f 323/1/197 121/1/197 324/1/197
f 323/1/198 122/1/198 120/1/198
f 322/1/194 121/1/194 115/1/194
f 322/1/195 122/1/195 324/1/195
s 1
f 327/1/307 117/1/262 121/1/292
f 327/1/307 119/1/311 328/1/359
f 317/1/288 118/1/270 312/1/269
f 330/1/223 111/1/315 115/1/317
f 329/1/314 116/1/316 112/1/360
f 330/1/223 107/1/318 331/1/319
f 331/1/319 116/1/316 330/1/223
f 291/1/332 112/1/289 316/1/26
s 0
f 334/1/52 59/1/52 125/1/52
f 333/1/161 126/1/161 60/1/161
f 334/1/162 123/1/162 335/1/162
f 335/1/163 126/1/163 334/1/163
f 283/1/163 60/1/163 337/1/163
f 341/1/361 123/1/361 61/1/361
f 340/1/213 62/1/213 124/1/213
f 341/1/195 65/1/195 338/1/195
f 341/1/194 66/1/194 62/1/194
f 343/1/190 132/1/190 74/1/190
f 345/1/135 66/1/135 128/1/135
f 346/1/192 73/1/192 343/1/192
f 343/1/191 66/1/191 346/1/191
s 1
f 347/1/334 129/1/168 348/1/166
f 348/1/166 125/1/336 349/1/175
f 349/1/175 130/1/338 348/1/166
f 350/1/183 125/1/336 59/1/362
f 261/1/209 59/1/344 337/1/345
f 337/1/345 72/1/210 261/1/209
